<?xml version="1.0" encoding="UTF-8" standalone="no"?>
<!DOCTYPE svg PUBLIC "-//W3C//DTD SVG 1.1//EN"
 "http://www.w3.org/Graphics/SVG/1.1/DTD/svg11.dtd">
<!-- Generated by graphviz version 2.47.0 (20210316.0004)
 -->
<!-- Title: dbml Pages: 1 -->
<svg width="1455pt" height="594pt"
 viewBox="0.00 0.00 1455.39 594.49" xmlns="http://www.w3.org/2000/svg" xmlns:xlink="http://www.w3.org/1999/xlink">
<g id="graph0" class="graph" transform="scale(1 1) rotate(0) translate(4 590.49)">
<title>dbml</title>
<!-- dim_year -->
<g id="dim_year" class="node">
<title>dim_year</title>
<ellipse fill="none" stroke="black" stroke-width="0" cx="1153.23" cy="-456.39" rx="199.31" ry="130.22"/>
<polygon fill="#1d71b8" stroke="transparent" points="1014.23,-486.39 1014.23,-546.39 1292.23,-546.39 1292.23,-486.39 1014.23,-486.39"/>
<polygon fill="none" stroke="#29235c" points="1014.23,-486.39 1014.23,-546.39 1292.23,-546.39 1292.23,-486.39 1014.23,-486.39"/>
<text text-anchor="start" x="1025.2" y="-507.59" font-family="Helvetica,sans-Serif" font-weight="bold" font-size="32.00" fill="#ffffff"> &#160;&#160;&#160;&#160;&#160;&#160;dim_year &#160;&#160;&#160;&#160;&#160;&#160;</text>
<polygon fill="#e7e2dd" stroke="transparent" points="1014.23,-426.39 1014.23,-486.39 1292.23,-486.39 1292.23,-426.39 1014.23,-426.39"/>
<polygon fill="none" stroke="#29235c" points="1014.23,-426.39 1014.23,-486.39 1292.23,-486.39 1292.23,-426.39 1014.23,-426.39"/>
<text text-anchor="start" x="1025.23" y="-447.59" font-family="Helvetica,sans-Serif" font-weight="bold" font-size="32.00" fill="#29235c">year_id</text>
<text text-anchor="start" x="1130.14" y="-447.59" font-family="Helvetica,sans-Serif" font-size="32.00" fill="#29235c"> &#160;&#160;&#160;</text>
<text text-anchor="start" x="1247.45" y="-447.59" font-family="Helvetica,sans-Serif" font-style="italic" font-size="32.00" fill="#29235c">int</text>
<polygon fill="#e7e2dd" stroke="transparent" points="1014.23,-366.39 1014.23,-426.39 1292.23,-426.39 1292.23,-366.39 1014.23,-366.39"/>
<polygon fill="none" stroke="#29235c" points="1014.23,-366.39 1014.23,-426.39 1292.23,-426.39 1292.23,-366.39 1014.23,-366.39"/>
<text text-anchor="start" x="1025.23" y="-386.59" font-family="Helvetica,sans-Serif" font-size="32.00" fill="#29235c">year &#160;&#160;&#160;</text>
<text text-anchor="start" x="1208.36" y="-387.59" font-family="Helvetica,sans-Serif" font-style="italic" font-size="32.00" fill="#29235c">int</text>
<text text-anchor="start" x="1242.14" y="-387.59" font-family="Helvetica,sans-Serif" font-size="32.00" fill="#29235c"> </text>
<text text-anchor="start" x="1251.03" y="-387.59" font-family="Helvetica,sans-Serif" font-weight="bold" font-size="32.00" fill="#29235c">(!)</text>
<polygon fill="none" stroke="#29235c" stroke-width="2" points="1013.23,-365.39 1013.23,-547.39 1293.23,-547.39 1293.23,-365.39 1013.23,-365.39"/>
</g>
<!-- dim_industry -->
<g id="dim_industry" class="node">
<title>dim_industry</title>
<ellipse fill="none" stroke="black" stroke-width="0" cx="1153.23" cy="-178.39" rx="294.31" ry="130.22"/>
<polygon fill="#1d71b8" stroke="transparent" points="947.23,-208.39 947.23,-268.39 1359.23,-268.39 1359.23,-208.39 947.23,-208.39"/>
<polygon fill="none" stroke="#29235c" points="947.23,-208.39 947.23,-268.39 1359.23,-268.39 1359.23,-208.39 947.23,-208.39"/>
<text text-anchor="start" x="1000.31" y="-229.59" font-family="Helvetica,sans-Serif" font-weight="bold" font-size="32.00" fill="#ffffff"> &#160;&#160;&#160;&#160;&#160;&#160;dim_industry &#160;&#160;&#160;&#160;&#160;&#160;</text>
<polygon fill="#e7e2dd" stroke="transparent" points="947.23,-148.39 947.23,-208.39 1359.23,-208.39 1359.23,-148.39 947.23,-148.39"/>
<polygon fill="none" stroke="#29235c" points="947.23,-148.39 947.23,-208.39 1359.23,-208.39 1359.23,-148.39 947.23,-148.39"/>
<text text-anchor="start" x="958.23" y="-169.59" font-family="Helvetica,sans-Serif" font-weight="bold" font-size="32.00" fill="#29235c">industry_id</text>
<text text-anchor="start" x="1112.92" y="-169.59" font-family="Helvetica,sans-Serif" font-size="32.00" fill="#29235c"> &#160;&#160;&#160;</text>
<text text-anchor="start" x="1184.67" y="-169.59" font-family="Helvetica,sans-Serif" font-style="italic" font-size="32.00" fill="#29235c">varchar(32)</text>
<polygon fill="#e7e2dd" stroke="transparent" points="947.23,-88.39 947.23,-148.39 1359.23,-148.39 1359.23,-88.39 947.23,-88.39"/>
<polygon fill="none" stroke="#29235c" points="947.23,-88.39 947.23,-148.39 1359.23,-148.39 1359.23,-88.39 947.23,-88.39"/>
<text text-anchor="start" x="958.03" y="-108.59" font-family="Helvetica,sans-Serif" font-size="32.00" fill="#29235c">industry_name &#160;&#160;&#160;</text>
<text text-anchor="start" x="1202.85" y="-109.59" font-family="Helvetica,sans-Serif" font-style="italic" font-size="32.00" fill="#29235c">varchar</text>
<text text-anchor="start" x="1309.52" y="-109.59" font-family="Helvetica,sans-Serif" font-size="32.00" fill="#29235c"> </text>
<text text-anchor="start" x="1318.41" y="-109.59" font-family="Helvetica,sans-Serif" font-weight="bold" font-size="32.00" fill="#29235c">(!)</text>
<polygon fill="none" stroke="#29235c" stroke-width="2" points="946.23,-87.39 946.23,-269.39 1360.23,-269.39 1360.23,-87.39 946.23,-87.39"/>
</g>
<!-- fact_bankruptcies_by_industry -->
<g id="fact_bankruptcies_by_industry" class="node">
<title>fact_bankruptcies_by_industry</title>
<ellipse fill="none" stroke="black" stroke-width="0" cx="411.54" cy="-257.39" rx="411.57" ry="257.27"/>
<polygon fill="#1d71b8" stroke="transparent" points="122.54,-377.39 122.54,-437.39 700.54,-437.39 700.54,-377.39 122.54,-377.39"/>
<polygon fill="none" stroke="#29235c" points="122.54,-377.39 122.54,-437.39 700.54,-437.39 700.54,-377.39 122.54,-377.39"/>
<text text-anchor="start" x="133.23" y="-398.59" font-family="Helvetica,sans-Serif" font-weight="bold" font-size="32.00" fill="#ffffff"> &#160;&#160;&#160;&#160;&#160;&#160;fact_bankruptcies_by_industry &#160;&#160;&#160;&#160;&#160;&#160;</text>
<polygon fill="#e7e2dd" stroke="transparent" points="122.54,-317.39 122.54,-377.39 700.54,-377.39 700.54,-317.39 122.54,-317.39"/>
<polygon fill="none" stroke="#29235c" points="122.54,-317.39 122.54,-377.39 700.54,-377.39 700.54,-317.39 122.54,-317.39"/>
<text text-anchor="start" x="133.54" y="-337.59" font-family="Helvetica,sans-Serif" font-size="32.00" fill="#29235c">year_id &#160;&#160;&#160;</text>
<text text-anchor="start" x="616.66" y="-338.59" font-family="Helvetica,sans-Serif" font-style="italic" font-size="32.00" fill="#29235c">int</text>
<text text-anchor="start" x="650.44" y="-338.59" font-family="Helvetica,sans-Serif" font-size="32.00" fill="#29235c"> </text>
<text text-anchor="start" x="659.34" y="-338.59" font-family="Helvetica,sans-Serif" font-weight="bold" font-size="32.00" fill="#29235c">(!)</text>
<polygon fill="#e7e2dd" stroke="transparent" points="122.54,-257.39 122.54,-317.39 700.54,-317.39 700.54,-257.39 122.54,-257.39"/>
<polygon fill="none" stroke="#29235c" points="122.54,-257.39 122.54,-317.39 700.54,-317.39 700.54,-257.39 122.54,-257.39"/>
<text text-anchor="start" x="133.54" y="-277.59" font-family="Helvetica,sans-Serif" font-size="32.00" fill="#29235c">industry_id &#160;&#160;&#160;</text>
<text text-anchor="start" x="486.89" y="-278.59" font-family="Helvetica,sans-Serif" font-style="italic" font-size="32.00" fill="#29235c">varchar(32)</text>
<text text-anchor="start" x="650.44" y="-278.59" font-family="Helvetica,sans-Serif" font-size="32.00" fill="#29235c"> </text>
<text text-anchor="start" x="659.34" y="-278.59" font-family="Helvetica,sans-Serif" font-weight="bold" font-size="32.00" fill="#29235c">(!)</text>
<polygon fill="#e7e2dd" stroke="transparent" points="122.54,-197.39 122.54,-257.39 700.54,-257.39 700.54,-197.39 122.54,-197.39"/>
<polygon fill="none" stroke="#29235c" points="122.54,-197.39 122.54,-257.39 700.54,-257.39 700.54,-197.39 122.54,-197.39"/>
<text text-anchor="start" x="133.54" y="-217.59" font-family="Helvetica,sans-Serif" font-size="32.00" fill="#29235c">bankruptcies_enterprises &#160;&#160;&#160;</text>
<text text-anchor="start" x="655.75" y="-218.59" font-family="Helvetica,sans-Serif" font-style="italic" font-size="32.00" fill="#29235c">int</text>
<polygon fill="#e7e2dd" stroke="transparent" points="122.54,-137.39 122.54,-197.39 700.54,-197.39 700.54,-137.39 122.54,-137.39"/>
<polygon fill="none" stroke="#29235c" points="122.54,-137.39 122.54,-197.39 700.54,-197.39 700.54,-137.39 122.54,-137.39"/>
<text text-anchor="start" x="133.54" y="-157.59" font-family="Helvetica,sans-Serif" font-size="32.00" fill="#29235c">bankruptcies_employees &#160;&#160;&#160;</text>
<text text-anchor="start" x="655.75" y="-158.59" font-family="Helvetica,sans-Serif" font-style="italic" font-size="32.00" fill="#29235c">int</text>
<polygon fill="#e7e2dd" stroke="transparent" points="122.54,-77.39 122.54,-137.39 700.54,-137.39 700.54,-77.39 122.54,-77.39"/>
<polygon fill="none" stroke="#29235c" points="122.54,-77.39 122.54,-137.39 700.54,-137.39 700.54,-77.39 122.54,-77.39"/>
<text text-anchor="start" x="133.54" y="-97.59" font-family="Helvetica,sans-Serif" font-size="32.00" fill="#29235c">share_of_total_pct &#160;&#160;&#160;</text>
<text text-anchor="start" x="495.75" y="-98.59" font-family="Helvetica,sans-Serif" font-style="italic" font-size="32.00" fill="#29235c">decimal(10,2)</text>
<polygon fill="none" stroke="#29235c" stroke-width="2" points="121.54,-76.39 121.54,-438.39 701.54,-438.39 701.54,-76.39 121.54,-76.39"/>
</g>
<!-- fact_bankruptcies_by_industry&#45;&gt;dim_year -->
<!-- fact_bankruptcies_by_industry&#45;&gt;dim_year -->
<g id="edge2" class="edge">
<title>fact_bankruptcies_by_industry:e&#45;&gt;dim_year:w</title>
<path fill="none" stroke="#29235c" stroke-width="3" d="M701.54,-347.39C844.85,-347.39 865.55,-451.34 1003.12,-456.21"/>
<polygon fill="#29235c" stroke="#29235c" stroke-width="3" points="1003.17,-459.71 1013.23,-456.39 1003.29,-452.71 1003.17,-459.71"/>
<text text-anchor="middle" x="1004.33" y="-465.99" font-family="Helvetica,sans-Serif" font-size="32.00" fill="#29235c">1</text>
<text text-anchor="middle" x="707.76" y="-356.99" font-family="Helvetica,sans-Serif" font-size="32.00" fill="#29235c">*</text>
</g>
<!-- fact_bankruptcies_by_industry&#45;&gt;dim_industry -->
<!-- fact_bankruptcies_by_industry&#45;&gt;dim_industry -->
<g id="edge4" class="edge">
<title>fact_bankruptcies_by_industry:e&#45;&gt;dim_industry:w</title>
<path fill="none" stroke="#29235c" stroke-width="3" d="M701.54,-287.39C817.1,-287.39 826.69,-184.68 936.05,-178.66"/>
<polygon fill="#29235c" stroke="#29235c" stroke-width="3" points="936.33,-182.16 946.23,-178.39 936.14,-175.16 936.33,-182.16"/>
<text text-anchor="middle" x="937.33" y="-149.59" font-family="Helvetica,sans-Serif" font-size="32.00" fill="#29235c">1</text>
<text text-anchor="middle" x="707.76" y="-296.99" font-family="Helvetica,sans-Serif" font-size="32.00" fill="#29235c">*</text>
</g>
</g>
</svg>
