<?xml version="1.0" encoding="UTF-8" standalone="no"?>
<!DOCTYPE svg PUBLIC "-//W3C//DTD SVG 1.1//EN"
 "http://www.w3.org/Graphics/SVG/1.1/DTD/svg11.dtd">
<!-- Generated by graphviz version 2.47.0 (20210316.0004)
 -->
<!-- Title: dbml Pages: 1 -->
<svg width="1929pt" height="1922pt"
 viewBox="0.00 0.00 1929.15 1922.32" xmlns="http://www.w3.org/2000/svg" xmlns:xlink="http://www.w3.org/1999/xlink">
<g id="graph0" class="graph" transform="scale(1 1) rotate(0) translate(4 1918.32)">
<title>dbml</title>
<!-- dim_year -->
<g id="dim_year" class="node">
<title>dim_year</title>
<ellipse fill="none" stroke="black" stroke-width="0" cx="1588.1" cy="-1784.21" rx="199.31" ry="130.22"/>
<polygon fill="#1d71b8" stroke="transparent" points="1449.1,-1814.21 1449.1,-1874.21 1727.1,-1874.21 1727.1,-1814.21 1449.1,-1814.21"/>
<polygon fill="none" stroke="#29235c" points="1449.1,-1814.21 1449.1,-1874.21 1727.1,-1874.21 1727.1,-1814.21 1449.1,-1814.21"/>
<text text-anchor="start" x="1460.07" y="-1835.41" font-family="Helvetica,sans-Serif" font-weight="bold" font-size="32.00" fill="#ffffff"> &#160;&#160;&#160;&#160;&#160;&#160;dim_year &#160;&#160;&#160;&#160;&#160;&#160;</text>
<polygon fill="#e7e2dd" stroke="transparent" points="1449.1,-1754.21 1449.1,-1814.21 1727.1,-1814.21 1727.1,-1754.21 1449.1,-1754.21"/>
<polygon fill="none" stroke="#29235c" points="1449.1,-1754.21 1449.1,-1814.21 1727.1,-1814.21 1727.1,-1754.21 1449.1,-1754.21"/>
<text text-anchor="start" x="1460.1" y="-1775.41" font-family="Helvetica,sans-Serif" font-weight="bold" font-size="32.00" fill="#29235c">year_id</text>
<text text-anchor="start" x="1565.01" y="-1775.41" font-family="Helvetica,sans-Serif" font-size="32.00" fill="#29235c"> &#160;&#160;&#160;</text>
<text text-anchor="start" x="1682.32" y="-1775.41" font-family="Helvetica,sans-Serif" font-style="italic" font-size="32.00" fill="#29235c">int</text>
<polygon fill="#e7e2dd" stroke="transparent" points="1449.1,-1694.21 1449.1,-1754.21 1727.1,-1754.21 1727.1,-1694.21 1449.1,-1694.21"/>
<polygon fill="none" stroke="#29235c" points="1449.1,-1694.21 1449.1,-1754.21 1727.1,-1754.21 1727.1,-1694.21 1449.1,-1694.21"/>
<text text-anchor="start" x="1460.1" y="-1714.41" font-family="Helvetica,sans-Serif" font-size="32.00" fill="#29235c">year &#160;&#160;&#160;</text>
<text text-anchor="start" x="1643.23" y="-1715.41" font-family="Helvetica,sans-Serif" font-style="italic" font-size="32.00" fill="#29235c">int</text>
<text text-anchor="start" x="1677.01" y="-1715.41" font-family="Helvetica,sans-Serif" font-size="32.00" fill="#29235c"> </text>
<text text-anchor="start" x="1685.9" y="-1715.41" font-family="Helvetica,sans-Serif" font-weight="bold" font-size="32.00" fill="#29235c">(!)</text>
<polygon fill="none" stroke="#29235c" stroke-width="2" points="1448.1,-1693.21 1448.1,-1875.21 1728.1,-1875.21 1728.1,-1693.21 1448.1,-1693.21"/>
</g>
<!-- dim_municipality -->
<g id="dim_municipality" class="node">
<title>dim_municipality</title>
<ellipse fill="none" stroke="black" stroke-width="0" cx="1588.1" cy="-1506.21" rx="333.09" ry="130.22"/>
<polygon fill="#1d71b8" stroke="transparent" points="1355.1,-1536.21 1355.1,-1596.21 1822.1,-1596.21 1822.1,-1536.21 1355.1,-1536.21"/>
<polygon fill="none" stroke="#29235c" points="1355.1,-1536.21 1355.1,-1596.21 1822.1,-1596.21 1822.1,-1536.21 1355.1,-1536.21"/>
<text text-anchor="start" x="1408.13" y="-1557.41" font-family="Helvetica,sans-Serif" font-weight="bold" font-size="32.00" fill="#ffffff"> &#160;&#160;&#160;&#160;&#160;&#160;dim_municipality &#160;&#160;&#160;&#160;&#160;&#160;</text>
<polygon fill="#e7e2dd" stroke="transparent" points="1355.1,-1476.21 1355.1,-1536.21 1822.1,-1536.21 1822.1,-1476.21 1355.1,-1476.21"/>
<polygon fill="none" stroke="#29235c" points="1355.1,-1476.21 1355.1,-1536.21 1822.1,-1536.21 1822.1,-1476.21 1355.1,-1476.21"/>
<text text-anchor="start" x="1366.1" y="-1497.41" font-family="Helvetica,sans-Serif" font-weight="bold" font-size="32.00" fill="#29235c">municipality_id</text>
<text text-anchor="start" x="1575.88" y="-1497.41" font-family="Helvetica,sans-Serif" font-size="32.00" fill="#29235c"> &#160;&#160;&#160;</text>
<text text-anchor="start" x="1647.54" y="-1497.41" font-family="Helvetica,sans-Serif" font-style="italic" font-size="32.00" fill="#29235c">varchar(32)</text>
<polygon fill="#e7e2dd" stroke="transparent" points="1355.1,-1416.21 1355.1,-1476.21 1822.1,-1476.21 1822.1,-1416.21 1355.1,-1416.21"/>
<polygon fill="none" stroke="#29235c" points="1355.1,-1416.21 1355.1,-1476.21 1822.1,-1476.21 1822.1,-1416.21 1355.1,-1416.21"/>
<text text-anchor="start" x="1365.86" y="-1436.41" font-family="Helvetica,sans-Serif" font-size="32.00" fill="#29235c">municipality_name &#160;&#160;&#160;</text>
<text text-anchor="start" x="1665.72" y="-1437.41" font-family="Helvetica,sans-Serif" font-style="italic" font-size="32.00" fill="#29235c">varchar</text>
<text text-anchor="start" x="1772.39" y="-1437.41" font-family="Helvetica,sans-Serif" font-size="32.00" fill="#29235c"> </text>
<text text-anchor="start" x="1781.28" y="-1437.41" font-family="Helvetica,sans-Serif" font-weight="bold" font-size="32.00" fill="#29235c">(!)</text>
<polygon fill="none" stroke="#29235c" stroke-width="2" points="1353.6,-1415.21 1353.6,-1597.21 1822.6,-1597.21 1822.6,-1415.21 1353.6,-1415.21"/>
</g>
<!-- dim_industry -->
<g id="dim_industry" class="node">
<title>dim_industry</title>
<ellipse fill="none" stroke="black" stroke-width="0" cx="1588.1" cy="-1228.21" rx="294.31" ry="130.22"/>
<polygon fill="#1d71b8" stroke="transparent" points="1382.1,-1258.21 1382.1,-1318.21 1794.1,-1318.21 1794.1,-1258.21 1382.1,-1258.21"/>
<polygon fill="none" stroke="#29235c" points="1382.1,-1258.21 1382.1,-1318.21 1794.1,-1318.21 1794.1,-1258.21 1382.1,-1258.21"/>
<text text-anchor="start" x="1435.18" y="-1279.41" font-family="Helvetica,sans-Serif" font-weight="bold" font-size="32.00" fill="#ffffff"> &#160;&#160;&#160;&#160;&#160;&#160;dim_industry &#160;&#160;&#160;&#160;&#160;&#160;</text>
<polygon fill="#e7e2dd" stroke="transparent" points="1382.1,-1198.21 1382.1,-1258.21 1794.1,-1258.21 1794.1,-1198.21 1382.1,-1198.21"/>
<polygon fill="none" stroke="#29235c" points="1382.1,-1198.21 1382.1,-1258.21 1794.1,-1258.21 1794.1,-1198.21 1382.1,-1198.21"/>
<text text-anchor="start" x="1393.1" y="-1219.41" font-family="Helvetica,sans-Serif" font-weight="bold" font-size="32.00" fill="#29235c">industry_id</text>
<text text-anchor="start" x="1547.79" y="-1219.41" font-family="Helvetica,sans-Serif" font-size="32.00" fill="#29235c"> &#160;&#160;&#160;</text>
<text text-anchor="start" x="1619.54" y="-1219.41" font-family="Helvetica,sans-Serif" font-style="italic" font-size="32.00" fill="#29235c">varchar(32)</text>
<polygon fill="#e7e2dd" stroke="transparent" points="1382.1,-1138.21 1382.1,-1198.21 1794.1,-1198.21 1794.1,-1138.21 1382.1,-1138.21"/>
<polygon fill="none" stroke="#29235c" points="1382.1,-1138.21 1382.1,-1198.21 1794.1,-1198.21 1794.1,-1138.21 1382.1,-1138.21"/>
<text text-anchor="start" x="1392.9" y="-1158.41" font-family="Helvetica,sans-Serif" font-size="32.00" fill="#29235c">industry_name &#160;&#160;&#160;</text>
<text text-anchor="start" x="1637.72" y="-1159.41" font-family="Helvetica,sans-Serif" font-style="italic" font-size="32.00" fill="#29235c">varchar</text>
<text text-anchor="start" x="1744.39" y="-1159.41" font-family="Helvetica,sans-Serif" font-size="32.00" fill="#29235c"> </text>
<text text-anchor="start" x="1753.28" y="-1159.41" font-family="Helvetica,sans-Serif" font-weight="bold" font-size="32.00" fill="#29235c">(!)</text>
<polygon fill="none" stroke="#29235c" stroke-width="2" points="1381.1,-1137.21 1381.1,-1319.21 1795.1,-1319.21 1795.1,-1137.21 1381.1,-1137.21"/>
</g>
<!-- fact_bankruptcy_risk_hotspots -->
<g id="fact_bankruptcy_risk_hotspots" class="node">
<title>fact_bankruptcy_risk_hotspots</title>
<ellipse fill="none" stroke="black" stroke-width="0" cx="609.53" cy="-936.21" rx="609.55" ry="936.42"/>
<polygon fill="#1d71b8" stroke="transparent" points="180.53,-1536.21 180.53,-1596.21 1038.53,-1596.21 1038.53,-1536.21 180.53,-1536.21"/>
<polygon fill="none" stroke="#29235c" points="180.53,-1536.21 180.53,-1596.21 1038.53,-1596.21 1038.53,-1536.21 180.53,-1536.21"/>
<text text-anchor="start" x="331.21" y="-1557.41" font-family="Helvetica,sans-Serif" font-weight="bold" font-size="32.00" fill="#ffffff"> &#160;&#160;&#160;&#160;&#160;&#160;fact_bankruptcy_risk_hotspots &#160;&#160;&#160;&#160;&#160;&#160;</text>
<polygon fill="#e7e2dd" stroke="transparent" points="180.53,-1476.21 180.53,-1536.21 1038.53,-1536.21 1038.53,-1476.21 180.53,-1476.21"/>
<polygon fill="none" stroke="#29235c" points="180.53,-1476.21 180.53,-1536.21 1038.53,-1536.21 1038.53,-1476.21 180.53,-1476.21"/>
<text text-anchor="start" x="191.53" y="-1496.41" font-family="Helvetica,sans-Serif" font-size="32.00" fill="#29235c">year_id &#160;&#160;&#160;</text>
<text text-anchor="start" x="954.65" y="-1497.41" font-family="Helvetica,sans-Serif" font-style="italic" font-size="32.00" fill="#29235c">int</text>
<text text-anchor="start" x="988.43" y="-1497.41" font-family="Helvetica,sans-Serif" font-size="32.00" fill="#29235c"> </text>
<text text-anchor="start" x="997.33" y="-1497.41" font-family="Helvetica,sans-Serif" font-weight="bold" font-size="32.00" fill="#29235c">(!)</text>
<polygon fill="#e7e2dd" stroke="transparent" points="180.53,-1416.21 180.53,-1476.21 1038.53,-1476.21 1038.53,-1416.21 180.53,-1416.21"/>
<polygon fill="none" stroke="#29235c" points="180.53,-1416.21 180.53,-1476.21 1038.53,-1476.21 1038.53,-1416.21 180.53,-1416.21"/>
<text text-anchor="start" x="191.53" y="-1436.41" font-family="Helvetica,sans-Serif" font-size="32.00" fill="#29235c">municipality_id &#160;&#160;&#160;</text>
<text text-anchor="start" x="824.88" y="-1437.41" font-family="Helvetica,sans-Serif" font-style="italic" font-size="32.00" fill="#29235c">varchar(32)</text>
<text text-anchor="start" x="988.43" y="-1437.41" font-family="Helvetica,sans-Serif" font-size="32.00" fill="#29235c"> </text>
<text text-anchor="start" x="997.33" y="-1437.41" font-family="Helvetica,sans-Serif" font-weight="bold" font-size="32.00" fill="#29235c">(!)</text>
<polygon fill="#e7e2dd" stroke="transparent" points="180.53,-1356.21 180.53,-1416.21 1038.53,-1416.21 1038.53,-1356.21 180.53,-1356.21"/>
<polygon fill="none" stroke="#29235c" points="180.53,-1356.21 180.53,-1416.21 1038.53,-1416.21 1038.53,-1356.21 180.53,-1356.21"/>
<text text-anchor="start" x="191.53" y="-1376.41" font-family="Helvetica,sans-Serif" font-size="32.00" fill="#29235c">hotspot_industry_id &#160;&#160;&#160;</text>
<text text-anchor="start" x="863.97" y="-1377.41" font-family="Helvetica,sans-Serif" font-style="italic" font-size="32.00" fill="#29235c">varchar(32)</text>
<polygon fill="#e7e2dd" stroke="transparent" points="180.53,-1296.21 180.53,-1356.21 1038.53,-1356.21 1038.53,-1296.21 180.53,-1296.21"/>
<polygon fill="none" stroke="#29235c" points="180.53,-1296.21 180.53,-1356.21 1038.53,-1356.21 1038.53,-1296.21 180.53,-1296.21"/>
<text text-anchor="start" x="191.53" y="-1316.41" font-family="Helvetica,sans-Serif" font-size="32.00" fill="#29235c">population &#160;&#160;&#160;</text>
<text text-anchor="start" x="993.74" y="-1317.41" font-family="Helvetica,sans-Serif" font-style="italic" font-size="32.00" fill="#29235c">int</text>
<polygon fill="#e7e2dd" stroke="transparent" points="180.53,-1236.21 180.53,-1296.21 1038.53,-1296.21 1038.53,-1236.21 180.53,-1236.21"/>
<polygon fill="none" stroke="#29235c" points="180.53,-1236.21 180.53,-1296.21 1038.53,-1296.21 1038.53,-1236.21 180.53,-1236.21"/>
<text text-anchor="start" x="191.53" y="-1256.41" font-family="Helvetica,sans-Serif" font-size="32.00" fill="#29235c">deaths &#160;&#160;&#160;</text>
<text text-anchor="start" x="993.74" y="-1257.41" font-family="Helvetica,sans-Serif" font-style="italic" font-size="32.00" fill="#29235c">int</text>
<polygon fill="#e7e2dd" stroke="transparent" points="180.53,-1176.21 180.53,-1236.21 1038.53,-1236.21 1038.53,-1176.21 180.53,-1176.21"/>
<polygon fill="none" stroke="#29235c" points="180.53,-1176.21 180.53,-1236.21 1038.53,-1236.21 1038.53,-1176.21 180.53,-1176.21"/>
<text text-anchor="start" x="191.53" y="-1196.41" font-family="Helvetica,sans-Serif" font-size="32.00" fill="#29235c">establishments_count &#160;&#160;&#160;</text>
<text text-anchor="start" x="993.74" y="-1197.41" font-family="Helvetica,sans-Serif" font-style="italic" font-size="32.00" fill="#29235c">int</text>
<polygon fill="#e7e2dd" stroke="transparent" points="180.53,-1116.21 180.53,-1176.21 1038.53,-1176.21 1038.53,-1116.21 180.53,-1116.21"/>
<polygon fill="none" stroke="#29235c" points="180.53,-1116.21 180.53,-1176.21 1038.53,-1176.21 1038.53,-1116.21 180.53,-1116.21"/>
<text text-anchor="start" x="191.53" y="-1136.41" font-family="Helvetica,sans-Serif" font-size="32.00" fill="#29235c">personnel_staff_years &#160;&#160;&#160;</text>
<text text-anchor="start" x="993.74" y="-1137.41" font-family="Helvetica,sans-Serif" font-style="italic" font-size="32.00" fill="#29235c">int</text>
<polygon fill="#e7e2dd" stroke="transparent" points="180.53,-1056.21 180.53,-1116.21 1038.53,-1116.21 1038.53,-1056.21 180.53,-1056.21"/>
<polygon fill="none" stroke="#29235c" points="180.53,-1056.21 180.53,-1116.21 1038.53,-1116.21 1038.53,-1056.21 180.53,-1056.21"/>
<text text-anchor="start" x="191.53" y="-1076.41" font-family="Helvetica,sans-Serif" font-size="32.00" fill="#29235c">total_bankruptcies_enterprises &#160;&#160;&#160;</text>
<text text-anchor="start" x="993.74" y="-1077.41" font-family="Helvetica,sans-Serif" font-style="italic" font-size="32.00" fill="#29235c">int</text>
<polygon fill="#e7e2dd" stroke="transparent" points="180.53,-996.21 180.53,-1056.21 1038.53,-1056.21 1038.53,-996.21 180.53,-996.21"/>
<polygon fill="none" stroke="#29235c" points="180.53,-996.21 180.53,-1056.21 1038.53,-1056.21 1038.53,-996.21 180.53,-996.21"/>
<text text-anchor="start" x="191.53" y="-1016.41" font-family="Helvetica,sans-Serif" font-size="32.00" fill="#29235c">total_bankruptcies_employees &#160;&#160;&#160;</text>
<text text-anchor="start" x="993.74" y="-1017.41" font-family="Helvetica,sans-Serif" font-style="italic" font-size="32.00" fill="#29235c">int</text>
<polygon fill="#e7e2dd" stroke="transparent" points="180.53,-936.21 180.53,-996.21 1038.53,-996.21 1038.53,-936.21 180.53,-936.21"/>
<polygon fill="none" stroke="#29235c" points="180.53,-936.21 180.53,-996.21 1038.53,-996.21 1038.53,-936.21 180.53,-936.21"/>
<text text-anchor="start" x="191.53" y="-956.41" font-family="Helvetica,sans-Serif" font-size="32.00" fill="#29235c">bankruptcies_per_1000_establishments &#160;&#160;&#160;</text>
<text text-anchor="start" x="833.74" y="-957.41" font-family="Helvetica,sans-Serif" font-style="italic" font-size="32.00" fill="#29235c">decimal(10,2)</text>
<polygon fill="#e7e2dd" stroke="transparent" points="180.53,-876.21 180.53,-936.21 1038.53,-936.21 1038.53,-876.21 180.53,-876.21"/>
<polygon fill="none" stroke="#29235c" points="180.53,-876.21 180.53,-936.21 1038.53,-936.21 1038.53,-876.21 180.53,-876.21"/>
<text text-anchor="start" x="191.13" y="-896.41" font-family="Helvetica,sans-Serif" font-size="32.00" fill="#29235c">bankrupt_employees_per_1000_personnel &#160;&#160;&#160;</text>
<text text-anchor="start" x="834.13" y="-897.41" font-family="Helvetica,sans-Serif" font-style="italic" font-size="32.00" fill="#29235c">decimal(10,2)</text>
<polygon fill="#e7e2dd" stroke="transparent" points="180.53,-816.21 180.53,-876.21 1038.53,-876.21 1038.53,-816.21 180.53,-816.21"/>
<polygon fill="none" stroke="#29235c" points="180.53,-816.21 180.53,-876.21 1038.53,-876.21 1038.53,-816.21 180.53,-816.21"/>
<text text-anchor="start" x="191.53" y="-836.41" font-family="Helvetica,sans-Serif" font-size="32.00" fill="#29235c">bankruptcies_per_10000_population &#160;&#160;&#160;</text>
<text text-anchor="start" x="833.74" y="-837.41" font-family="Helvetica,sans-Serif" font-style="italic" font-size="32.00" fill="#29235c">decimal(10,2)</text>
<polygon fill="#e7e2dd" stroke="transparent" points="180.53,-756.21 180.53,-816.21 1038.53,-816.21 1038.53,-756.21 180.53,-756.21"/>
<polygon fill="none" stroke="#29235c" points="180.53,-756.21 180.53,-816.21 1038.53,-816.21 1038.53,-756.21 180.53,-756.21"/>
<text text-anchor="start" x="191.53" y="-776.41" font-family="Helvetica,sans-Serif" font-size="32.00" fill="#29235c">personnel_per_establishment &#160;&#160;&#160;</text>
<text text-anchor="start" x="833.74" y="-777.41" font-family="Helvetica,sans-Serif" font-style="italic" font-size="32.00" fill="#29235c">decimal(10,2)</text>
<polygon fill="#e7e2dd" stroke="transparent" points="180.53,-696.21 180.53,-756.21 1038.53,-756.21 1038.53,-696.21 180.53,-696.21"/>
<polygon fill="none" stroke="#29235c" points="180.53,-696.21 180.53,-756.21 1038.53,-756.21 1038.53,-696.21 180.53,-696.21"/>
<text text-anchor="start" x="191.53" y="-716.41" font-family="Helvetica,sans-Serif" font-size="32.00" fill="#29235c">yoy_bankruptcies_pct &#160;&#160;&#160;</text>
<text text-anchor="start" x="833.74" y="-717.41" font-family="Helvetica,sans-Serif" font-style="italic" font-size="32.00" fill="#29235c">decimal(10,2)</text>
<polygon fill="#e7e2dd" stroke="transparent" points="180.53,-636.21 180.53,-696.21 1038.53,-696.21 1038.53,-636.21 180.53,-636.21"/>
<polygon fill="none" stroke="#29235c" points="180.53,-636.21 180.53,-696.21 1038.53,-696.21 1038.53,-636.21 180.53,-636.21"/>
<text text-anchor="start" x="191.53" y="-656.41" font-family="Helvetica,sans-Serif" font-size="32.00" fill="#29235c">yoy_bankruptcy_rate_pct &#160;&#160;&#160;</text>
<text text-anchor="start" x="833.74" y="-657.41" font-family="Helvetica,sans-Serif" font-style="italic" font-size="32.00" fill="#29235c">decimal(10,2)</text>
<polygon fill="#e7e2dd" stroke="transparent" points="180.53,-576.21 180.53,-636.21 1038.53,-636.21 1038.53,-576.21 180.53,-576.21"/>
<polygon fill="none" stroke="#29235c" points="180.53,-576.21 180.53,-636.21 1038.53,-636.21 1038.53,-576.21 180.53,-576.21"/>
<text text-anchor="start" x="191.53" y="-596.41" font-family="Helvetica,sans-Serif" font-size="32.00" fill="#29235c">rolling_3y_avg_bankruptcy_rate &#160;&#160;&#160;</text>
<text text-anchor="start" x="833.74" y="-597.41" font-family="Helvetica,sans-Serif" font-style="italic" font-size="32.00" fill="#29235c">decimal(10,2)</text>
<polygon fill="#e7e2dd" stroke="transparent" points="180.53,-516.21 180.53,-576.21 1038.53,-576.21 1038.53,-516.21 180.53,-516.21"/>
<polygon fill="none" stroke="#29235c" points="180.53,-516.21 180.53,-576.21 1038.53,-576.21 1038.53,-516.21 180.53,-516.21"/>
<text text-anchor="start" x="191.53" y="-536.41" font-family="Helvetica,sans-Serif" font-size="32.00" fill="#29235c">hotspot_industry_bankruptcies_enterprises &#160;&#160;&#160;</text>
<text text-anchor="start" x="993.74" y="-537.41" font-family="Helvetica,sans-Serif" font-style="italic" font-size="32.00" fill="#29235c">int</text>
<polygon fill="#e7e2dd" stroke="transparent" points="180.53,-456.21 180.53,-516.21 1038.53,-516.21 1038.53,-456.21 180.53,-456.21"/>
<polygon fill="none" stroke="#29235c" points="180.53,-456.21 180.53,-516.21 1038.53,-516.21 1038.53,-456.21 180.53,-456.21"/>
<text text-anchor="start" x="191.53" y="-476.41" font-family="Helvetica,sans-Serif" font-size="32.00" fill="#29235c">hotspot_industry_bankruptcies_employees &#160;&#160;&#160;</text>
<text text-anchor="start" x="993.74" y="-477.41" font-family="Helvetica,sans-Serif" font-style="italic" font-size="32.00" fill="#29235c">int</text>
<polygon fill="#e7e2dd" stroke="transparent" points="180.53,-396.21 180.53,-456.21 1038.53,-456.21 1038.53,-396.21 180.53,-396.21"/>
<polygon fill="none" stroke="#29235c" points="180.53,-396.21 180.53,-456.21 1038.53,-456.21 1038.53,-396.21 180.53,-396.21"/>
<text text-anchor="start" x="191.53" y="-416.41" font-family="Helvetica,sans-Serif" font-size="32.00" fill="#29235c">bankruptcy_rate_ntile &#160;&#160;&#160;</text>
<text text-anchor="start" x="993.74" y="-417.41" font-family="Helvetica,sans-Serif" font-style="italic" font-size="32.00" fill="#29235c">int</text>
<polygon fill="#e7e2dd" stroke="transparent" points="180.53,-336.21 180.53,-396.21 1038.53,-396.21 1038.53,-336.21 180.53,-336.21"/>
<polygon fill="none" stroke="#29235c" points="180.53,-336.21 180.53,-396.21 1038.53,-396.21 1038.53,-336.21 180.53,-336.21"/>
<text text-anchor="start" x="191.53" y="-356.41" font-family="Helvetica,sans-Serif" font-size="32.00" fill="#29235c">hotspot_risk_class &#160;&#160;&#160;</text>
<text text-anchor="start" x="920.85" y="-357.41" font-family="Helvetica,sans-Serif" font-style="italic" font-size="32.00" fill="#29235c">varchar</text>
<polygon fill="#e7e2dd" stroke="transparent" points="180.53,-276.21 180.53,-336.21 1038.53,-336.21 1038.53,-276.21 180.53,-276.21"/>
<polygon fill="none" stroke="#29235c" points="180.53,-276.21 180.53,-336.21 1038.53,-336.21 1038.53,-276.21 180.53,-276.21"/>
<text text-anchor="start" x="191.53" y="-296.41" font-family="Helvetica,sans-Serif" font-size="32.00" fill="#29235c">hotspot_absolute_risk_class &#160;&#160;&#160;</text>
<text text-anchor="start" x="920.85" y="-297.41" font-family="Helvetica,sans-Serif" font-style="italic" font-size="32.00" fill="#29235c">varchar</text>
<polygon fill="none" stroke="#29235c" stroke-width="2" points="179.53,-275.21 179.53,-1597.21 1039.53,-1597.21 1039.53,-275.21 179.53,-275.21"/>
</g>
<!-- fact_bankruptcy_risk_hotspots&#45;&gt;dim_year -->
<!-- fact_bankruptcy_risk_hotspots&#45;&gt;dim_year -->
<g id="edge2" class="edge">
<title>fact_bankruptcy_risk_hotspots:e&#45;&gt;dim_year:w</title>
<path fill="none" stroke="#29235c" stroke-width="3" d="M1039.53,-1506.21C1255.73,-1506.21 1229.36,-1775.59 1437.99,-1784.01"/>
<polygon fill="#29235c" stroke="#29235c" stroke-width="3" points="1438.03,-1787.51 1448.1,-1784.21 1438.17,-1780.51 1438.03,-1787.51"/>
<text text-anchor="middle" x="1439.2" y="-1793.81" font-family="Helvetica,sans-Serif" font-size="32.00" fill="#29235c">1</text>
<text text-anchor="middle" x="1045.75" y="-1515.81" font-family="Helvetica,sans-Serif" font-size="32.00" fill="#29235c">*</text>
</g>
<!-- fact_bankruptcy_risk_hotspots&#45;&gt;dim_municipality -->
<!-- fact_bankruptcy_risk_hotspots&#45;&gt;dim_municipality -->
<g id="edge4" class="edge">
<title>fact_bankruptcy_risk_hotspots:e&#45;&gt;dim_municipality:w</title>
<path fill="none" stroke="#29235c" stroke-width="3" d="M1039.53,-1446.21C1178.38,-1446.21 1210.24,-1503.32 1343.87,-1506.1"/>
<polygon fill="#29235c" stroke="#29235c" stroke-width="3" points="1344.06,-1509.61 1354.1,-1506.21 1344.14,-1502.61 1344.06,-1509.61"/>
<text text-anchor="middle" x="1345.2" y="-1515.81" font-family="Helvetica,sans-Serif" font-size="32.00" fill="#29235c">1</text>
<text text-anchor="middle" x="1045.75" y="-1455.81" font-family="Helvetica,sans-Serif" font-size="32.00" fill="#29235c">*</text>
</g>
<!-- fact_bankruptcy_risk_hotspots&#45;&gt;dim_industry -->
<!-- fact_bankruptcy_risk_hotspots&#45;&gt;dim_industry -->
<g id="edge6" class="edge">
<title>fact_bankruptcy_risk_hotspots:e&#45;&gt;dim_industry:w</title>
<path fill="none" stroke="#29235c" stroke-width="3" d="M1039.53,-1386.21C1203.36,-1386.21 1213.48,-1234.62 1371.01,-1228.41"/>
<polygon fill="#29235c" stroke="#29235c" stroke-width="3" points="1371.17,-1231.9 1381.1,-1228.21 1371.03,-1224.9 1371.17,-1231.9"/>
<text text-anchor="middle" x="1372.2" y="-1199.41" font-family="Helvetica,sans-Serif" font-size="32.00" fill="#29235c">1</text>
<text text-anchor="middle" x="1045.75" y="-1395.81" font-family="Helvetica,sans-Serif" font-size="32.00" fill="#29235c">*</text>
</g>
</g>
</svg>
