<?xml version="1.0" encoding="UTF-8" standalone="no"?>
<!DOCTYPE svg PUBLIC "-//W3C//DTD SVG 1.1//EN"
 "http://www.w3.org/Graphics/SVG/1.1/DTD/svg11.dtd">
<!-- Generated by graphviz version 2.47.0 (20210316.0004)
 -->
<!-- Title: dbml Pages: 1 -->
<svg width="1379pt" height="824pt"
 viewBox="0.00 0.00 1379.02 824.22" xmlns="http://www.w3.org/2000/svg" xmlns:xlink="http://www.w3.org/1999/xlink">
<g id="graph0" class="graph" transform="scale(1 1) rotate(0) translate(4 820.22)">
<title>dbml</title>
<!-- dim_year -->
<g id="dim_year" class="node">
<title>dim_year</title>
<ellipse fill="none" stroke="black" stroke-width="0" cx="1037.97" cy="-686.11" rx="199.31" ry="130.22"/>
<polygon fill="#1d71b8" stroke="transparent" points="898.97,-716.11 898.97,-776.11 1176.97,-776.11 1176.97,-716.11 898.97,-716.11"/>
<polygon fill="none" stroke="#29235c" points="898.97,-716.11 898.97,-776.11 1176.97,-776.11 1176.97,-716.11 898.97,-716.11"/>
<text text-anchor="start" x="909.94" y="-737.31" font-family="Helvetica,sans-Serif" font-weight="bold" font-size="32.00" fill="#ffffff"> &#160;&#160;&#160;&#160;&#160;&#160;dim_year &#160;&#160;&#160;&#160;&#160;&#160;</text>
<polygon fill="#e7e2dd" stroke="transparent" points="898.97,-656.11 898.97,-716.11 1176.97,-716.11 1176.97,-656.11 898.97,-656.11"/>
<polygon fill="none" stroke="#29235c" points="898.97,-656.11 898.97,-716.11 1176.97,-716.11 1176.97,-656.11 898.97,-656.11"/>
<text text-anchor="start" x="909.97" y="-677.31" font-family="Helvetica,sans-Serif" font-weight="bold" font-size="32.00" fill="#29235c">year_id</text>
<text text-anchor="start" x="1014.88" y="-677.31" font-family="Helvetica,sans-Serif" font-size="32.00" fill="#29235c"> &#160;&#160;&#160;</text>
<text text-anchor="start" x="1132.19" y="-677.31" font-family="Helvetica,sans-Serif" font-style="italic" font-size="32.00" fill="#29235c">int</text>
<polygon fill="#e7e2dd" stroke="transparent" points="898.97,-596.11 898.97,-656.11 1176.97,-656.11 1176.97,-596.11 898.97,-596.11"/>
<polygon fill="none" stroke="#29235c" points="898.97,-596.11 898.97,-656.11 1176.97,-656.11 1176.97,-596.11 898.97,-596.11"/>
<text text-anchor="start" x="909.97" y="-616.31" font-family="Helvetica,sans-Serif" font-size="32.00" fill="#29235c">year &#160;&#160;&#160;</text>
<text text-anchor="start" x="1093.1" y="-617.31" font-family="Helvetica,sans-Serif" font-style="italic" font-size="32.00" fill="#29235c">int</text>
<text text-anchor="start" x="1126.88" y="-617.31" font-family="Helvetica,sans-Serif" font-size="32.00" fill="#29235c"> </text>
<text text-anchor="start" x="1135.77" y="-617.31" font-family="Helvetica,sans-Serif" font-weight="bold" font-size="32.00" fill="#29235c">(!)</text>
<polygon fill="none" stroke="#29235c" stroke-width="2" points="897.97,-595.11 897.97,-777.11 1177.97,-777.11 1177.97,-595.11 897.97,-595.11"/>
</g>
<!-- dim_municipality -->
<g id="dim_municipality" class="node">
<title>dim_municipality</title>
<ellipse fill="none" stroke="black" stroke-width="0" cx="1037.97" cy="-408.11" rx="333.09" ry="130.22"/>
<polygon fill="#1d71b8" stroke="transparent" points="804.97,-438.11 804.97,-498.11 1271.97,-498.11 1271.97,-438.11 804.97,-438.11"/>
<polygon fill="none" stroke="#29235c" points="804.97,-438.11 804.97,-498.11 1271.97,-498.11 1271.97,-438.11 804.97,-438.11"/>
<text text-anchor="start" x="858" y="-459.31" font-family="Helvetica,sans-Serif" font-weight="bold" font-size="32.00" fill="#ffffff"> &#160;&#160;&#160;&#160;&#160;&#160;dim_municipality &#160;&#160;&#160;&#160;&#160;&#160;</text>
<polygon fill="#e7e2dd" stroke="transparent" points="804.97,-378.11 804.97,-438.11 1271.97,-438.11 1271.97,-378.11 804.97,-378.11"/>
<polygon fill="none" stroke="#29235c" points="804.97,-378.11 804.97,-438.11 1271.97,-438.11 1271.97,-378.11 804.97,-378.11"/>
<text text-anchor="start" x="815.97" y="-399.31" font-family="Helvetica,sans-Serif" font-weight="bold" font-size="32.00" fill="#29235c">municipality_id</text>
<text text-anchor="start" x="1025.75" y="-399.31" font-family="Helvetica,sans-Serif" font-size="32.00" fill="#29235c"> &#160;&#160;&#160;</text>
<text text-anchor="start" x="1097.42" y="-399.31" font-family="Helvetica,sans-Serif" font-style="italic" font-size="32.00" fill="#29235c">varchar(32)</text>
<polygon fill="#e7e2dd" stroke="transparent" points="804.97,-318.11 804.97,-378.11 1271.97,-378.11 1271.97,-318.11 804.97,-318.11"/>
<polygon fill="none" stroke="#29235c" points="804.97,-318.11 804.97,-378.11 1271.97,-378.11 1271.97,-318.11 804.97,-318.11"/>
<text text-anchor="start" x="815.73" y="-338.31" font-family="Helvetica,sans-Serif" font-size="32.00" fill="#29235c">municipality_name &#160;&#160;&#160;</text>
<text text-anchor="start" x="1115.59" y="-339.31" font-family="Helvetica,sans-Serif" font-style="italic" font-size="32.00" fill="#29235c">varchar</text>
<text text-anchor="start" x="1222.26" y="-339.31" font-family="Helvetica,sans-Serif" font-size="32.00" fill="#29235c"> </text>
<text text-anchor="start" x="1231.15" y="-339.31" font-family="Helvetica,sans-Serif" font-weight="bold" font-size="32.00" fill="#29235c">(!)</text>
<polygon fill="none" stroke="#29235c" stroke-width="2" points="803.47,-317.11 803.47,-499.11 1272.47,-499.11 1272.47,-317.11 803.47,-317.11"/>
</g>
<!-- dim_industry -->
<g id="dim_industry" class="node">
<title>dim_industry</title>
<ellipse fill="none" stroke="black" stroke-width="0" cx="1037.97" cy="-130.11" rx="294.31" ry="130.22"/>
<polygon fill="#1d71b8" stroke="transparent" points="831.97,-160.11 831.97,-220.11 1243.97,-220.11 1243.97,-160.11 831.97,-160.11"/>
<polygon fill="none" stroke="#29235c" points="831.97,-160.11 831.97,-220.11 1243.97,-220.11 1243.97,-160.11 831.97,-160.11"/>
<text text-anchor="start" x="885.05" y="-181.31" font-family="Helvetica,sans-Serif" font-weight="bold" font-size="32.00" fill="#ffffff"> &#160;&#160;&#160;&#160;&#160;&#160;dim_industry &#160;&#160;&#160;&#160;&#160;&#160;</text>
<polygon fill="#e7e2dd" stroke="transparent" points="831.97,-100.11 831.97,-160.11 1243.97,-160.11 1243.97,-100.11 831.97,-100.11"/>
<polygon fill="none" stroke="#29235c" points="831.97,-100.11 831.97,-160.11 1243.97,-160.11 1243.97,-100.11 831.97,-100.11"/>
<text text-anchor="start" x="842.97" y="-121.31" font-family="Helvetica,sans-Serif" font-weight="bold" font-size="32.00" fill="#29235c">industry_id</text>
<text text-anchor="start" x="997.66" y="-121.31" font-family="Helvetica,sans-Serif" font-size="32.00" fill="#29235c"> &#160;&#160;&#160;</text>
<text text-anchor="start" x="1069.42" y="-121.31" font-family="Helvetica,sans-Serif" font-style="italic" font-size="32.00" fill="#29235c">varchar(32)</text>
<polygon fill="#e7e2dd" stroke="transparent" points="831.97,-40.11 831.97,-100.11 1243.97,-100.11 1243.97,-40.11 831.97,-40.11"/>
<polygon fill="none" stroke="#29235c" points="831.97,-40.11 831.97,-100.11 1243.97,-100.11 1243.97,-40.11 831.97,-40.11"/>
<text text-anchor="start" x="842.77" y="-60.31" font-family="Helvetica,sans-Serif" font-size="32.00" fill="#29235c">industry_name &#160;&#160;&#160;</text>
<text text-anchor="start" x="1087.59" y="-61.31" font-family="Helvetica,sans-Serif" font-style="italic" font-size="32.00" fill="#29235c">varchar</text>
<text text-anchor="start" x="1194.26" y="-61.31" font-family="Helvetica,sans-Serif" font-size="32.00" fill="#29235c"> </text>
<text text-anchor="start" x="1203.15" y="-61.31" font-family="Helvetica,sans-Serif" font-weight="bold" font-size="32.00" fill="#29235c">(!)</text>
<polygon fill="none" stroke="#29235c" stroke-width="2" points="830.97,-39.11 830.97,-221.11 1244.97,-221.11 1244.97,-39.11 830.97,-39.11"/>
</g>
<!-- fact_bankruptcies -->
<g id="fact_bankruptcies" class="node">
<title>fact_bankruptcies</title>
<ellipse fill="none" stroke="black" stroke-width="0" cx="334.46" cy="-318.11" rx="334.42" ry="257.27"/>
<polygon fill="#1d71b8" stroke="transparent" points="100.46,-438.11 100.46,-498.11 569.46,-498.11 569.46,-438.11 100.46,-438.11"/>
<polygon fill="none" stroke="#29235c" points="100.46,-438.11 100.46,-498.11 569.46,-498.11 569.46,-438.11 100.46,-438.11"/>
<text text-anchor="start" x="147.34" y="-459.31" font-family="Helvetica,sans-Serif" font-weight="bold" font-size="32.00" fill="#ffffff"> &#160;&#160;&#160;&#160;&#160;&#160;fact_bankruptcies &#160;&#160;&#160;&#160;&#160;&#160;</text>
<polygon fill="#e7e2dd" stroke="transparent" points="100.46,-378.11 100.46,-438.11 569.46,-438.11 569.46,-378.11 100.46,-378.11"/>
<polygon fill="none" stroke="#29235c" points="100.46,-378.11 100.46,-438.11 569.46,-438.11 569.46,-378.11 100.46,-378.11"/>
<text text-anchor="start" x="111.46" y="-398.31" font-family="Helvetica,sans-Serif" font-size="32.00" fill="#29235c">year_id &#160;&#160;&#160;</text>
<text text-anchor="start" x="485.59" y="-399.31" font-family="Helvetica,sans-Serif" font-style="italic" font-size="32.00" fill="#29235c">int</text>
<text text-anchor="start" x="519.37" y="-399.31" font-family="Helvetica,sans-Serif" font-size="32.00" fill="#29235c"> </text>
<text text-anchor="start" x="528.26" y="-399.31" font-family="Helvetica,sans-Serif" font-weight="bold" font-size="32.00" fill="#29235c">(!)</text>
<polygon fill="#e7e2dd" stroke="transparent" points="100.46,-318.11 100.46,-378.11 569.46,-378.11 569.46,-318.11 100.46,-318.11"/>
<polygon fill="none" stroke="#29235c" points="100.46,-318.11 100.46,-378.11 569.46,-378.11 569.46,-318.11 100.46,-318.11"/>
<text text-anchor="start" x="111.28" y="-338.31" font-family="Helvetica,sans-Serif" font-size="32.00" fill="#29235c">municipality_id &#160;&#160;&#160;</text>
<text text-anchor="start" x="356.14" y="-339.31" font-family="Helvetica,sans-Serif" font-style="italic" font-size="32.00" fill="#29235c">varchar(32)</text>
<text text-anchor="start" x="519.69" y="-339.31" font-family="Helvetica,sans-Serif" font-size="32.00" fill="#29235c"> </text>
<text text-anchor="start" x="528.59" y="-339.31" font-family="Helvetica,sans-Serif" font-weight="bold" font-size="32.00" fill="#29235c">(!)</text>
<polygon fill="#e7e2dd" stroke="transparent" points="100.46,-258.11 100.46,-318.11 569.46,-318.11 569.46,-258.11 100.46,-258.11"/>
<polygon fill="none" stroke="#29235c" points="100.46,-258.11 100.46,-318.11 569.46,-318.11 569.46,-258.11 100.46,-258.11"/>
<text text-anchor="start" x="111.46" y="-278.31" font-family="Helvetica,sans-Serif" font-size="32.00" fill="#29235c">industry_id &#160;&#160;&#160;</text>
<text text-anchor="start" x="355.82" y="-279.31" font-family="Helvetica,sans-Serif" font-style="italic" font-size="32.00" fill="#29235c">varchar(32)</text>
<text text-anchor="start" x="519.37" y="-279.31" font-family="Helvetica,sans-Serif" font-size="32.00" fill="#29235c"> </text>
<text text-anchor="start" x="528.26" y="-279.31" font-family="Helvetica,sans-Serif" font-weight="bold" font-size="32.00" fill="#29235c">(!)</text>
<polygon fill="#e7e2dd" stroke="transparent" points="100.46,-198.11 100.46,-258.11 569.46,-258.11 569.46,-198.11 100.46,-198.11"/>
<polygon fill="none" stroke="#29235c" points="100.46,-198.11 100.46,-258.11 569.46,-258.11 569.46,-198.11 100.46,-198.11"/>
<text text-anchor="start" x="111.46" y="-218.31" font-family="Helvetica,sans-Serif" font-size="32.00" fill="#29235c">bankruptcies_enterprises &#160;&#160;&#160;</text>
<text text-anchor="start" x="524.68" y="-219.31" font-family="Helvetica,sans-Serif" font-style="italic" font-size="32.00" fill="#29235c">int</text>
<polygon fill="#e7e2dd" stroke="transparent" points="100.46,-138.11 100.46,-198.11 569.46,-198.11 569.46,-138.11 100.46,-138.11"/>
<polygon fill="none" stroke="#29235c" points="100.46,-138.11 100.46,-198.11 569.46,-198.11 569.46,-138.11 100.46,-138.11"/>
<text text-anchor="start" x="111.46" y="-158.31" font-family="Helvetica,sans-Serif" font-size="32.00" fill="#29235c">bankruptcies_employees &#160;&#160;&#160;</text>
<text text-anchor="start" x="524.68" y="-159.31" font-family="Helvetica,sans-Serif" font-style="italic" font-size="32.00" fill="#29235c">int</text>
<polygon fill="none" stroke="#29235c" stroke-width="2" points="98.96,-137.11 98.96,-499.11 569.96,-499.11 569.96,-137.11 98.96,-137.11"/>
</g>
<!-- fact_bankruptcies&#45;&gt;dim_year -->
<!-- fact_bankruptcies&#45;&gt;dim_year -->
<g id="edge2" class="edge">
<title>fact_bankruptcies:e&#45;&gt;dim_year:w</title>
<path fill="none" stroke="#29235c" stroke-width="3" d="M570.46,-408.11C656.41,-408.11 639.91,-490.88 704.92,-547.11 782.24,-613.97 791.68,-681.47 887.76,-685.88"/>
<polygon fill="#29235c" stroke="#29235c" stroke-width="3" points="887.89,-689.38 897.97,-686.11 888.05,-682.38 887.89,-689.38"/>
<text text-anchor="middle" x="889.08" y="-695.71" font-family="Helvetica,sans-Serif" font-size="32.00" fill="#29235c">1</text>
<text text-anchor="middle" x="576.68" y="-417.71" font-family="Helvetica,sans-Serif" font-size="32.00" fill="#29235c">*</text>
</g>
<!-- fact_bankruptcies&#45;&gt;dim_municipality -->
<!-- fact_bankruptcies&#45;&gt;dim_municipality -->
<g id="edge4" class="edge">
<title>fact_bankruptcies:e&#45;&gt;dim_municipality:w</title>
<path fill="none" stroke="#29235c" stroke-width="3" d="M570.46,-348.11C674.16,-348.11 695.49,-404.3 793.88,-407.92"/>
<polygon fill="#29235c" stroke="#29235c" stroke-width="3" points="793.91,-411.43 803.97,-408.11 794.04,-404.43 793.91,-411.43"/>
<text text-anchor="middle" x="795.08" y="-417.71" font-family="Helvetica,sans-Serif" font-size="32.00" fill="#29235c">1</text>
<text text-anchor="middle" x="576.68" y="-357.71" font-family="Helvetica,sans-Serif" font-size="32.00" fill="#29235c">*</text>
</g>
<!-- fact_bankruptcies&#45;&gt;dim_industry -->
<!-- fact_bankruptcies&#45;&gt;dim_industry -->
<g id="edge6" class="edge">
<title>fact_bankruptcies:e&#45;&gt;dim_industry:w</title>
<path fill="none" stroke="#29235c" stroke-width="3" d="M570.46,-288.11C702.44,-288.11 695.99,-138.03 820.93,-130.41"/>
<polygon fill="#29235c" stroke="#29235c" stroke-width="3" points="821.08,-133.91 830.97,-130.11 820.87,-126.91 821.08,-133.91"/>
<text text-anchor="middle" x="822.08" y="-101.31" font-family="Helvetica,sans-Serif" font-size="32.00" fill="#29235c">1</text>
<text text-anchor="middle" x="576.68" y="-297.71" font-family="Helvetica,sans-Serif" font-size="32.00" fill="#29235c">*</text>
</g>
</g>
</svg>
