<?xml version="1.0" encoding="UTF-8" standalone="no"?>
<!DOCTYPE svg PUBLIC "-//W3C//DTD SVG 1.1//EN"
 "http://www.w3.org/Graphics/SVG/1.1/DTD/svg11.dtd">
<!-- Generated by graphviz version 2.47.0 (20210316.0004)
 -->
<!-- Title: dbml Pages: 1 -->
<svg width="1651pt" height="1541pt"
 viewBox="0.00 0.00 1650.55 1541.01" xmlns="http://www.w3.org/2000/svg" xmlns:xlink="http://www.w3.org/1999/xlink">
<g id="graph0" class="graph" transform="scale(1 1) rotate(0) translate(4 1537.01)">
<title>dbml</title>
<!-- dim_year -->
<g id="dim_year" class="node">
<title>dim_year</title>
<ellipse fill="none" stroke="black" stroke-width="0" cx="1309.5" cy="-1325.5" rx="199.31" ry="130.22"/>
<polygon fill="#1d71b8" stroke="transparent" points="1170.5,-1355.5 1170.5,-1415.5 1448.5,-1415.5 1448.5,-1355.5 1170.5,-1355.5"/>
<polygon fill="none" stroke="#29235c" points="1170.5,-1355.5 1170.5,-1415.5 1448.5,-1415.5 1448.5,-1355.5 1170.5,-1355.5"/>
<text text-anchor="start" x="1181.47" y="-1376.7" font-family="Helvetica,sans-Serif" font-weight="bold" font-size="32.00" fill="#ffffff"> &#160;&#160;&#160;&#160;&#160;&#160;dim_year &#160;&#160;&#160;&#160;&#160;&#160;</text>
<polygon fill="#e7e2dd" stroke="transparent" points="1170.5,-1295.5 1170.5,-1355.5 1448.5,-1355.5 1448.5,-1295.5 1170.5,-1295.5"/>
<polygon fill="none" stroke="#29235c" points="1170.5,-1295.5 1170.5,-1355.5 1448.5,-1355.5 1448.5,-1295.5 1170.5,-1295.5"/>
<text text-anchor="start" x="1181.5" y="-1316.7" font-family="Helvetica,sans-Serif" font-weight="bold" font-size="32.00" fill="#29235c">year_id</text>
<text text-anchor="start" x="1286.41" y="-1316.7" font-family="Helvetica,sans-Serif" font-size="32.00" fill="#29235c"> &#160;&#160;&#160;</text>
<text text-anchor="start" x="1403.72" y="-1316.7" font-family="Helvetica,sans-Serif" font-style="italic" font-size="32.00" fill="#29235c">int</text>
<polygon fill="#e7e2dd" stroke="transparent" points="1170.5,-1235.5 1170.5,-1295.5 1448.5,-1295.5 1448.5,-1235.5 1170.5,-1235.5"/>
<polygon fill="none" stroke="#29235c" points="1170.5,-1235.5 1170.5,-1295.5 1448.5,-1295.5 1448.5,-1235.5 1170.5,-1235.5"/>
<text text-anchor="start" x="1181.5" y="-1255.7" font-family="Helvetica,sans-Serif" font-size="32.00" fill="#29235c">year &#160;&#160;&#160;</text>
<text text-anchor="start" x="1364.63" y="-1256.7" font-family="Helvetica,sans-Serif" font-style="italic" font-size="32.00" fill="#29235c">int</text>
<text text-anchor="start" x="1398.41" y="-1256.7" font-family="Helvetica,sans-Serif" font-size="32.00" fill="#29235c"> </text>
<text text-anchor="start" x="1407.3" y="-1256.7" font-family="Helvetica,sans-Serif" font-weight="bold" font-size="32.00" fill="#29235c">(!)</text>
<polygon fill="none" stroke="#29235c" stroke-width="2" points="1169.5,-1234.5 1169.5,-1416.5 1449.5,-1416.5 1449.5,-1234.5 1169.5,-1234.5"/>
</g>
<!-- dim_municipality -->
<g id="dim_municipality" class="node">
<title>dim_municipality</title>
<ellipse fill="none" stroke="black" stroke-width="0" cx="1309.5" cy="-1047.5" rx="333.09" ry="130.22"/>
<polygon fill="#1d71b8" stroke="transparent" points="1076.5,-1077.5 1076.5,-1137.5 1543.5,-1137.5 1543.5,-1077.5 1076.5,-1077.5"/>
<polygon fill="none" stroke="#29235c" points="1076.5,-1077.5 1076.5,-1137.5 1543.5,-1137.5 1543.5,-1077.5 1076.5,-1077.5"/>
<text text-anchor="start" x="1129.53" y="-1098.7" font-family="Helvetica,sans-Serif" font-weight="bold" font-size="32.00" fill="#ffffff"> &#160;&#160;&#160;&#160;&#160;&#160;dim_municipality &#160;&#160;&#160;&#160;&#160;&#160;</text>
<polygon fill="#e7e2dd" stroke="transparent" points="1076.5,-1017.5 1076.5,-1077.5 1543.5,-1077.5 1543.5,-1017.5 1076.5,-1017.5"/>
<polygon fill="none" stroke="#29235c" points="1076.5,-1017.5 1076.5,-1077.5 1543.5,-1077.5 1543.5,-1017.5 1076.5,-1017.5"/>
<text text-anchor="start" x="1087.5" y="-1038.7" font-family="Helvetica,sans-Serif" font-weight="bold" font-size="32.00" fill="#29235c">municipality_id</text>
<text text-anchor="start" x="1297.28" y="-1038.7" font-family="Helvetica,sans-Serif" font-size="32.00" fill="#29235c"> &#160;&#160;&#160;</text>
<text text-anchor="start" x="1368.94" y="-1038.7" font-family="Helvetica,sans-Serif" font-style="italic" font-size="32.00" fill="#29235c">varchar(32)</text>
<polygon fill="#e7e2dd" stroke="transparent" points="1076.5,-957.5 1076.5,-1017.5 1543.5,-1017.5 1543.5,-957.5 1076.5,-957.5"/>
<polygon fill="none" stroke="#29235c" points="1076.5,-957.5 1076.5,-1017.5 1543.5,-1017.5 1543.5,-957.5 1076.5,-957.5"/>
<text text-anchor="start" x="1087.26" y="-977.7" font-family="Helvetica,sans-Serif" font-size="32.00" fill="#29235c">municipality_name &#160;&#160;&#160;</text>
<text text-anchor="start" x="1387.12" y="-978.7" font-family="Helvetica,sans-Serif" font-style="italic" font-size="32.00" fill="#29235c">varchar</text>
<text text-anchor="start" x="1493.79" y="-978.7" font-family="Helvetica,sans-Serif" font-size="32.00" fill="#29235c"> </text>
<text text-anchor="start" x="1502.68" y="-978.7" font-family="Helvetica,sans-Serif" font-weight="bold" font-size="32.00" fill="#29235c">(!)</text>
<polygon fill="none" stroke="#29235c" stroke-width="2" points="1075,-956.5 1075,-1138.5 1544,-1138.5 1544,-956.5 1075,-956.5"/>
</g>
<!-- fact_economic_shock_exposure -->
<g id="fact_economic_shock_exposure" class="node">
<title>fact_economic_shock_exposure</title>
<g id="a_fact_economic_shock_exposure"><a xlink:title="fact_economic_shock_exposure&#10;&#10; &#160;Grain: one row per year per municipality.&#10; &#160;Five rolling 3&#45;year coefficient of variation (CV) measures capture&#10; &#160;volatility across bankruptcy, business, and demographic dimensions.&#10; &#160;shock_exposure_composite is a weighted sum (0.35 bankruptcy + 0.25 employee&#10; &#160;impact + 0.20 business churn + 0.10 personnel + 0.10 demographic).&#10; &#160;CV measures are NULL when fewer than 3 consecutive years of data exist.&#10; &#160;">
<ellipse fill="none" stroke="black" stroke-width="0" cx="470.23" cy="-766.5" rx="470.45" ry="766.51"/>
<polygon fill="#1d71b8" stroke="transparent" points="140.23,-1246.5 140.23,-1306.5 801.23,-1306.5 801.23,-1246.5 140.23,-1246.5"/>
<polygon fill="none" stroke="#29235c" points="140.23,-1246.5 140.23,-1306.5 801.23,-1306.5 801.23,-1246.5 140.23,-1246.5"/>
<text text-anchor="start" x="179.96" y="-1267.7" font-family="Helvetica,sans-Serif" font-weight="bold" font-size="32.00" fill="#ffffff"> &#160;&#160;&#160;&#160;&#160;&#160;fact_economic_shock_exposure &#160;&#160;&#160;&#160;&#160;&#160;</text>
<polygon fill="#e7e2dd" stroke="transparent" points="140.23,-1186.5 140.23,-1246.5 801.23,-1246.5 801.23,-1186.5 140.23,-1186.5"/>
<polygon fill="none" stroke="#29235c" points="140.23,-1186.5 140.23,-1246.5 801.23,-1246.5 801.23,-1186.5 140.23,-1186.5"/>
<text text-anchor="start" x="151.23" y="-1206.7" font-family="Helvetica,sans-Serif" font-size="32.00" fill="#29235c">year_id &#160;&#160;&#160;</text>
<text text-anchor="start" x="717.35" y="-1207.7" font-family="Helvetica,sans-Serif" font-style="italic" font-size="32.00" fill="#29235c">int</text>
<text text-anchor="start" x="751.13" y="-1207.7" font-family="Helvetica,sans-Serif" font-size="32.00" fill="#29235c"> </text>
<text text-anchor="start" x="760.03" y="-1207.7" font-family="Helvetica,sans-Serif" font-weight="bold" font-size="32.00" fill="#29235c">(!)</text>
<polygon fill="#e7e2dd" stroke="transparent" points="140.23,-1126.5 140.23,-1186.5 801.23,-1186.5 801.23,-1126.5 140.23,-1126.5"/>
<polygon fill="none" stroke="#29235c" points="140.23,-1126.5 140.23,-1186.5 801.23,-1186.5 801.23,-1126.5 140.23,-1126.5"/>
<text text-anchor="start" x="151.23" y="-1146.7" font-family="Helvetica,sans-Serif" font-size="32.00" fill="#29235c">municipality_id &#160;&#160;&#160;</text>
<text text-anchor="start" x="587.58" y="-1147.7" font-family="Helvetica,sans-Serif" font-style="italic" font-size="32.00" fill="#29235c">varchar(32)</text>
<text text-anchor="start" x="751.13" y="-1147.7" font-family="Helvetica,sans-Serif" font-size="32.00" fill="#29235c"> </text>
<text text-anchor="start" x="760.03" y="-1147.7" font-family="Helvetica,sans-Serif" font-weight="bold" font-size="32.00" fill="#29235c">(!)</text>
<polygon fill="#e7e2dd" stroke="transparent" points="140.23,-1066.5 140.23,-1126.5 801.23,-1126.5 801.23,-1066.5 140.23,-1066.5"/>
<polygon fill="none" stroke="#29235c" points="140.23,-1066.5 140.23,-1126.5 801.23,-1126.5 801.23,-1066.5 140.23,-1066.5"/>
<text text-anchor="start" x="151.23" y="-1086.7" font-family="Helvetica,sans-Serif" font-size="32.00" fill="#29235c">bankruptcy_rate_cv_3y &#160;&#160;&#160;</text>
<text text-anchor="start" x="596.44" y="-1087.7" font-family="Helvetica,sans-Serif" font-style="italic" font-size="32.00" fill="#29235c">decimal(10,4)</text>
<polygon fill="#e7e2dd" stroke="transparent" points="140.23,-1006.5 140.23,-1066.5 801.23,-1066.5 801.23,-1006.5 140.23,-1006.5"/>
<polygon fill="none" stroke="#29235c" points="140.23,-1006.5 140.23,-1066.5 801.23,-1066.5 801.23,-1006.5 140.23,-1006.5"/>
<text text-anchor="start" x="151.23" y="-1026.7" font-family="Helvetica,sans-Serif" font-size="32.00" fill="#29235c">employee_impact_cv_3y &#160;&#160;&#160;</text>
<text text-anchor="start" x="596.44" y="-1027.7" font-family="Helvetica,sans-Serif" font-style="italic" font-size="32.00" fill="#29235c">decimal(10,4)</text>
<polygon fill="#e7e2dd" stroke="transparent" points="140.23,-946.5 140.23,-1006.5 801.23,-1006.5 801.23,-946.5 140.23,-946.5"/>
<polygon fill="none" stroke="#29235c" points="140.23,-946.5 140.23,-1006.5 801.23,-1006.5 801.23,-946.5 140.23,-946.5"/>
<text text-anchor="start" x="151.23" y="-966.7" font-family="Helvetica,sans-Serif" font-size="32.00" fill="#29235c">business_churn_cv_3y &#160;&#160;&#160;</text>
<text text-anchor="start" x="596.44" y="-967.7" font-family="Helvetica,sans-Serif" font-style="italic" font-size="32.00" fill="#29235c">decimal(10,4)</text>
<polygon fill="#e7e2dd" stroke="transparent" points="140.23,-886.5 140.23,-946.5 801.23,-946.5 801.23,-886.5 140.23,-886.5"/>
<polygon fill="none" stroke="#29235c" points="140.23,-886.5 140.23,-946.5 801.23,-946.5 801.23,-886.5 140.23,-886.5"/>
<text text-anchor="start" x="151.23" y="-906.7" font-family="Helvetica,sans-Serif" font-size="32.00" fill="#29235c">personnel_cv_3y &#160;&#160;&#160;</text>
<text text-anchor="start" x="596.44" y="-907.7" font-family="Helvetica,sans-Serif" font-style="italic" font-size="32.00" fill="#29235c">decimal(10,4)</text>
<polygon fill="#e7e2dd" stroke="transparent" points="140.23,-826.5 140.23,-886.5 801.23,-886.5 801.23,-826.5 140.23,-826.5"/>
<polygon fill="none" stroke="#29235c" points="140.23,-826.5 140.23,-886.5 801.23,-886.5 801.23,-826.5 140.23,-826.5"/>
<text text-anchor="start" x="151.07" y="-846.7" font-family="Helvetica,sans-Serif" font-size="32.00" fill="#29235c">demographic_stability_cv_3y &#160;&#160;&#160;</text>
<text text-anchor="start" x="596.83" y="-847.7" font-family="Helvetica,sans-Serif" font-style="italic" font-size="32.00" fill="#29235c">decimal(10,4)</text>
<polygon fill="#e7e2dd" stroke="transparent" points="140.23,-766.5 140.23,-826.5 801.23,-826.5 801.23,-766.5 140.23,-766.5"/>
<polygon fill="none" stroke="#29235c" points="140.23,-766.5 140.23,-826.5 801.23,-826.5 801.23,-766.5 140.23,-766.5"/>
<text text-anchor="start" x="151.23" y="-786.7" font-family="Helvetica,sans-Serif" font-size="32.00" fill="#29235c">shock_exposure_composite &#160;&#160;&#160;</text>
<text text-anchor="start" x="596.44" y="-787.7" font-family="Helvetica,sans-Serif" font-style="italic" font-size="32.00" fill="#29235c">decimal(10,4)</text>
<polygon fill="#e7e2dd" stroke="transparent" points="140.23,-706.5 140.23,-766.5 801.23,-766.5 801.23,-706.5 140.23,-706.5"/>
<polygon fill="none" stroke="#29235c" points="140.23,-706.5 140.23,-766.5 801.23,-766.5 801.23,-706.5 140.23,-706.5"/>
<text text-anchor="start" x="151.23" y="-726.7" font-family="Helvetica,sans-Serif" font-size="32.00" fill="#29235c">shock_resilience_ntile &#160;&#160;&#160;</text>
<text text-anchor="start" x="756.44" y="-727.7" font-family="Helvetica,sans-Serif" font-style="italic" font-size="32.00" fill="#29235c">int</text>
<polygon fill="#e7e2dd" stroke="transparent" points="140.23,-646.5 140.23,-706.5 801.23,-706.5 801.23,-646.5 140.23,-646.5"/>
<polygon fill="none" stroke="#29235c" points="140.23,-646.5 140.23,-706.5 801.23,-706.5 801.23,-646.5 140.23,-646.5"/>
<text text-anchor="start" x="151.23" y="-666.7" font-family="Helvetica,sans-Serif" font-size="32.00" fill="#29235c">shock_resilience_class &#160;&#160;&#160;</text>
<text text-anchor="start" x="683.55" y="-667.7" font-family="Helvetica,sans-Serif" font-style="italic" font-size="32.00" fill="#29235c">varchar</text>
<polygon fill="#e7e2dd" stroke="transparent" points="140.23,-586.5 140.23,-646.5 801.23,-646.5 801.23,-586.5 140.23,-586.5"/>
<polygon fill="none" stroke="#29235c" points="140.23,-586.5 140.23,-646.5 801.23,-646.5 801.23,-586.5 140.23,-586.5"/>
<text text-anchor="start" x="151.23" y="-606.7" font-family="Helvetica,sans-Serif" font-size="32.00" fill="#29235c">bankruptcy_rate_per_1000 &#160;&#160;&#160;</text>
<text text-anchor="start" x="596.44" y="-607.7" font-family="Helvetica,sans-Serif" font-style="italic" font-size="32.00" fill="#29235c">decimal(10,2)</text>
<polygon fill="#e7e2dd" stroke="transparent" points="140.23,-526.5 140.23,-586.5 801.23,-586.5 801.23,-526.5 140.23,-526.5"/>
<polygon fill="none" stroke="#29235c" points="140.23,-526.5 140.23,-586.5 801.23,-586.5 801.23,-526.5 140.23,-526.5"/>
<text text-anchor="start" x="151.23" y="-546.7" font-family="Helvetica,sans-Serif" font-size="32.00" fill="#29235c">establishments_count &#160;&#160;&#160;</text>
<text text-anchor="start" x="756.44" y="-547.7" font-family="Helvetica,sans-Serif" font-style="italic" font-size="32.00" fill="#29235c">int</text>
<polygon fill="#e7e2dd" stroke="transparent" points="140.23,-466.5 140.23,-526.5 801.23,-526.5 801.23,-466.5 140.23,-466.5"/>
<polygon fill="none" stroke="#29235c" points="140.23,-466.5 140.23,-526.5 801.23,-526.5 801.23,-466.5 140.23,-466.5"/>
<text text-anchor="start" x="151.23" y="-486.7" font-family="Helvetica,sans-Serif" font-size="32.00" fill="#29235c">population &#160;&#160;&#160;</text>
<text text-anchor="start" x="756.44" y="-487.7" font-family="Helvetica,sans-Serif" font-style="italic" font-size="32.00" fill="#29235c">int</text>
<polygon fill="#e7e2dd" stroke="transparent" points="140.23,-406.5 140.23,-466.5 801.23,-466.5 801.23,-406.5 140.23,-406.5"/>
<polygon fill="none" stroke="#29235c" points="140.23,-406.5 140.23,-466.5 801.23,-466.5 801.23,-406.5 140.23,-406.5"/>
<text text-anchor="start" x="151.23" y="-426.7" font-family="Helvetica,sans-Serif" font-size="32.00" fill="#29235c">deaths &#160;&#160;&#160;</text>
<text text-anchor="start" x="756.44" y="-427.7" font-family="Helvetica,sans-Serif" font-style="italic" font-size="32.00" fill="#29235c">int</text>
<polygon fill="#e7e2dd" stroke="transparent" points="140.23,-346.5 140.23,-406.5 801.23,-406.5 801.23,-346.5 140.23,-346.5"/>
<polygon fill="none" stroke="#29235c" points="140.23,-346.5 140.23,-406.5 801.23,-406.5 801.23,-346.5 140.23,-346.5"/>
<text text-anchor="start" x="151.23" y="-366.7" font-family="Helvetica,sans-Serif" font-size="32.00" fill="#29235c">death_rate_per_1000 &#160;&#160;&#160;</text>
<text text-anchor="start" x="596.44" y="-367.7" font-family="Helvetica,sans-Serif" font-style="italic" font-size="32.00" fill="#29235c">decimal(10,2)</text>
<polygon fill="#e7e2dd" stroke="transparent" points="140.23,-286.5 140.23,-346.5 801.23,-346.5 801.23,-286.5 140.23,-286.5"/>
<polygon fill="none" stroke="#29235c" points="140.23,-286.5 140.23,-346.5 801.23,-346.5 801.23,-286.5 140.23,-286.5"/>
<text text-anchor="start" x="151.23" y="-306.7" font-family="Helvetica,sans-Serif" font-size="32.00" fill="#29235c">establishments_yoy_pct &#160;&#160;&#160;</text>
<text text-anchor="start" x="596.44" y="-307.7" font-family="Helvetica,sans-Serif" font-style="italic" font-size="32.00" fill="#29235c">decimal(10,4)</text>
<polygon fill="#e7e2dd" stroke="transparent" points="140.23,-226.5 140.23,-286.5 801.23,-286.5 801.23,-226.5 140.23,-226.5"/>
<polygon fill="none" stroke="#29235c" points="140.23,-226.5 140.23,-286.5 801.23,-286.5 801.23,-226.5 140.23,-226.5"/>
<text text-anchor="start" x="151.23" y="-246.7" font-family="Helvetica,sans-Serif" font-size="32.00" fill="#29235c">population_change_pct &#160;&#160;&#160;</text>
<text text-anchor="start" x="596.44" y="-247.7" font-family="Helvetica,sans-Serif" font-style="italic" font-size="32.00" fill="#29235c">decimal(10,4)</text>
<polygon fill="none" stroke="#29235c" stroke-width="2" points="138.73,-225.5 138.73,-1307.5 801.73,-1307.5 801.73,-225.5 138.73,-225.5"/>
</a>
</g>
</g>
<!-- fact_economic_shock_exposure&#45;&gt;dim_year -->
<!-- fact_economic_shock_exposure&#45;&gt;dim_year -->
<g id="edge2" class="edge">
<title>fact_economic_shock_exposure:e&#45;&gt;dim_year:w</title>
<path fill="none" stroke="#29235c" stroke-width="3" d="M802.23,-1216.5C969,-1216.5 998.07,-1321.08 1159.2,-1325.37"/>
<polygon fill="#29235c" stroke="#29235c" stroke-width="3" points="1159.45,-1328.87 1169.5,-1325.5 1159.55,-1321.87 1159.45,-1328.87"/>
<text text-anchor="middle" x="1160.6" y="-1335.1" font-family="Helvetica,sans-Serif" font-size="32.00" fill="#29235c">1</text>
<text text-anchor="middle" x="796" y="-1226.1" font-family="Helvetica,sans-Serif" font-size="32.00" fill="#29235c">*</text>
</g>
<!-- fact_economic_shock_exposure&#45;&gt;dim_municipality -->
<!-- fact_economic_shock_exposure&#45;&gt;dim_municipality -->
<g id="edge4" class="edge">
<title>fact_economic_shock_exposure:e&#45;&gt;dim_municipality:w</title>
<path fill="none" stroke="#29235c" stroke-width="3" d="M802.23,-1156.5C929.54,-1156.5 944.04,-1053.18 1065.4,-1047.73"/>
<polygon fill="#29235c" stroke="#29235c" stroke-width="3" points="1065.58,-1051.22 1075.5,-1047.5 1065.42,-1044.23 1065.58,-1051.22"/>
<text text-anchor="middle" x="1066.6" y="-1057.1" font-family="Helvetica,sans-Serif" font-size="32.00" fill="#29235c">1</text>
<text text-anchor="middle" x="796" y="-1166.1" font-family="Helvetica,sans-Serif" font-size="32.00" fill="#29235c">*</text>
</g>
</g>
</svg>
