<?xml version="1.0" encoding="UTF-8" standalone="no"?>
<!DOCTYPE svg PUBLIC "-//W3C//DTD SVG 1.1//EN"
 "http://www.w3.org/Graphics/SVG/1.1/DTD/svg11.dtd">
<!-- Generated by graphviz version 2.47.0 (20210316.0004)
 -->
<!-- Title: dbml Pages: 1 -->
<svg width="1328pt" height="1032pt"
 viewBox="0.00 0.00 1328.11 1031.89" xmlns="http://www.w3.org/2000/svg" xmlns:xlink="http://www.w3.org/1999/xlink">
<g id="graph0" class="graph" transform="scale(1 1) rotate(0) translate(4 1027.89)">
<title>dbml</title>
<!-- dim_year -->
<g id="dim_year" class="node">
<title>dim_year</title>
<ellipse fill="none" stroke="black" stroke-width="0" cx="1120.7" cy="-781.95" rx="199.31" ry="130.22"/>
<polygon fill="#1d71b8" stroke="transparent" points="981.7,-811.95 981.7,-871.95 1259.7,-871.95 1259.7,-811.95 981.7,-811.95"/>
<polygon fill="none" stroke="#29235c" points="981.7,-811.95 981.7,-871.95 1259.7,-871.95 1259.7,-811.95 981.7,-811.95"/>
<text text-anchor="start" x="992.67" y="-833.15" font-family="Helvetica,sans-Serif" font-weight="bold" font-size="32.00" fill="#ffffff"> &#160;&#160;&#160;&#160;&#160;&#160;dim_year &#160;&#160;&#160;&#160;&#160;&#160;</text>
<polygon fill="#e7e2dd" stroke="transparent" points="981.7,-751.95 981.7,-811.95 1259.7,-811.95 1259.7,-751.95 981.7,-751.95"/>
<polygon fill="none" stroke="#29235c" points="981.7,-751.95 981.7,-811.95 1259.7,-811.95 1259.7,-751.95 981.7,-751.95"/>
<text text-anchor="start" x="992.7" y="-773.15" font-family="Helvetica,sans-Serif" font-weight="bold" font-size="32.00" fill="#29235c">year_id</text>
<text text-anchor="start" x="1097.61" y="-773.15" font-family="Helvetica,sans-Serif" font-size="32.00" fill="#29235c"> &#160;&#160;&#160;</text>
<text text-anchor="start" x="1214.92" y="-773.15" font-family="Helvetica,sans-Serif" font-style="italic" font-size="32.00" fill="#29235c">int</text>
<polygon fill="#e7e2dd" stroke="transparent" points="981.7,-691.95 981.7,-751.95 1259.7,-751.95 1259.7,-691.95 981.7,-691.95"/>
<polygon fill="none" stroke="#29235c" points="981.7,-691.95 981.7,-751.95 1259.7,-751.95 1259.7,-691.95 981.7,-691.95"/>
<text text-anchor="start" x="992.7" y="-712.15" font-family="Helvetica,sans-Serif" font-size="32.00" fill="#29235c">year &#160;&#160;&#160;</text>
<text text-anchor="start" x="1175.83" y="-713.15" font-family="Helvetica,sans-Serif" font-style="italic" font-size="32.00" fill="#29235c">int</text>
<text text-anchor="start" x="1209.61" y="-713.15" font-family="Helvetica,sans-Serif" font-size="32.00" fill="#29235c"> </text>
<text text-anchor="start" x="1218.5" y="-713.15" font-family="Helvetica,sans-Serif" font-weight="bold" font-size="32.00" fill="#29235c">(!)</text>
<polygon fill="none" stroke="#29235c" stroke-width="2" points="980.7,-690.95 980.7,-872.95 1260.7,-872.95 1260.7,-690.95 980.7,-690.95"/>
</g>
<!-- fact_finland_economic_health -->
<g id="fact_finland_economic_health" class="node">
<title>fact_finland_economic_health</title>
<ellipse fill="none" stroke="black" stroke-width="0" cx="442.65" cy="-511.95" rx="442.8" ry="511.89"/>
<polygon fill="#1d71b8" stroke="transparent" points="131.65,-811.95 131.65,-871.95 753.65,-871.95 753.65,-811.95 131.65,-811.95"/>
<polygon fill="none" stroke="#29235c" points="131.65,-811.95 131.65,-871.95 753.65,-871.95 753.65,-811.95 131.65,-811.95"/>
<text text-anchor="start" x="168.78" y="-833.15" font-family="Helvetica,sans-Serif" font-weight="bold" font-size="32.00" fill="#ffffff"> &#160;&#160;&#160;&#160;&#160;&#160;fact_finland_economic_health &#160;&#160;&#160;&#160;&#160;&#160;</text>
<polygon fill="#e7e2dd" stroke="transparent" points="131.65,-751.95 131.65,-811.95 753.65,-811.95 753.65,-751.95 131.65,-751.95"/>
<polygon fill="none" stroke="#29235c" points="131.65,-751.95 131.65,-811.95 753.65,-811.95 753.65,-751.95 131.65,-751.95"/>
<text text-anchor="start" x="142.65" y="-772.15" font-family="Helvetica,sans-Serif" font-size="32.00" fill="#29235c">year_id &#160;&#160;&#160;</text>
<text text-anchor="start" x="669.78" y="-773.15" font-family="Helvetica,sans-Serif" font-style="italic" font-size="32.00" fill="#29235c">int</text>
<text text-anchor="start" x="703.56" y="-773.15" font-family="Helvetica,sans-Serif" font-size="32.00" fill="#29235c"> </text>
<text text-anchor="start" x="712.45" y="-773.15" font-family="Helvetica,sans-Serif" font-weight="bold" font-size="32.00" fill="#29235c">(!)</text>
<polygon fill="#e7e2dd" stroke="transparent" points="131.65,-691.95 131.65,-751.95 753.65,-751.95 753.65,-691.95 131.65,-691.95"/>
<polygon fill="none" stroke="#29235c" points="131.65,-691.95 131.65,-751.95 753.65,-751.95 753.65,-691.95 131.65,-691.95"/>
<text text-anchor="start" x="142.65" y="-712.15" font-family="Helvetica,sans-Serif" font-size="32.00" fill="#29235c">total_bankruptcies_enterprises &#160;&#160;&#160;</text>
<text text-anchor="start" x="708.87" y="-713.15" font-family="Helvetica,sans-Serif" font-style="italic" font-size="32.00" fill="#29235c">int</text>
<polygon fill="#e7e2dd" stroke="transparent" points="131.65,-631.95 131.65,-691.95 753.65,-691.95 753.65,-631.95 131.65,-631.95"/>
<polygon fill="none" stroke="#29235c" points="131.65,-631.95 131.65,-691.95 753.65,-691.95 753.65,-631.95 131.65,-631.95"/>
<text text-anchor="start" x="142.65" y="-652.15" font-family="Helvetica,sans-Serif" font-size="32.00" fill="#29235c">total_bankruptcies_employees &#160;&#160;&#160;</text>
<text text-anchor="start" x="708.87" y="-653.15" font-family="Helvetica,sans-Serif" font-style="italic" font-size="32.00" fill="#29235c">int</text>
<polygon fill="#e7e2dd" stroke="transparent" points="131.65,-571.95 131.65,-631.95 753.65,-631.95 753.65,-571.95 131.65,-571.95"/>
<polygon fill="none" stroke="#29235c" points="131.65,-571.95 131.65,-631.95 753.65,-631.95 753.65,-571.95 131.65,-571.95"/>
<text text-anchor="start" x="142.65" y="-592.15" font-family="Helvetica,sans-Serif" font-size="32.00" fill="#29235c">total_establishments &#160;&#160;&#160;</text>
<text text-anchor="start" x="708.87" y="-593.15" font-family="Helvetica,sans-Serif" font-style="italic" font-size="32.00" fill="#29235c">int</text>
<polygon fill="#e7e2dd" stroke="transparent" points="131.65,-511.95 131.65,-571.95 753.65,-571.95 753.65,-511.95 131.65,-511.95"/>
<polygon fill="none" stroke="#29235c" points="131.65,-511.95 131.65,-571.95 753.65,-571.95 753.65,-511.95 131.65,-511.95"/>
<text text-anchor="start" x="142.65" y="-532.15" font-family="Helvetica,sans-Serif" font-size="32.00" fill="#29235c">total_personnel_staff_years &#160;&#160;&#160;</text>
<text text-anchor="start" x="708.87" y="-533.15" font-family="Helvetica,sans-Serif" font-style="italic" font-size="32.00" fill="#29235c">int</text>
<polygon fill="#e7e2dd" stroke="transparent" points="131.65,-451.95 131.65,-511.95 753.65,-511.95 753.65,-451.95 131.65,-451.95"/>
<polygon fill="none" stroke="#29235c" points="131.65,-451.95 131.65,-511.95 753.65,-511.95 753.65,-451.95 131.65,-451.95"/>
<text text-anchor="start" x="142.65" y="-472.15" font-family="Helvetica,sans-Serif" font-size="32.00" fill="#29235c">total_population &#160;&#160;&#160;</text>
<text text-anchor="start" x="708.87" y="-473.15" font-family="Helvetica,sans-Serif" font-style="italic" font-size="32.00" fill="#29235c">int</text>
<polygon fill="#e7e2dd" stroke="transparent" points="131.65,-391.95 131.65,-451.95 753.65,-451.95 753.65,-391.95 131.65,-391.95"/>
<polygon fill="none" stroke="#29235c" points="131.65,-391.95 131.65,-451.95 753.65,-451.95 753.65,-391.95 131.65,-391.95"/>
<text text-anchor="start" x="142.65" y="-412.15" font-family="Helvetica,sans-Serif" font-size="32.00" fill="#29235c">total_deaths &#160;&#160;&#160;</text>
<text text-anchor="start" x="708.87" y="-413.15" font-family="Helvetica,sans-Serif" font-style="italic" font-size="32.00" fill="#29235c">int</text>
<polygon fill="#e7e2dd" stroke="transparent" points="131.65,-331.95 131.65,-391.95 753.65,-391.95 753.65,-331.95 131.65,-331.95"/>
<polygon fill="none" stroke="#29235c" points="131.65,-331.95 131.65,-391.95 753.65,-391.95 753.65,-331.95 131.65,-331.95"/>
<text text-anchor="start" x="142.65" y="-352.15" font-family="Helvetica,sans-Serif" font-size="32.00" fill="#29235c">death_rate_per_1000 &#160;&#160;&#160;</text>
<text text-anchor="start" x="548.86" y="-353.15" font-family="Helvetica,sans-Serif" font-style="italic" font-size="32.00" fill="#29235c">decimal(10,2)</text>
<polygon fill="#e7e2dd" stroke="transparent" points="131.65,-271.95 131.65,-331.95 753.65,-331.95 753.65,-271.95 131.65,-271.95"/>
<polygon fill="none" stroke="#29235c" points="131.65,-271.95 131.65,-331.95 753.65,-331.95 753.65,-271.95 131.65,-271.95"/>
<text text-anchor="start" x="142.65" y="-292.15" font-family="Helvetica,sans-Serif" font-size="32.00" fill="#29235c">new_establishments_yoy &#160;&#160;&#160;</text>
<text text-anchor="start" x="708.87" y="-293.15" font-family="Helvetica,sans-Serif" font-style="italic" font-size="32.00" fill="#29235c">int</text>
<polygon fill="#e7e2dd" stroke="transparent" points="131.65,-211.95 131.65,-271.95 753.65,-271.95 753.65,-211.95 131.65,-211.95"/>
<polygon fill="none" stroke="#29235c" points="131.65,-211.95 131.65,-271.95 753.65,-271.95 753.65,-211.95 131.65,-211.95"/>
<text text-anchor="start" x="142.54" y="-232.15" font-family="Helvetica,sans-Serif" font-size="32.00" fill="#29235c">establishment_growth_pct &#160;&#160;&#160;</text>
<text text-anchor="start" x="549.26" y="-233.15" font-family="Helvetica,sans-Serif" font-style="italic" font-size="32.00" fill="#29235c">decimal(10,2)</text>
<polygon fill="#e7e2dd" stroke="transparent" points="131.65,-151.95 131.65,-211.95 753.65,-211.95 753.65,-151.95 131.65,-151.95"/>
<polygon fill="none" stroke="#29235c" points="131.65,-151.95 131.65,-211.95 753.65,-211.95 753.65,-151.95 131.65,-151.95"/>
<text text-anchor="start" x="142.65" y="-172.15" font-family="Helvetica,sans-Serif" font-size="32.00" fill="#29235c">bankruptcy_growth_pct &#160;&#160;&#160;</text>
<text text-anchor="start" x="548.86" y="-173.15" font-family="Helvetica,sans-Serif" font-style="italic" font-size="32.00" fill="#29235c">decimal(10,2)</text>
<polygon fill="none" stroke="#29235c" stroke-width="2" points="130.65,-150.95 130.65,-872.95 754.65,-872.95 754.65,-150.95 130.65,-150.95"/>
</g>
<!-- fact_finland_economic_health&#45;&gt;dim_year -->
<!-- fact_finland_economic_health&#45;&gt;dim_year -->
<g id="edge2" class="edge">
<title>fact_finland_economic_health:e&#45;&gt;dim_year:w</title>
<path fill="none" stroke="#29235c" stroke-width="3" d="M754.65,-781.95C851.68,-781.95 878.43,-781.95 970.66,-781.95"/>
<polygon fill="#29235c" stroke="#29235c" stroke-width="3" points="970.7,-785.45 980.7,-781.95 970.7,-778.45 970.7,-785.45"/>
<text text-anchor="middle" x="971.81" y="-791.55" font-family="Helvetica,sans-Serif" font-size="32.00" fill="#29235c">1</text>
<text text-anchor="middle" x="748.43" y="-791.55" font-family="Helvetica,sans-Serif" font-size="32.00" fill="#29235c">*</text>
</g>
</g>
</svg>
