<?xml version="1.0" encoding="UTF-8" standalone="no"?>
<!DOCTYPE svg PUBLIC "-//W3C//DTD SVG 1.1//EN"
 "http://www.w3.org/Graphics/SVG/1.1/DTD/svg11.dtd">
<!-- Generated by graphviz version 2.47.0 (20210316.0004)
 -->
<!-- Title: dbml Pages: 1 -->
<svg width="2143pt" height="1488pt"
 viewBox="0.00 0.00 2142.69 1487.76" xmlns="http://www.w3.org/2000/svg" xmlns:xlink="http://www.w3.org/1999/xlink">
<g id="graph0" class="graph" transform="scale(1 1) rotate(0) translate(4 1483.76)">
<title>dbml</title>
<!-- dim_year -->
<g id="dim_year" class="node">
<title>dim_year</title>
<ellipse fill="none" stroke="black" stroke-width="0" cx="1801.65" cy="-1349.65" rx="199.31" ry="130.22"/>
<polygon fill="#1d71b8" stroke="transparent" points="1662.65,-1379.65 1662.65,-1439.65 1940.65,-1439.65 1940.65,-1379.65 1662.65,-1379.65"/>
<polygon fill="none" stroke="#29235c" points="1662.65,-1379.65 1662.65,-1439.65 1940.65,-1439.65 1940.65,-1379.65 1662.65,-1379.65"/>
<text text-anchor="start" x="1673.62" y="-1400.85" font-family="Helvetica,sans-Serif" font-weight="bold" font-size="32.00" fill="#ffffff"> &#160;&#160;&#160;&#160;&#160;&#160;dim_year &#160;&#160;&#160;&#160;&#160;&#160;</text>
<polygon fill="#e7e2dd" stroke="transparent" points="1662.65,-1319.65 1662.65,-1379.65 1940.65,-1379.65 1940.65,-1319.65 1662.65,-1319.65"/>
<polygon fill="none" stroke="#29235c" points="1662.65,-1319.65 1662.65,-1379.65 1940.65,-1379.65 1940.65,-1319.65 1662.65,-1319.65"/>
<text text-anchor="start" x="1673.65" y="-1340.85" font-family="Helvetica,sans-Serif" font-weight="bold" font-size="32.00" fill="#29235c">year_id</text>
<text text-anchor="start" x="1778.55" y="-1340.85" font-family="Helvetica,sans-Serif" font-size="32.00" fill="#29235c"> &#160;&#160;&#160;</text>
<text text-anchor="start" x="1895.86" y="-1340.85" font-family="Helvetica,sans-Serif" font-style="italic" font-size="32.00" fill="#29235c">int</text>
<polygon fill="#e7e2dd" stroke="transparent" points="1662.65,-1259.65 1662.65,-1319.65 1940.65,-1319.65 1940.65,-1259.65 1662.65,-1259.65"/>
<polygon fill="none" stroke="#29235c" points="1662.65,-1259.65 1662.65,-1319.65 1940.65,-1319.65 1940.65,-1259.65 1662.65,-1259.65"/>
<text text-anchor="start" x="1673.65" y="-1279.85" font-family="Helvetica,sans-Serif" font-size="32.00" fill="#29235c">year &#160;&#160;&#160;</text>
<text text-anchor="start" x="1856.77" y="-1280.85" font-family="Helvetica,sans-Serif" font-style="italic" font-size="32.00" fill="#29235c">int</text>
<text text-anchor="start" x="1890.55" y="-1280.85" font-family="Helvetica,sans-Serif" font-size="32.00" fill="#29235c"> </text>
<text text-anchor="start" x="1899.45" y="-1280.85" font-family="Helvetica,sans-Serif" font-weight="bold" font-size="32.00" fill="#29235c">(!)</text>
<polygon fill="none" stroke="#29235c" stroke-width="2" points="1661.65,-1258.65 1661.65,-1440.65 1941.65,-1440.65 1941.65,-1258.65 1661.65,-1258.65"/>
</g>
<!-- dim_municipality -->
<g id="dim_municipality" class="node">
<title>dim_municipality</title>
<ellipse fill="none" stroke="black" stroke-width="0" cx="1801.65" cy="-1071.65" rx="333.09" ry="130.22"/>
<polygon fill="#1d71b8" stroke="transparent" points="1568.65,-1101.65 1568.65,-1161.65 2035.65,-1161.65 2035.65,-1101.65 1568.65,-1101.65"/>
<polygon fill="none" stroke="#29235c" points="1568.65,-1101.65 1568.65,-1161.65 2035.65,-1161.65 2035.65,-1101.65 1568.65,-1101.65"/>
<text text-anchor="start" x="1621.68" y="-1122.85" font-family="Helvetica,sans-Serif" font-weight="bold" font-size="32.00" fill="#ffffff"> &#160;&#160;&#160;&#160;&#160;&#160;dim_municipality &#160;&#160;&#160;&#160;&#160;&#160;</text>
<polygon fill="#e7e2dd" stroke="transparent" points="1568.65,-1041.65 1568.65,-1101.65 2035.65,-1101.65 2035.65,-1041.65 1568.65,-1041.65"/>
<polygon fill="none" stroke="#29235c" points="1568.65,-1041.65 1568.65,-1101.65 2035.65,-1101.65 2035.65,-1041.65 1568.65,-1041.65"/>
<text text-anchor="start" x="1579.65" y="-1062.85" font-family="Helvetica,sans-Serif" font-weight="bold" font-size="32.00" fill="#29235c">municipality_id</text>
<text text-anchor="start" x="1789.43" y="-1062.85" font-family="Helvetica,sans-Serif" font-size="32.00" fill="#29235c"> &#160;&#160;&#160;</text>
<text text-anchor="start" x="1861.09" y="-1062.85" font-family="Helvetica,sans-Serif" font-style="italic" font-size="32.00" fill="#29235c">varchar(32)</text>
<polygon fill="#e7e2dd" stroke="transparent" points="1568.65,-981.65 1568.65,-1041.65 2035.65,-1041.65 2035.65,-981.65 1568.65,-981.65"/>
<polygon fill="none" stroke="#29235c" points="1568.65,-981.65 1568.65,-1041.65 2035.65,-1041.65 2035.65,-981.65 1568.65,-981.65"/>
<text text-anchor="start" x="1579.4" y="-1001.85" font-family="Helvetica,sans-Serif" font-size="32.00" fill="#29235c">municipality_name &#160;&#160;&#160;</text>
<text text-anchor="start" x="1879.26" y="-1002.85" font-family="Helvetica,sans-Serif" font-style="italic" font-size="32.00" fill="#29235c">varchar</text>
<text text-anchor="start" x="1985.94" y="-1002.85" font-family="Helvetica,sans-Serif" font-size="32.00" fill="#29235c"> </text>
<text text-anchor="start" x="1994.83" y="-1002.85" font-family="Helvetica,sans-Serif" font-weight="bold" font-size="32.00" fill="#29235c">(!)</text>
<polygon fill="none" stroke="#29235c" stroke-width="2" points="1567.15,-980.65 1567.15,-1162.65 2036.15,-1162.65 2036.15,-980.65 1567.15,-980.65"/>
</g>
<!-- dim_industry -->
<g id="dim_industry" class="node">
<title>dim_industry</title>
<ellipse fill="none" stroke="black" stroke-width="0" cx="1801.65" cy="-793.65" rx="294.31" ry="130.22"/>
<polygon fill="#1d71b8" stroke="transparent" points="1595.65,-823.65 1595.65,-883.65 2007.65,-883.65 2007.65,-823.65 1595.65,-823.65"/>
<polygon fill="none" stroke="#29235c" points="1595.65,-823.65 1595.65,-883.65 2007.65,-883.65 2007.65,-823.65 1595.65,-823.65"/>
<text text-anchor="start" x="1648.72" y="-844.85" font-family="Helvetica,sans-Serif" font-weight="bold" font-size="32.00" fill="#ffffff"> &#160;&#160;&#160;&#160;&#160;&#160;dim_industry &#160;&#160;&#160;&#160;&#160;&#160;</text>
<polygon fill="#e7e2dd" stroke="transparent" points="1595.65,-763.65 1595.65,-823.65 2007.65,-823.65 2007.65,-763.65 1595.65,-763.65"/>
<polygon fill="none" stroke="#29235c" points="1595.65,-763.65 1595.65,-823.65 2007.65,-823.65 2007.65,-763.65 1595.65,-763.65"/>
<text text-anchor="start" x="1606.65" y="-784.85" font-family="Helvetica,sans-Serif" font-weight="bold" font-size="32.00" fill="#29235c">industry_id</text>
<text text-anchor="start" x="1761.34" y="-784.85" font-family="Helvetica,sans-Serif" font-size="32.00" fill="#29235c"> &#160;&#160;&#160;</text>
<text text-anchor="start" x="1833.09" y="-784.85" font-family="Helvetica,sans-Serif" font-style="italic" font-size="32.00" fill="#29235c">varchar(32)</text>
<polygon fill="#e7e2dd" stroke="transparent" points="1595.65,-703.65 1595.65,-763.65 2007.65,-763.65 2007.65,-703.65 1595.65,-703.65"/>
<polygon fill="none" stroke="#29235c" points="1595.65,-703.65 1595.65,-763.65 2007.65,-763.65 2007.65,-703.65 1595.65,-703.65"/>
<text text-anchor="start" x="1606.45" y="-723.85" font-family="Helvetica,sans-Serif" font-size="32.00" fill="#29235c">industry_name &#160;&#160;&#160;</text>
<text text-anchor="start" x="1851.26" y="-724.85" font-family="Helvetica,sans-Serif" font-style="italic" font-size="32.00" fill="#29235c">varchar</text>
<text text-anchor="start" x="1957.94" y="-724.85" font-family="Helvetica,sans-Serif" font-size="32.00" fill="#29235c"> </text>
<text text-anchor="start" x="1966.83" y="-724.85" font-family="Helvetica,sans-Serif" font-weight="bold" font-size="32.00" fill="#29235c">(!)</text>
<polygon fill="none" stroke="#29235c" stroke-width="2" points="1594.65,-702.65 1594.65,-884.65 2008.65,-884.65 2008.65,-702.65 1594.65,-702.65"/>
</g>
<!-- fact_industry_labor_impact_bankruptcies -->
<g id="fact_industry_labor_impact_bankruptcies" class="node">
<title>fact_industry_labor_impact_bankruptcies</title>
<ellipse fill="none" stroke="black" stroke-width="0" cx="716.3" cy="-681.65" rx="716.1" ry="681.8"/>
<polygon fill="#1d71b8" stroke="transparent" points="212.3,-1101.65 212.3,-1161.65 1221.3,-1161.65 1221.3,-1101.65 212.3,-1101.65"/>
<polygon fill="none" stroke="#29235c" points="212.3,-1101.65 212.3,-1161.65 1221.3,-1161.65 1221.3,-1101.65 212.3,-1101.65"/>
<text text-anchor="start" x="363.82" y="-1122.85" font-family="Helvetica,sans-Serif" font-weight="bold" font-size="32.00" fill="#ffffff"> &#160;&#160;&#160;&#160;&#160;&#160;fact_industry_labor_impact_bankruptcies &#160;&#160;&#160;&#160;&#160;&#160;</text>
<polygon fill="#e7e2dd" stroke="transparent" points="212.3,-1041.65 212.3,-1101.65 1221.3,-1101.65 1221.3,-1041.65 212.3,-1041.65"/>
<polygon fill="none" stroke="#29235c" points="212.3,-1041.65 212.3,-1101.65 1221.3,-1101.65 1221.3,-1041.65 212.3,-1041.65"/>
<text text-anchor="start" x="223.3" y="-1061.85" font-family="Helvetica,sans-Serif" font-size="32.00" fill="#29235c">year_id &#160;&#160;&#160;</text>
<text text-anchor="start" x="1137.43" y="-1062.85" font-family="Helvetica,sans-Serif" font-style="italic" font-size="32.00" fill="#29235c">int</text>
<text text-anchor="start" x="1171.21" y="-1062.85" font-family="Helvetica,sans-Serif" font-size="32.00" fill="#29235c"> </text>
<text text-anchor="start" x="1180.1" y="-1062.85" font-family="Helvetica,sans-Serif" font-weight="bold" font-size="32.00" fill="#29235c">(!)</text>
<polygon fill="#e7e2dd" stroke="transparent" points="212.3,-981.65 212.3,-1041.65 1221.3,-1041.65 1221.3,-981.65 212.3,-981.65"/>
<polygon fill="none" stroke="#29235c" points="212.3,-981.65 212.3,-1041.65 1221.3,-1041.65 1221.3,-981.65 212.3,-981.65"/>
<text text-anchor="start" x="223.3" y="-1001.85" font-family="Helvetica,sans-Serif" font-size="32.00" fill="#29235c">municipality_id &#160;&#160;&#160;</text>
<text text-anchor="start" x="1007.65" y="-1002.85" font-family="Helvetica,sans-Serif" font-style="italic" font-size="32.00" fill="#29235c">varchar(32)</text>
<text text-anchor="start" x="1171.21" y="-1002.85" font-family="Helvetica,sans-Serif" font-size="32.00" fill="#29235c"> </text>
<text text-anchor="start" x="1180.1" y="-1002.85" font-family="Helvetica,sans-Serif" font-weight="bold" font-size="32.00" fill="#29235c">(!)</text>
<polygon fill="#e7e2dd" stroke="transparent" points="212.3,-921.65 212.3,-981.65 1221.3,-981.65 1221.3,-921.65 212.3,-921.65"/>
<polygon fill="none" stroke="#29235c" points="212.3,-921.65 212.3,-981.65 1221.3,-981.65 1221.3,-921.65 212.3,-921.65"/>
<text text-anchor="start" x="223.3" y="-941.85" font-family="Helvetica,sans-Serif" font-size="32.00" fill="#29235c">industry_id &#160;&#160;&#160;</text>
<text text-anchor="start" x="1007.65" y="-942.85" font-family="Helvetica,sans-Serif" font-style="italic" font-size="32.00" fill="#29235c">varchar(32)</text>
<text text-anchor="start" x="1171.21" y="-942.85" font-family="Helvetica,sans-Serif" font-size="32.00" fill="#29235c"> </text>
<text text-anchor="start" x="1180.1" y="-942.85" font-family="Helvetica,sans-Serif" font-weight="bold" font-size="32.00" fill="#29235c">(!)</text>
<polygon fill="#e7e2dd" stroke="transparent" points="212.3,-861.65 212.3,-921.65 1221.3,-921.65 1221.3,-861.65 212.3,-861.65"/>
<polygon fill="none" stroke="#29235c" points="212.3,-861.65 212.3,-921.65 1221.3,-921.65 1221.3,-861.65 212.3,-861.65"/>
<text text-anchor="start" x="223.3" y="-881.85" font-family="Helvetica,sans-Serif" font-size="32.00" fill="#29235c">bankruptcies_enterprises &#160;&#160;&#160;</text>
<text text-anchor="start" x="1176.52" y="-882.85" font-family="Helvetica,sans-Serif" font-style="italic" font-size="32.00" fill="#29235c">int</text>
<polygon fill="#e7e2dd" stroke="transparent" points="212.3,-801.65 212.3,-861.65 1221.3,-861.65 1221.3,-801.65 212.3,-801.65"/>
<polygon fill="none" stroke="#29235c" points="212.3,-801.65 212.3,-861.65 1221.3,-861.65 1221.3,-801.65 212.3,-801.65"/>
<text text-anchor="start" x="223.3" y="-821.85" font-family="Helvetica,sans-Serif" font-size="32.00" fill="#29235c">bankruptcies_employees &#160;&#160;&#160;</text>
<text text-anchor="start" x="1176.52" y="-822.85" font-family="Helvetica,sans-Serif" font-style="italic" font-size="32.00" fill="#29235c">int</text>
<polygon fill="#e7e2dd" stroke="transparent" points="212.3,-741.65 212.3,-801.65 1221.3,-801.65 1221.3,-741.65 212.3,-741.65"/>
<polygon fill="none" stroke="#29235c" points="212.3,-741.65 212.3,-801.65 1221.3,-801.65 1221.3,-741.65 212.3,-741.65"/>
<text text-anchor="start" x="223.3" y="-761.85" font-family="Helvetica,sans-Serif" font-size="32.00" fill="#29235c">employees_affected_per_bankruptcy &#160;&#160;&#160;</text>
<text text-anchor="start" x="1016.51" y="-762.85" font-family="Helvetica,sans-Serif" font-style="italic" font-size="32.00" fill="#29235c">decimal(10,2)</text>
<polygon fill="#e7e2dd" stroke="transparent" points="212.3,-681.65 212.3,-741.65 1221.3,-741.65 1221.3,-681.65 212.3,-681.65"/>
<polygon fill="none" stroke="#29235c" points="212.3,-681.65 212.3,-741.65 1221.3,-741.65 1221.3,-681.65 212.3,-681.65"/>
<text text-anchor="start" x="223.3" y="-701.85" font-family="Helvetica,sans-Serif" font-size="32.00" fill="#29235c">share_of_municipality_bankrupt_employees_pct &#160;&#160;&#160;</text>
<text text-anchor="start" x="1016.51" y="-702.85" font-family="Helvetica,sans-Serif" font-style="italic" font-size="32.00" fill="#29235c">decimal(10,2)</text>
<polygon fill="#e7e2dd" stroke="transparent" points="212.3,-621.65 212.3,-681.65 1221.3,-681.65 1221.3,-621.65 212.3,-621.65"/>
<polygon fill="none" stroke="#29235c" points="212.3,-621.65 212.3,-681.65 1221.3,-681.65 1221.3,-621.65 212.3,-621.65"/>
<text text-anchor="start" x="222.84" y="-641.85" font-family="Helvetica,sans-Serif" font-size="32.00" fill="#29235c">share_of_national_industry_bankrupt_employees_pct &#160;&#160;&#160;</text>
<text text-anchor="start" x="1016.91" y="-642.85" font-family="Helvetica,sans-Serif" font-style="italic" font-size="32.00" fill="#29235c">decimal(10,2)</text>
<polygon fill="#e7e2dd" stroke="transparent" points="212.3,-561.65 212.3,-621.65 1221.3,-621.65 1221.3,-561.65 212.3,-561.65"/>
<polygon fill="none" stroke="#29235c" points="212.3,-561.65 212.3,-621.65 1221.3,-621.65 1221.3,-561.65 212.3,-561.65"/>
<text text-anchor="start" x="223.3" y="-581.85" font-family="Helvetica,sans-Serif" font-size="32.00" fill="#29235c">yoy_bankruptcies_employees_pct &#160;&#160;&#160;</text>
<text text-anchor="start" x="1016.51" y="-582.85" font-family="Helvetica,sans-Serif" font-style="italic" font-size="32.00" fill="#29235c">decimal(10,2)</text>
<polygon fill="#e7e2dd" stroke="transparent" points="212.3,-501.65 212.3,-561.65 1221.3,-561.65 1221.3,-501.65 212.3,-501.65"/>
<polygon fill="none" stroke="#29235c" points="212.3,-501.65 212.3,-561.65 1221.3,-561.65 1221.3,-501.65 212.3,-501.65"/>
<text text-anchor="start" x="223.3" y="-521.85" font-family="Helvetica,sans-Serif" font-size="32.00" fill="#29235c">yoy_bankruptcies_enterprises_pct &#160;&#160;&#160;</text>
<text text-anchor="start" x="1016.51" y="-522.85" font-family="Helvetica,sans-Serif" font-style="italic" font-size="32.00" fill="#29235c">decimal(10,2)</text>
<polygon fill="#e7e2dd" stroke="transparent" points="212.3,-441.65 212.3,-501.65 1221.3,-501.65 1221.3,-441.65 212.3,-441.65"/>
<polygon fill="none" stroke="#29235c" points="212.3,-441.65 212.3,-501.65 1221.3,-501.65 1221.3,-441.65 212.3,-441.65"/>
<text text-anchor="start" x="223.3" y="-461.85" font-family="Helvetica,sans-Serif" font-size="32.00" fill="#29235c">rolling_3y_avg_bankruptcies_employees &#160;&#160;&#160;</text>
<text text-anchor="start" x="1016.51" y="-462.85" font-family="Helvetica,sans-Serif" font-style="italic" font-size="32.00" fill="#29235c">decimal(10,2)</text>
<polygon fill="#e7e2dd" stroke="transparent" points="212.3,-381.65 212.3,-441.65 1221.3,-441.65 1221.3,-381.65 212.3,-381.65"/>
<polygon fill="none" stroke="#29235c" points="212.3,-381.65 212.3,-441.65 1221.3,-441.65 1221.3,-381.65 212.3,-381.65"/>
<text text-anchor="start" x="223.3" y="-401.85" font-family="Helvetica,sans-Serif" font-size="32.00" fill="#29235c">rolling_3y_avg_employees_per_bankruptcy &#160;&#160;&#160;</text>
<text text-anchor="start" x="1016.51" y="-402.85" font-family="Helvetica,sans-Serif" font-style="italic" font-size="32.00" fill="#29235c">decimal(10,2)</text>
<polygon fill="#e7e2dd" stroke="transparent" points="212.3,-321.65 212.3,-381.65 1221.3,-381.65 1221.3,-321.65 212.3,-321.65"/>
<polygon fill="none" stroke="#29235c" points="212.3,-321.65 212.3,-381.65 1221.3,-381.65 1221.3,-321.65 212.3,-321.65"/>
<text text-anchor="start" x="223.3" y="-341.85" font-family="Helvetica,sans-Serif" font-size="32.00" fill="#29235c">labor_impact_ntile &#160;&#160;&#160;</text>
<text text-anchor="start" x="1176.52" y="-342.85" font-family="Helvetica,sans-Serif" font-style="italic" font-size="32.00" fill="#29235c">int</text>
<polygon fill="#e7e2dd" stroke="transparent" points="212.3,-261.65 212.3,-321.65 1221.3,-321.65 1221.3,-261.65 212.3,-261.65"/>
<polygon fill="none" stroke="#29235c" points="212.3,-261.65 212.3,-321.65 1221.3,-321.65 1221.3,-261.65 212.3,-261.65"/>
<text text-anchor="start" x="223.3" y="-281.85" font-family="Helvetica,sans-Serif" font-size="32.00" fill="#29235c">labor_impact_class &#160;&#160;&#160;</text>
<text text-anchor="start" x="1103.63" y="-282.85" font-family="Helvetica,sans-Serif" font-style="italic" font-size="32.00" fill="#29235c">varchar</text>
<polygon fill="#e7e2dd" stroke="transparent" points="212.3,-201.65 212.3,-261.65 1221.3,-261.65 1221.3,-201.65 212.3,-201.65"/>
<polygon fill="none" stroke="#29235c" points="212.3,-201.65 212.3,-261.65 1221.3,-261.65 1221.3,-201.65 212.3,-201.65"/>
<text text-anchor="start" x="223.3" y="-221.85" font-family="Helvetica,sans-Serif" font-size="32.00" fill="#29235c">labor_impact_absolute_class &#160;&#160;&#160;</text>
<text text-anchor="start" x="1103.63" y="-222.85" font-family="Helvetica,sans-Serif" font-style="italic" font-size="32.00" fill="#29235c">varchar</text>
<polygon fill="none" stroke="#29235c" stroke-width="2" points="210.8,-200.65 210.8,-1162.65 1221.8,-1162.65 1221.8,-200.65 210.8,-200.65"/>
</g>
<!-- fact_industry_labor_impact_bankruptcies&#45;&gt;dim_year -->
<!-- fact_industry_labor_impact_bankruptcies&#45;&gt;dim_year -->
<g id="edge2" class="edge">
<title>fact_industry_labor_impact_bankruptcies:e&#45;&gt;dim_year:w</title>
<path fill="none" stroke="#29235c" stroke-width="3" d="M1222.3,-1071.65C1449.87,-1071.65 1431.21,-1341.3 1651.33,-1349.46"/>
<polygon fill="#29235c" stroke="#29235c" stroke-width="3" points="1651.58,-1352.97 1661.65,-1349.65 1651.71,-1345.97 1651.58,-1352.97"/>
<text text-anchor="middle" x="1652.75" y="-1359.25" font-family="Helvetica,sans-Serif" font-size="32.00" fill="#29235c">1</text>
<text text-anchor="middle" x="1216.08" y="-1081.25" font-family="Helvetica,sans-Serif" font-size="32.00" fill="#29235c">*</text>
</g>
<!-- fact_industry_labor_impact_bankruptcies&#45;&gt;dim_municipality -->
<!-- fact_industry_labor_impact_bankruptcies&#45;&gt;dim_municipality -->
<g id="edge4" class="edge">
<title>fact_industry_labor_impact_bankruptcies:e&#45;&gt;dim_municipality:w</title>
<path fill="none" stroke="#29235c" stroke-width="3" d="M1222.3,-1011.65C1374.59,-1011.65 1410.28,-1068.99 1557.33,-1071.56"/>
<polygon fill="#29235c" stroke="#29235c" stroke-width="3" points="1557.62,-1075.06 1567.65,-1071.65 1557.68,-1068.06 1557.62,-1075.06"/>
<text text-anchor="middle" x="1558.75" y="-1081.25" font-family="Helvetica,sans-Serif" font-size="32.00" fill="#29235c">1</text>
<text text-anchor="middle" x="1216.08" y="-1021.25" font-family="Helvetica,sans-Serif" font-size="32.00" fill="#29235c">*</text>
</g>
<!-- fact_industry_labor_impact_bankruptcies&#45;&gt;dim_industry -->
<!-- fact_industry_labor_impact_bankruptcies&#45;&gt;dim_industry -->
<g id="edge6" class="edge">
<title>fact_industry_labor_impact_bankruptcies:e&#45;&gt;dim_industry:w</title>
<path fill="none" stroke="#29235c" stroke-width="3" d="M1222.3,-951.65C1398.65,-951.65 1414.33,-799.61 1584.55,-793.82"/>
<polygon fill="#29235c" stroke="#29235c" stroke-width="3" points="1584.71,-797.32 1594.65,-793.65 1584.59,-790.32 1584.71,-797.32"/>
<text text-anchor="middle" x="1585.75" y="-803.25" font-family="Helvetica,sans-Serif" font-size="32.00" fill="#29235c">1</text>
<text text-anchor="middle" x="1216.08" y="-961.25" font-family="Helvetica,sans-Serif" font-size="32.00" fill="#29235c">*</text>
</g>
</g>
</svg>
