<?xml version="1.0" encoding="UTF-8" standalone="no"?>
<!DOCTYPE svg PUBLIC "-//W3C//DTD SVG 1.1//EN"
 "http://www.w3.org/Graphics/SVG/1.1/DTD/svg11.dtd">
<!-- Generated by graphviz version 2.47.0 (20210316.0004)
 -->
<!-- Title: dbml Pages: 1 -->
<svg width="2158pt" height="2140pt"
 viewBox="0.00 0.00 2158.25 2139.60" xmlns="http://www.w3.org/2000/svg" xmlns:xlink="http://www.w3.org/1999/xlink">
<g id="graph0" class="graph" transform="scale(1 1) rotate(0) translate(4 2135.6)">
<title>dbml</title>
<!-- dim_year -->
<g id="dim_year" class="node">
<title>dim_year</title>
<ellipse fill="none" stroke="black" stroke-width="0" cx="1817.2" cy="-2001.49" rx="199.31" ry="130.22"/>
<polygon fill="#1d71b8" stroke="transparent" points="1678.2,-2031.49 1678.2,-2091.49 1956.2,-2091.49 1956.2,-2031.49 1678.2,-2031.49"/>
<polygon fill="none" stroke="#29235c" points="1678.2,-2031.49 1678.2,-2091.49 1956.2,-2091.49 1956.2,-2031.49 1678.2,-2031.49"/>
<text text-anchor="start" x="1689.17" y="-2052.69" font-family="Helvetica,sans-Serif" font-weight="bold" font-size="32.00" fill="#ffffff"> &#160;&#160;&#160;&#160;&#160;&#160;dim_year &#160;&#160;&#160;&#160;&#160;&#160;</text>
<polygon fill="#e7e2dd" stroke="transparent" points="1678.2,-1971.49 1678.2,-2031.49 1956.2,-2031.49 1956.2,-1971.49 1678.2,-1971.49"/>
<polygon fill="none" stroke="#29235c" points="1678.2,-1971.49 1678.2,-2031.49 1956.2,-2031.49 1956.2,-1971.49 1678.2,-1971.49"/>
<text text-anchor="start" x="1689.2" y="-1992.69" font-family="Helvetica,sans-Serif" font-weight="bold" font-size="32.00" fill="#29235c">year_id</text>
<text text-anchor="start" x="1794.11" y="-1992.69" font-family="Helvetica,sans-Serif" font-size="32.00" fill="#29235c"> &#160;&#160;&#160;</text>
<text text-anchor="start" x="1911.42" y="-1992.69" font-family="Helvetica,sans-Serif" font-style="italic" font-size="32.00" fill="#29235c">int</text>
<polygon fill="#e7e2dd" stroke="transparent" points="1678.2,-1911.49 1678.2,-1971.49 1956.2,-1971.49 1956.2,-1911.49 1678.2,-1911.49"/>
<polygon fill="none" stroke="#29235c" points="1678.2,-1911.49 1678.2,-1971.49 1956.2,-1971.49 1956.2,-1911.49 1678.2,-1911.49"/>
<text text-anchor="start" x="1689.2" y="-1931.69" font-family="Helvetica,sans-Serif" font-size="32.00" fill="#29235c">year &#160;&#160;&#160;</text>
<text text-anchor="start" x="1872.33" y="-1932.69" font-family="Helvetica,sans-Serif" font-style="italic" font-size="32.00" fill="#29235c">int</text>
<text text-anchor="start" x="1906.11" y="-1932.69" font-family="Helvetica,sans-Serif" font-size="32.00" fill="#29235c"> </text>
<text text-anchor="start" x="1915" y="-1932.69" font-family="Helvetica,sans-Serif" font-weight="bold" font-size="32.00" fill="#29235c">(!)</text>
<polygon fill="none" stroke="#29235c" stroke-width="2" points="1677.2,-1910.49 1677.2,-2092.49 1957.2,-2092.49 1957.2,-1910.49 1677.2,-1910.49"/>
</g>
<!-- dim_municipality -->
<g id="dim_municipality" class="node">
<title>dim_municipality</title>
<ellipse fill="none" stroke="black" stroke-width="0" cx="1817.2" cy="-1723.49" rx="333.09" ry="130.22"/>
<polygon fill="#1d71b8" stroke="transparent" points="1584.2,-1753.49 1584.2,-1813.49 2051.2,-1813.49 2051.2,-1753.49 1584.2,-1753.49"/>
<polygon fill="none" stroke="#29235c" points="1584.2,-1753.49 1584.2,-1813.49 2051.2,-1813.49 2051.2,-1753.49 1584.2,-1753.49"/>
<text text-anchor="start" x="1637.23" y="-1774.69" font-family="Helvetica,sans-Serif" font-weight="bold" font-size="32.00" fill="#ffffff"> &#160;&#160;&#160;&#160;&#160;&#160;dim_municipality &#160;&#160;&#160;&#160;&#160;&#160;</text>
<polygon fill="#e7e2dd" stroke="transparent" points="1584.2,-1693.49 1584.2,-1753.49 2051.2,-1753.49 2051.2,-1693.49 1584.2,-1693.49"/>
<polygon fill="none" stroke="#29235c" points="1584.2,-1693.49 1584.2,-1753.49 2051.2,-1753.49 2051.2,-1693.49 1584.2,-1693.49"/>
<text text-anchor="start" x="1595.2" y="-1714.69" font-family="Helvetica,sans-Serif" font-weight="bold" font-size="32.00" fill="#29235c">municipality_id</text>
<text text-anchor="start" x="1804.98" y="-1714.69" font-family="Helvetica,sans-Serif" font-size="32.00" fill="#29235c"> &#160;&#160;&#160;</text>
<text text-anchor="start" x="1876.65" y="-1714.69" font-family="Helvetica,sans-Serif" font-style="italic" font-size="32.00" fill="#29235c">varchar(32)</text>
<polygon fill="#e7e2dd" stroke="transparent" points="1584.2,-1633.49 1584.2,-1693.49 2051.2,-1693.49 2051.2,-1633.49 1584.2,-1633.49"/>
<polygon fill="none" stroke="#29235c" points="1584.2,-1633.49 1584.2,-1693.49 2051.2,-1693.49 2051.2,-1633.49 1584.2,-1633.49"/>
<text text-anchor="start" x="1594.96" y="-1653.69" font-family="Helvetica,sans-Serif" font-size="32.00" fill="#29235c">municipality_name &#160;&#160;&#160;</text>
<text text-anchor="start" x="1894.82" y="-1654.69" font-family="Helvetica,sans-Serif" font-style="italic" font-size="32.00" fill="#29235c">varchar</text>
<text text-anchor="start" x="2001.49" y="-1654.69" font-family="Helvetica,sans-Serif" font-size="32.00" fill="#29235c"> </text>
<text text-anchor="start" x="2010.39" y="-1654.69" font-family="Helvetica,sans-Serif" font-weight="bold" font-size="32.00" fill="#29235c">(!)</text>
<polygon fill="none" stroke="#29235c" stroke-width="2" points="1582.7,-1632.49 1582.7,-1814.49 2051.7,-1814.49 2051.7,-1632.49 1582.7,-1632.49"/>
</g>
<!-- dim_industry -->
<g id="dim_industry" class="node">
<title>dim_industry</title>
<ellipse fill="none" stroke="black" stroke-width="0" cx="1817.2" cy="-1445.49" rx="294.31" ry="130.22"/>
<polygon fill="#1d71b8" stroke="transparent" points="1611.2,-1475.49 1611.2,-1535.49 2023.2,-1535.49 2023.2,-1475.49 1611.2,-1475.49"/>
<polygon fill="none" stroke="#29235c" points="1611.2,-1475.49 1611.2,-1535.49 2023.2,-1535.49 2023.2,-1475.49 1611.2,-1475.49"/>
<text text-anchor="start" x="1664.28" y="-1496.69" font-family="Helvetica,sans-Serif" font-weight="bold" font-size="32.00" fill="#ffffff"> &#160;&#160;&#160;&#160;&#160;&#160;dim_industry &#160;&#160;&#160;&#160;&#160;&#160;</text>
<polygon fill="#e7e2dd" stroke="transparent" points="1611.2,-1415.49 1611.2,-1475.49 2023.2,-1475.49 2023.2,-1415.49 1611.2,-1415.49"/>
<polygon fill="none" stroke="#29235c" points="1611.2,-1415.49 1611.2,-1475.49 2023.2,-1475.49 2023.2,-1415.49 1611.2,-1415.49"/>
<text text-anchor="start" x="1622.2" y="-1436.69" font-family="Helvetica,sans-Serif" font-weight="bold" font-size="32.00" fill="#29235c">industry_id</text>
<text text-anchor="start" x="1776.89" y="-1436.69" font-family="Helvetica,sans-Serif" font-size="32.00" fill="#29235c"> &#160;&#160;&#160;</text>
<text text-anchor="start" x="1848.65" y="-1436.69" font-family="Helvetica,sans-Serif" font-style="italic" font-size="32.00" fill="#29235c">varchar(32)</text>
<polygon fill="#e7e2dd" stroke="transparent" points="1611.2,-1355.49 1611.2,-1415.49 2023.2,-1415.49 2023.2,-1355.49 1611.2,-1355.49"/>
<polygon fill="none" stroke="#29235c" points="1611.2,-1355.49 1611.2,-1415.49 2023.2,-1415.49 2023.2,-1355.49 1611.2,-1355.49"/>
<text text-anchor="start" x="1622.01" y="-1375.69" font-family="Helvetica,sans-Serif" font-size="32.00" fill="#29235c">industry_name &#160;&#160;&#160;</text>
<text text-anchor="start" x="1866.82" y="-1376.69" font-family="Helvetica,sans-Serif" font-style="italic" font-size="32.00" fill="#29235c">varchar</text>
<text text-anchor="start" x="1973.49" y="-1376.69" font-family="Helvetica,sans-Serif" font-size="32.00" fill="#29235c"> </text>
<text text-anchor="start" x="1982.39" y="-1376.69" font-family="Helvetica,sans-Serif" font-weight="bold" font-size="32.00" fill="#29235c">(!)</text>
<polygon fill="none" stroke="#29235c" stroke-width="2" points="1610.2,-1354.49 1610.2,-1536.49 2024.2,-1536.49 2024.2,-1354.49 1610.2,-1354.49"/>
</g>
<!-- fact_industry_bankruptcy_specialization -->
<g id="fact_industry_bankruptcy_specialization" class="node">
<title>fact_industry_bankruptcy_specialization</title>
<ellipse fill="none" stroke="black" stroke-width="0" cx="724.08" cy="-1063.49" rx="724.15" ry="1063.48"/>
<polygon fill="#1d71b8" stroke="transparent" points="214.08,-1753.49 214.08,-1813.49 1234.08,-1813.49 1234.08,-1753.49 214.08,-1753.49"/>
<polygon fill="none" stroke="#29235c" points="214.08,-1753.49 214.08,-1813.49 1234.08,-1813.49 1234.08,-1753.49 214.08,-1753.49"/>
<text text-anchor="start" x="379.09" y="-1774.69" font-family="Helvetica,sans-Serif" font-weight="bold" font-size="32.00" fill="#ffffff"> &#160;&#160;&#160;&#160;&#160;&#160;fact_industry_bankruptcy_specialization &#160;&#160;&#160;&#160;&#160;&#160;</text>
<polygon fill="#e7e2dd" stroke="transparent" points="214.08,-1693.49 214.08,-1753.49 1234.08,-1753.49 1234.08,-1693.49 214.08,-1693.49"/>
<polygon fill="none" stroke="#29235c" points="214.08,-1693.49 214.08,-1753.49 1234.08,-1753.49 1234.08,-1693.49 214.08,-1693.49"/>
<text text-anchor="start" x="225.08" y="-1713.69" font-family="Helvetica,sans-Serif" font-size="32.00" fill="#29235c">year_id &#160;&#160;&#160;</text>
<text text-anchor="start" x="1150.2" y="-1714.69" font-family="Helvetica,sans-Serif" font-style="italic" font-size="32.00" fill="#29235c">int</text>
<text text-anchor="start" x="1183.99" y="-1714.69" font-family="Helvetica,sans-Serif" font-size="32.00" fill="#29235c"> </text>
<text text-anchor="start" x="1192.88" y="-1714.69" font-family="Helvetica,sans-Serif" font-weight="bold" font-size="32.00" fill="#29235c">(!)</text>
<polygon fill="#e7e2dd" stroke="transparent" points="214.08,-1633.49 214.08,-1693.49 1234.08,-1693.49 1234.08,-1633.49 214.08,-1633.49"/>
<polygon fill="none" stroke="#29235c" points="214.08,-1633.49 214.08,-1693.49 1234.08,-1693.49 1234.08,-1633.49 214.08,-1633.49"/>
<text text-anchor="start" x="225.08" y="-1653.69" font-family="Helvetica,sans-Serif" font-size="32.00" fill="#29235c">municipality_id &#160;&#160;&#160;</text>
<text text-anchor="start" x="1020.43" y="-1654.69" font-family="Helvetica,sans-Serif" font-style="italic" font-size="32.00" fill="#29235c">varchar(32)</text>
<text text-anchor="start" x="1183.99" y="-1654.69" font-family="Helvetica,sans-Serif" font-size="32.00" fill="#29235c"> </text>
<text text-anchor="start" x="1192.88" y="-1654.69" font-family="Helvetica,sans-Serif" font-weight="bold" font-size="32.00" fill="#29235c">(!)</text>
<polygon fill="#e7e2dd" stroke="transparent" points="214.08,-1573.49 214.08,-1633.49 1234.08,-1633.49 1234.08,-1573.49 214.08,-1573.49"/>
<polygon fill="none" stroke="#29235c" points="214.08,-1573.49 214.08,-1633.49 1234.08,-1633.49 1234.08,-1573.49 214.08,-1573.49"/>
<text text-anchor="start" x="225.08" y="-1593.69" font-family="Helvetica,sans-Serif" font-size="32.00" fill="#29235c">industry_id &#160;&#160;&#160;</text>
<text text-anchor="start" x="1020.43" y="-1594.69" font-family="Helvetica,sans-Serif" font-style="italic" font-size="32.00" fill="#29235c">varchar(32)</text>
<text text-anchor="start" x="1183.99" y="-1594.69" font-family="Helvetica,sans-Serif" font-size="32.00" fill="#29235c"> </text>
<text text-anchor="start" x="1192.88" y="-1594.69" font-family="Helvetica,sans-Serif" font-weight="bold" font-size="32.00" fill="#29235c">(!)</text>
<polygon fill="#e7e2dd" stroke="transparent" points="214.08,-1513.49 214.08,-1573.49 1234.08,-1573.49 1234.08,-1513.49 214.08,-1513.49"/>
<polygon fill="none" stroke="#29235c" points="214.08,-1513.49 214.08,-1573.49 1234.08,-1573.49 1234.08,-1513.49 214.08,-1513.49"/>
<text text-anchor="start" x="225.08" y="-1533.69" font-family="Helvetica,sans-Serif" font-size="32.00" fill="#29235c">bankruptcies_enterprises &#160;&#160;&#160;</text>
<text text-anchor="start" x="1189.29" y="-1534.69" font-family="Helvetica,sans-Serif" font-style="italic" font-size="32.00" fill="#29235c">int</text>
<polygon fill="#e7e2dd" stroke="transparent" points="214.08,-1453.49 214.08,-1513.49 1234.08,-1513.49 1234.08,-1453.49 214.08,-1453.49"/>
<polygon fill="none" stroke="#29235c" points="214.08,-1453.49 214.08,-1513.49 1234.08,-1513.49 1234.08,-1453.49 214.08,-1453.49"/>
<text text-anchor="start" x="225.08" y="-1473.69" font-family="Helvetica,sans-Serif" font-size="32.00" fill="#29235c">bankruptcies_employees &#160;&#160;&#160;</text>
<text text-anchor="start" x="1189.29" y="-1474.69" font-family="Helvetica,sans-Serif" font-style="italic" font-size="32.00" fill="#29235c">int</text>
<polygon fill="#e7e2dd" stroke="transparent" points="214.08,-1393.49 214.08,-1453.49 1234.08,-1453.49 1234.08,-1393.49 214.08,-1393.49"/>
<polygon fill="none" stroke="#29235c" points="214.08,-1393.49 214.08,-1453.49 1234.08,-1453.49 1234.08,-1393.49 214.08,-1393.49"/>
<text text-anchor="start" x="225.08" y="-1413.69" font-family="Helvetica,sans-Serif" font-size="32.00" fill="#29235c">municipality_total_bankruptcies_enterprises &#160;&#160;&#160;</text>
<text text-anchor="start" x="1189.29" y="-1414.69" font-family="Helvetica,sans-Serif" font-style="italic" font-size="32.00" fill="#29235c">int</text>
<polygon fill="#e7e2dd" stroke="transparent" points="214.08,-1333.49 214.08,-1393.49 1234.08,-1393.49 1234.08,-1333.49 214.08,-1333.49"/>
<polygon fill="none" stroke="#29235c" points="214.08,-1333.49 214.08,-1393.49 1234.08,-1393.49 1234.08,-1333.49 214.08,-1333.49"/>
<text text-anchor="start" x="225.08" y="-1353.69" font-family="Helvetica,sans-Serif" font-size="32.00" fill="#29235c">national_industry_bankruptcies_enterprises &#160;&#160;&#160;</text>
<text text-anchor="start" x="1189.29" y="-1354.69" font-family="Helvetica,sans-Serif" font-style="italic" font-size="32.00" fill="#29235c">int</text>
<polygon fill="#e7e2dd" stroke="transparent" points="214.08,-1273.49 214.08,-1333.49 1234.08,-1333.49 1234.08,-1273.49 214.08,-1273.49"/>
<polygon fill="none" stroke="#29235c" points="214.08,-1273.49 214.08,-1333.49 1234.08,-1333.49 1234.08,-1273.49 214.08,-1273.49"/>
<text text-anchor="start" x="225.08" y="-1293.69" font-family="Helvetica,sans-Serif" font-size="32.00" fill="#29235c">national_total_bankruptcies_enterprises &#160;&#160;&#160;</text>
<text text-anchor="start" x="1189.29" y="-1294.69" font-family="Helvetica,sans-Serif" font-style="italic" font-size="32.00" fill="#29235c">int</text>
<polygon fill="#e7e2dd" stroke="transparent" points="214.08,-1213.49 214.08,-1273.49 1234.08,-1273.49 1234.08,-1213.49 214.08,-1213.49"/>
<polygon fill="none" stroke="#29235c" points="214.08,-1213.49 214.08,-1273.49 1234.08,-1273.49 1234.08,-1213.49 214.08,-1213.49"/>
<text text-anchor="start" x="225.08" y="-1233.69" font-family="Helvetica,sans-Serif" font-size="32.00" fill="#29235c">municipality_total_bankruptcies_employees &#160;&#160;&#160;</text>
<text text-anchor="start" x="1189.29" y="-1234.69" font-family="Helvetica,sans-Serif" font-style="italic" font-size="32.00" fill="#29235c">int</text>
<polygon fill="#e7e2dd" stroke="transparent" points="214.08,-1153.49 214.08,-1213.49 1234.08,-1213.49 1234.08,-1153.49 214.08,-1153.49"/>
<polygon fill="none" stroke="#29235c" points="214.08,-1153.49 214.08,-1213.49 1234.08,-1213.49 1234.08,-1153.49 214.08,-1153.49"/>
<text text-anchor="start" x="225.08" y="-1173.69" font-family="Helvetica,sans-Serif" font-size="32.00" fill="#29235c">national_industry_bankruptcies_employees &#160;&#160;&#160;</text>
<text text-anchor="start" x="1189.29" y="-1174.69" font-family="Helvetica,sans-Serif" font-style="italic" font-size="32.00" fill="#29235c">int</text>
<polygon fill="#e7e2dd" stroke="transparent" points="214.08,-1093.49 214.08,-1153.49 1234.08,-1153.49 1234.08,-1093.49 214.08,-1093.49"/>
<polygon fill="none" stroke="#29235c" points="214.08,-1093.49 214.08,-1153.49 1234.08,-1153.49 1234.08,-1093.49 214.08,-1093.49"/>
<text text-anchor="start" x="225.08" y="-1113.69" font-family="Helvetica,sans-Serif" font-size="32.00" fill="#29235c">national_total_bankruptcies_employees &#160;&#160;&#160;</text>
<text text-anchor="start" x="1189.29" y="-1114.69" font-family="Helvetica,sans-Serif" font-style="italic" font-size="32.00" fill="#29235c">int</text>
<polygon fill="#e7e2dd" stroke="transparent" points="214.08,-1033.49 214.08,-1093.49 1234.08,-1093.49 1234.08,-1033.49 214.08,-1033.49"/>
<polygon fill="none" stroke="#29235c" points="214.08,-1033.49 214.08,-1093.49 1234.08,-1093.49 1234.08,-1033.49 214.08,-1033.49"/>
<text text-anchor="start" x="225.08" y="-1053.69" font-family="Helvetica,sans-Serif" font-size="32.00" fill="#29235c">municipality_industry_bankruptcy_share_pct &#160;&#160;&#160;</text>
<text text-anchor="start" x="1029.29" y="-1054.69" font-family="Helvetica,sans-Serif" font-style="italic" font-size="32.00" fill="#29235c">decimal(10,2)</text>
<polygon fill="#e7e2dd" stroke="transparent" points="214.08,-973.49 214.08,-1033.49 1234.08,-1033.49 1234.08,-973.49 214.08,-973.49"/>
<polygon fill="none" stroke="#29235c" points="214.08,-973.49 214.08,-1033.49 1234.08,-1033.49 1234.08,-973.49 214.08,-973.49"/>
<text text-anchor="start" x="225.08" y="-993.69" font-family="Helvetica,sans-Serif" font-size="32.00" fill="#29235c">national_industry_bankruptcy_share_pct &#160;&#160;&#160;</text>
<text text-anchor="start" x="1029.29" y="-994.69" font-family="Helvetica,sans-Serif" font-style="italic" font-size="32.00" fill="#29235c">decimal(10,2)</text>
<polygon fill="#e7e2dd" stroke="transparent" points="214.08,-913.49 214.08,-973.49 1234.08,-973.49 1234.08,-913.49 214.08,-913.49"/>
<polygon fill="none" stroke="#29235c" points="214.08,-913.49 214.08,-973.49 1234.08,-973.49 1234.08,-913.49 214.08,-913.49"/>
<text text-anchor="start" x="224.82" y="-933.69" font-family="Helvetica,sans-Serif" font-size="32.00" fill="#29235c">municipality_industry_bankrupt_employees_share_pct &#160;&#160;&#160;</text>
<text text-anchor="start" x="1029.68" y="-934.69" font-family="Helvetica,sans-Serif" font-style="italic" font-size="32.00" fill="#29235c">decimal(10,2)</text>
<polygon fill="#e7e2dd" stroke="transparent" points="214.08,-853.49 214.08,-913.49 1234.08,-913.49 1234.08,-853.49 214.08,-853.49"/>
<polygon fill="none" stroke="#29235c" points="214.08,-853.49 214.08,-913.49 1234.08,-913.49 1234.08,-853.49 214.08,-853.49"/>
<text text-anchor="start" x="225.08" y="-873.69" font-family="Helvetica,sans-Serif" font-size="32.00" fill="#29235c">national_industry_bankrupt_employees_share_pct &#160;&#160;&#160;</text>
<text text-anchor="start" x="1029.29" y="-874.69" font-family="Helvetica,sans-Serif" font-style="italic" font-size="32.00" fill="#29235c">decimal(10,2)</text>
<polygon fill="#e7e2dd" stroke="transparent" points="214.08,-793.49 214.08,-853.49 1234.08,-853.49 1234.08,-793.49 214.08,-793.49"/>
<polygon fill="none" stroke="#29235c" points="214.08,-793.49 214.08,-853.49 1234.08,-853.49 1234.08,-793.49 214.08,-793.49"/>
<text text-anchor="start" x="225.08" y="-813.69" font-family="Helvetica,sans-Serif" font-size="32.00" fill="#29235c">bankruptcy_specialization_lq &#160;&#160;&#160;</text>
<text text-anchor="start" x="1029.29" y="-814.69" font-family="Helvetica,sans-Serif" font-style="italic" font-size="32.00" fill="#29235c">decimal(10,3)</text>
<polygon fill="#e7e2dd" stroke="transparent" points="214.08,-733.49 214.08,-793.49 1234.08,-793.49 1234.08,-733.49 214.08,-733.49"/>
<polygon fill="none" stroke="#29235c" points="214.08,-733.49 214.08,-793.49 1234.08,-793.49 1234.08,-733.49 214.08,-733.49"/>
<text text-anchor="start" x="225.08" y="-753.69" font-family="Helvetica,sans-Serif" font-size="32.00" fill="#29235c">bankruptcy_employee_specialization_lq &#160;&#160;&#160;</text>
<text text-anchor="start" x="1029.29" y="-754.69" font-family="Helvetica,sans-Serif" font-style="italic" font-size="32.00" fill="#29235c">decimal(10,3)</text>
<polygon fill="#e7e2dd" stroke="transparent" points="214.08,-673.49 214.08,-733.49 1234.08,-733.49 1234.08,-673.49 214.08,-673.49"/>
<polygon fill="none" stroke="#29235c" points="214.08,-673.49 214.08,-733.49 1234.08,-733.49 1234.08,-673.49 214.08,-673.49"/>
<text text-anchor="start" x="225.08" y="-693.69" font-family="Helvetica,sans-Serif" font-size="32.00" fill="#29235c">specialization_gap_pct_points &#160;&#160;&#160;</text>
<text text-anchor="start" x="1029.29" y="-694.69" font-family="Helvetica,sans-Serif" font-style="italic" font-size="32.00" fill="#29235c">decimal(10,2)</text>
<polygon fill="#e7e2dd" stroke="transparent" points="214.08,-613.49 214.08,-673.49 1234.08,-673.49 1234.08,-613.49 214.08,-613.49"/>
<polygon fill="none" stroke="#29235c" points="214.08,-613.49 214.08,-673.49 1234.08,-673.49 1234.08,-613.49 214.08,-613.49"/>
<text text-anchor="start" x="225.08" y="-633.69" font-family="Helvetica,sans-Serif" font-size="32.00" fill="#29235c">yoy_bankruptcy_specialization_lq_pct &#160;&#160;&#160;</text>
<text text-anchor="start" x="1029.29" y="-634.69" font-family="Helvetica,sans-Serif" font-style="italic" font-size="32.00" fill="#29235c">decimal(10,2)</text>
<polygon fill="#e7e2dd" stroke="transparent" points="214.08,-553.49 214.08,-613.49 1234.08,-613.49 1234.08,-553.49 214.08,-553.49"/>
<polygon fill="none" stroke="#29235c" points="214.08,-553.49 214.08,-613.49 1234.08,-613.49 1234.08,-553.49 214.08,-553.49"/>
<text text-anchor="start" x="225.08" y="-573.69" font-family="Helvetica,sans-Serif" font-size="32.00" fill="#29235c">rolling_3y_avg_specialization_lq &#160;&#160;&#160;</text>
<text text-anchor="start" x="1029.29" y="-574.69" font-family="Helvetica,sans-Serif" font-style="italic" font-size="32.00" fill="#29235c">decimal(10,3)</text>
<polygon fill="#e7e2dd" stroke="transparent" points="214.08,-493.49 214.08,-553.49 1234.08,-553.49 1234.08,-493.49 214.08,-493.49"/>
<polygon fill="none" stroke="#29235c" points="214.08,-493.49 214.08,-553.49 1234.08,-553.49 1234.08,-493.49 214.08,-493.49"/>
<text text-anchor="start" x="225.08" y="-513.69" font-family="Helvetica,sans-Serif" font-size="32.00" fill="#29235c">specialization_ntile &#160;&#160;&#160;</text>
<text text-anchor="start" x="1189.29" y="-514.69" font-family="Helvetica,sans-Serif" font-style="italic" font-size="32.00" fill="#29235c">int</text>
<polygon fill="#e7e2dd" stroke="transparent" points="214.08,-433.49 214.08,-493.49 1234.08,-493.49 1234.08,-433.49 214.08,-433.49"/>
<polygon fill="none" stroke="#29235c" points="214.08,-433.49 214.08,-493.49 1234.08,-493.49 1234.08,-433.49 214.08,-433.49"/>
<text text-anchor="start" x="225.08" y="-453.69" font-family="Helvetica,sans-Serif" font-size="32.00" fill="#29235c">specialization_support_class &#160;&#160;&#160;</text>
<text text-anchor="start" x="1116.41" y="-454.69" font-family="Helvetica,sans-Serif" font-style="italic" font-size="32.00" fill="#29235c">varchar</text>
<polygon fill="#e7e2dd" stroke="transparent" points="214.08,-373.49 214.08,-433.49 1234.08,-433.49 1234.08,-373.49 214.08,-373.49"/>
<polygon fill="none" stroke="#29235c" points="214.08,-373.49 214.08,-433.49 1234.08,-433.49 1234.08,-373.49 214.08,-373.49"/>
<text text-anchor="start" x="225.08" y="-393.69" font-family="Helvetica,sans-Serif" font-size="32.00" fill="#29235c">specialization_class &#160;&#160;&#160;</text>
<text text-anchor="start" x="1116.41" y="-394.69" font-family="Helvetica,sans-Serif" font-style="italic" font-size="32.00" fill="#29235c">varchar</text>
<polygon fill="#e7e2dd" stroke="transparent" points="214.08,-313.49 214.08,-373.49 1234.08,-373.49 1234.08,-313.49 214.08,-313.49"/>
<polygon fill="none" stroke="#29235c" points="214.08,-313.49 214.08,-373.49 1234.08,-373.49 1234.08,-313.49 214.08,-313.49"/>
<text text-anchor="start" x="225.08" y="-333.69" font-family="Helvetica,sans-Serif" font-size="32.00" fill="#29235c">specialization_absolute_class &#160;&#160;&#160;</text>
<text text-anchor="start" x="1116.41" y="-334.69" font-family="Helvetica,sans-Serif" font-style="italic" font-size="32.00" fill="#29235c">varchar</text>
<polygon fill="none" stroke="#29235c" stroke-width="2" points="213.08,-312.49 213.08,-1814.49 1235.08,-1814.49 1235.08,-312.49 213.08,-312.49"/>
</g>
<!-- fact_industry_bankruptcy_specialization&#45;&gt;dim_year -->
<!-- fact_industry_bankruptcy_specialization&#45;&gt;dim_year -->
<g id="edge2" class="edge">
<title>fact_industry_bankruptcy_specialization:e&#45;&gt;dim_year:w</title>
<path fill="none" stroke="#29235c" stroke-width="3" d="M1235.08,-1723.49C1463.79,-1723.49 1445.68,-1993.4 1667.16,-2001.31"/>
<polygon fill="#29235c" stroke="#29235c" stroke-width="3" points="1667.14,-2004.81 1677.2,-2001.49 1667.27,-1997.81 1667.14,-2004.81"/>
<text text-anchor="middle" x="1668.31" y="-2011.09" font-family="Helvetica,sans-Serif" font-size="32.00" fill="#29235c">1</text>
<text text-anchor="middle" x="1228.85" y="-1733.09" font-family="Helvetica,sans-Serif" font-size="32.00" fill="#29235c">*</text>
</g>
<!-- fact_industry_bankruptcy_specialization&#45;&gt;dim_municipality -->
<!-- fact_industry_bankruptcy_specialization&#45;&gt;dim_municipality -->
<g id="edge4" class="edge">
<title>fact_industry_bankruptcy_specialization:e&#45;&gt;dim_municipality:w</title>
<path fill="none" stroke="#29235c" stroke-width="3" d="M1235.08,-1663.49C1388.55,-1663.49 1424.6,-1720.82 1572.81,-1723.4"/>
<polygon fill="#29235c" stroke="#29235c" stroke-width="3" points="1573.17,-1726.9 1583.2,-1723.49 1573.23,-1719.9 1573.17,-1726.9"/>
<text text-anchor="middle" x="1574.31" y="-1733.09" font-family="Helvetica,sans-Serif" font-size="32.00" fill="#29235c">1</text>
<text text-anchor="middle" x="1228.85" y="-1673.09" font-family="Helvetica,sans-Serif" font-size="32.00" fill="#29235c">*</text>
</g>
<!-- fact_industry_bankruptcy_specialization&#45;&gt;dim_industry -->
<!-- fact_industry_bankruptcy_specialization&#45;&gt;dim_industry -->
<g id="edge6" class="edge">
<title>fact_industry_bankruptcy_specialization:e&#45;&gt;dim_industry:w</title>
<path fill="none" stroke="#29235c" stroke-width="3" d="M1235.08,-1603.49C1412.54,-1603.49 1428.73,-1451.45 1600.05,-1445.66"/>
<polygon fill="#29235c" stroke="#29235c" stroke-width="3" points="1600.26,-1449.16 1610.2,-1445.49 1600.14,-1442.16 1600.26,-1449.16"/>
<text text-anchor="middle" x="1601.31" y="-1455.09" font-family="Helvetica,sans-Serif" font-size="32.00" fill="#29235c">1</text>
<text text-anchor="middle" x="1228.85" y="-1613.09" font-family="Helvetica,sans-Serif" font-size="32.00" fill="#29235c">*</text>
</g>
</g>
</svg>
