<?xml version="1.0" encoding="UTF-8" standalone="no"?>
<!DOCTYPE svg PUBLIC "-//W3C//DTD SVG 1.1//EN"
 "http://www.w3.org/Graphics/SVG/1.1/DTD/svg11.dtd">
<!-- Generated by graphviz version 2.47.0 (20210316.0004)
 -->
<!-- Title: dbml Pages: 1 -->
<svg width="1798pt" height="1541pt"
 viewBox="0.00 0.00 1797.62 1541.01" xmlns="http://www.w3.org/2000/svg" xmlns:xlink="http://www.w3.org/1999/xlink">
<g id="graph0" class="graph" transform="scale(1 1) rotate(0) translate(4 1537.01)">
<title>dbml</title>
<!-- dim_year -->
<g id="dim_year" class="node">
<title>dim_year</title>
<ellipse fill="none" stroke="black" stroke-width="0" cx="1456.58" cy="-1325.5" rx="199.31" ry="130.22"/>
<polygon fill="#1d71b8" stroke="transparent" points="1317.58,-1355.5 1317.58,-1415.5 1595.58,-1415.5 1595.58,-1355.5 1317.58,-1355.5"/>
<polygon fill="none" stroke="#29235c" points="1317.58,-1355.5 1317.58,-1415.5 1595.58,-1415.5 1595.58,-1355.5 1317.58,-1355.5"/>
<text text-anchor="start" x="1328.55" y="-1376.7" font-family="Helvetica,sans-Serif" font-weight="bold" font-size="32.00" fill="#ffffff"> &#160;&#160;&#160;&#160;&#160;&#160;dim_year &#160;&#160;&#160;&#160;&#160;&#160;</text>
<polygon fill="#e7e2dd" stroke="transparent" points="1317.58,-1295.5 1317.58,-1355.5 1595.58,-1355.5 1595.58,-1295.5 1317.58,-1295.5"/>
<polygon fill="none" stroke="#29235c" points="1317.58,-1295.5 1317.58,-1355.5 1595.58,-1355.5 1595.58,-1295.5 1317.58,-1295.5"/>
<text text-anchor="start" x="1328.58" y="-1316.7" font-family="Helvetica,sans-Serif" font-weight="bold" font-size="32.00" fill="#29235c">year_id</text>
<text text-anchor="start" x="1433.49" y="-1316.7" font-family="Helvetica,sans-Serif" font-size="32.00" fill="#29235c"> &#160;&#160;&#160;</text>
<text text-anchor="start" x="1550.8" y="-1316.7" font-family="Helvetica,sans-Serif" font-style="italic" font-size="32.00" fill="#29235c">int</text>
<polygon fill="#e7e2dd" stroke="transparent" points="1317.58,-1235.5 1317.58,-1295.5 1595.58,-1295.5 1595.58,-1235.5 1317.58,-1235.5"/>
<polygon fill="none" stroke="#29235c" points="1317.58,-1235.5 1317.58,-1295.5 1595.58,-1295.5 1595.58,-1235.5 1317.58,-1235.5"/>
<text text-anchor="start" x="1328.58" y="-1255.7" font-family="Helvetica,sans-Serif" font-size="32.00" fill="#29235c">year &#160;&#160;&#160;</text>
<text text-anchor="start" x="1511.7" y="-1256.7" font-family="Helvetica,sans-Serif" font-style="italic" font-size="32.00" fill="#29235c">int</text>
<text text-anchor="start" x="1545.49" y="-1256.7" font-family="Helvetica,sans-Serif" font-size="32.00" fill="#29235c"> </text>
<text text-anchor="start" x="1554.38" y="-1256.7" font-family="Helvetica,sans-Serif" font-weight="bold" font-size="32.00" fill="#29235c">(!)</text>
<polygon fill="none" stroke="#29235c" stroke-width="2" points="1316.58,-1234.5 1316.58,-1416.5 1596.58,-1416.5 1596.58,-1234.5 1316.58,-1234.5"/>
</g>
<!-- dim_municipality -->
<g id="dim_municipality" class="node">
<title>dim_municipality</title>
<ellipse fill="none" stroke="black" stroke-width="0" cx="1456.58" cy="-1047.5" rx="333.09" ry="130.22"/>
<polygon fill="#1d71b8" stroke="transparent" points="1223.58,-1077.5 1223.58,-1137.5 1690.58,-1137.5 1690.58,-1077.5 1223.58,-1077.5"/>
<polygon fill="none" stroke="#29235c" points="1223.58,-1077.5 1223.58,-1137.5 1690.58,-1137.5 1690.58,-1077.5 1223.58,-1077.5"/>
<text text-anchor="start" x="1276.61" y="-1098.7" font-family="Helvetica,sans-Serif" font-weight="bold" font-size="32.00" fill="#ffffff"> &#160;&#160;&#160;&#160;&#160;&#160;dim_municipality &#160;&#160;&#160;&#160;&#160;&#160;</text>
<polygon fill="#e7e2dd" stroke="transparent" points="1223.58,-1017.5 1223.58,-1077.5 1690.58,-1077.5 1690.58,-1017.5 1223.58,-1017.5"/>
<polygon fill="none" stroke="#29235c" points="1223.58,-1017.5 1223.58,-1077.5 1690.58,-1077.5 1690.58,-1017.5 1223.58,-1017.5"/>
<text text-anchor="start" x="1234.58" y="-1038.7" font-family="Helvetica,sans-Serif" font-weight="bold" font-size="32.00" fill="#29235c">municipality_id</text>
<text text-anchor="start" x="1444.36" y="-1038.7" font-family="Helvetica,sans-Serif" font-size="32.00" fill="#29235c"> &#160;&#160;&#160;</text>
<text text-anchor="start" x="1516.02" y="-1038.7" font-family="Helvetica,sans-Serif" font-style="italic" font-size="32.00" fill="#29235c">varchar(32)</text>
<polygon fill="#e7e2dd" stroke="transparent" points="1223.58,-957.5 1223.58,-1017.5 1690.58,-1017.5 1690.58,-957.5 1223.58,-957.5"/>
<polygon fill="none" stroke="#29235c" points="1223.58,-957.5 1223.58,-1017.5 1690.58,-1017.5 1690.58,-957.5 1223.58,-957.5"/>
<text text-anchor="start" x="1234.34" y="-977.7" font-family="Helvetica,sans-Serif" font-size="32.00" fill="#29235c">municipality_name &#160;&#160;&#160;</text>
<text text-anchor="start" x="1534.2" y="-978.7" font-family="Helvetica,sans-Serif" font-style="italic" font-size="32.00" fill="#29235c">varchar</text>
<text text-anchor="start" x="1640.87" y="-978.7" font-family="Helvetica,sans-Serif" font-size="32.00" fill="#29235c"> </text>
<text text-anchor="start" x="1649.76" y="-978.7" font-family="Helvetica,sans-Serif" font-weight="bold" font-size="32.00" fill="#29235c">(!)</text>
<polygon fill="none" stroke="#29235c" stroke-width="2" points="1222.08,-956.5 1222.08,-1138.5 1691.08,-1138.5 1691.08,-956.5 1222.08,-956.5"/>
</g>
<!-- fact_municipality_business_dynamics -->
<g id="fact_municipality_business_dynamics" class="node">
<title>fact_municipality_business_dynamics</title>
<ellipse fill="none" stroke="black" stroke-width="0" cx="543.77" cy="-766.5" rx="543.53" ry="766.51"/>
<polygon fill="#1d71b8" stroke="transparent" points="161.77,-1246.5 161.77,-1306.5 926.77,-1306.5 926.77,-1246.5 161.77,-1246.5"/>
<polygon fill="none" stroke="#29235c" points="161.77,-1246.5 161.77,-1306.5 926.77,-1306.5 926.77,-1246.5 161.77,-1246.5"/>
<text text-anchor="start" x="215.31" y="-1267.7" font-family="Helvetica,sans-Serif" font-weight="bold" font-size="32.00" fill="#ffffff"> &#160;&#160;&#160;&#160;&#160;&#160;fact_municipality_business_dynamics &#160;&#160;&#160;&#160;&#160;&#160;</text>
<polygon fill="#e7e2dd" stroke="transparent" points="161.77,-1186.5 161.77,-1246.5 926.77,-1246.5 926.77,-1186.5 161.77,-1186.5"/>
<polygon fill="none" stroke="#29235c" points="161.77,-1186.5 161.77,-1246.5 926.77,-1246.5 926.77,-1186.5 161.77,-1186.5"/>
<text text-anchor="start" x="172.77" y="-1206.7" font-family="Helvetica,sans-Serif" font-size="32.00" fill="#29235c">year_id &#160;&#160;&#160;</text>
<text text-anchor="start" x="842.89" y="-1207.7" font-family="Helvetica,sans-Serif" font-style="italic" font-size="32.00" fill="#29235c">int</text>
<text text-anchor="start" x="876.67" y="-1207.7" font-family="Helvetica,sans-Serif" font-size="32.00" fill="#29235c"> </text>
<text text-anchor="start" x="885.57" y="-1207.7" font-family="Helvetica,sans-Serif" font-weight="bold" font-size="32.00" fill="#29235c">(!)</text>
<polygon fill="#e7e2dd" stroke="transparent" points="161.77,-1126.5 161.77,-1186.5 926.77,-1186.5 926.77,-1126.5 161.77,-1126.5"/>
<polygon fill="none" stroke="#29235c" points="161.77,-1126.5 161.77,-1186.5 926.77,-1186.5 926.77,-1126.5 161.77,-1126.5"/>
<text text-anchor="start" x="172.77" y="-1146.7" font-family="Helvetica,sans-Serif" font-size="32.00" fill="#29235c">municipality_id &#160;&#160;&#160;</text>
<text text-anchor="start" x="713.12" y="-1147.7" font-family="Helvetica,sans-Serif" font-style="italic" font-size="32.00" fill="#29235c">varchar(32)</text>
<text text-anchor="start" x="876.67" y="-1147.7" font-family="Helvetica,sans-Serif" font-size="32.00" fill="#29235c"> </text>
<text text-anchor="start" x="885.57" y="-1147.7" font-family="Helvetica,sans-Serif" font-weight="bold" font-size="32.00" fill="#29235c">(!)</text>
<polygon fill="#e7e2dd" stroke="transparent" points="161.77,-1066.5 161.77,-1126.5 926.77,-1126.5 926.77,-1066.5 161.77,-1066.5"/>
<polygon fill="none" stroke="#29235c" points="161.77,-1066.5 161.77,-1126.5 926.77,-1126.5 926.77,-1066.5 161.77,-1066.5"/>
<text text-anchor="start" x="172.77" y="-1086.7" font-family="Helvetica,sans-Serif" font-size="32.00" fill="#29235c">establishments_count &#160;&#160;&#160;</text>
<text text-anchor="start" x="881.98" y="-1087.7" font-family="Helvetica,sans-Serif" font-style="italic" font-size="32.00" fill="#29235c">int</text>
<polygon fill="#e7e2dd" stroke="transparent" points="161.77,-1006.5 161.77,-1066.5 926.77,-1066.5 926.77,-1006.5 161.77,-1006.5"/>
<polygon fill="none" stroke="#29235c" points="161.77,-1006.5 161.77,-1066.5 926.77,-1066.5 926.77,-1006.5 161.77,-1006.5"/>
<text text-anchor="start" x="172.77" y="-1026.7" font-family="Helvetica,sans-Serif" font-size="32.00" fill="#29235c">personnel_staff_years &#160;&#160;&#160;</text>
<text text-anchor="start" x="819.72" y="-1027.7" font-family="Helvetica,sans-Serif" font-style="italic" font-size="32.00" fill="#29235c">double</text>
<polygon fill="#e7e2dd" stroke="transparent" points="161.77,-946.5 161.77,-1006.5 926.77,-1006.5 926.77,-946.5 161.77,-946.5"/>
<polygon fill="none" stroke="#29235c" points="161.77,-946.5 161.77,-1006.5 926.77,-1006.5 926.77,-946.5 161.77,-946.5"/>
<text text-anchor="start" x="172.77" y="-966.7" font-family="Helvetica,sans-Serif" font-size="32.00" fill="#29235c">population &#160;&#160;&#160;</text>
<text text-anchor="start" x="881.98" y="-967.7" font-family="Helvetica,sans-Serif" font-style="italic" font-size="32.00" fill="#29235c">int</text>
<polygon fill="#e7e2dd" stroke="transparent" points="161.77,-886.5 161.77,-946.5 926.77,-946.5 926.77,-886.5 161.77,-886.5"/>
<polygon fill="none" stroke="#29235c" points="161.77,-886.5 161.77,-946.5 926.77,-946.5 926.77,-886.5 161.77,-886.5"/>
<text text-anchor="start" x="172.77" y="-906.7" font-family="Helvetica,sans-Serif" font-size="32.00" fill="#29235c">establishments_per_1000_population &#160;&#160;&#160;</text>
<text text-anchor="start" x="819.72" y="-907.7" font-family="Helvetica,sans-Serif" font-style="italic" font-size="32.00" fill="#29235c">double</text>
<polygon fill="#e7e2dd" stroke="transparent" points="161.77,-826.5 161.77,-886.5 926.77,-886.5 926.77,-826.5 161.77,-826.5"/>
<polygon fill="none" stroke="#29235c" points="161.77,-826.5 161.77,-886.5 926.77,-886.5 926.77,-826.5 161.77,-826.5"/>
<text text-anchor="start" x="172.77" y="-846.7" font-family="Helvetica,sans-Serif" font-size="32.00" fill="#29235c">personnel_per_1000_population &#160;&#160;&#160;</text>
<text text-anchor="start" x="819.72" y="-847.7" font-family="Helvetica,sans-Serif" font-style="italic" font-size="32.00" fill="#29235c">double</text>
<polygon fill="#e7e2dd" stroke="transparent" points="161.77,-766.5 161.77,-826.5 926.77,-826.5 926.77,-766.5 161.77,-766.5"/>
<polygon fill="none" stroke="#29235c" points="161.77,-766.5 161.77,-826.5 926.77,-826.5 926.77,-766.5 161.77,-766.5"/>
<text text-anchor="start" x="172.77" y="-786.7" font-family="Helvetica,sans-Serif" font-size="32.00" fill="#29235c">avg_personnel_per_establishment &#160;&#160;&#160;</text>
<text text-anchor="start" x="819.72" y="-787.7" font-family="Helvetica,sans-Serif" font-style="italic" font-size="32.00" fill="#29235c">double</text>
<polygon fill="#e7e2dd" stroke="transparent" points="161.77,-706.5 161.77,-766.5 926.77,-766.5 926.77,-706.5 161.77,-706.5"/>
<polygon fill="none" stroke="#29235c" points="161.77,-706.5 161.77,-766.5 926.77,-766.5 926.77,-706.5 161.77,-706.5"/>
<text text-anchor="start" x="172.77" y="-726.7" font-family="Helvetica,sans-Serif" font-size="32.00" fill="#29235c">establishments_yoy_change &#160;&#160;&#160;</text>
<text text-anchor="start" x="881.98" y="-727.7" font-family="Helvetica,sans-Serif" font-style="italic" font-size="32.00" fill="#29235c">int</text>
<polygon fill="#e7e2dd" stroke="transparent" points="161.77,-646.5 161.77,-706.5 926.77,-706.5 926.77,-646.5 161.77,-646.5"/>
<polygon fill="none" stroke="#29235c" points="161.77,-646.5 161.77,-706.5 926.77,-706.5 926.77,-646.5 161.77,-646.5"/>
<text text-anchor="start" x="172.77" y="-666.7" font-family="Helvetica,sans-Serif" font-size="32.00" fill="#29235c">establishments_yoy_pct &#160;&#160;&#160;</text>
<text text-anchor="start" x="819.72" y="-667.7" font-family="Helvetica,sans-Serif" font-style="italic" font-size="32.00" fill="#29235c">double</text>
<polygon fill="#e7e2dd" stroke="transparent" points="161.77,-586.5 161.77,-646.5 926.77,-646.5 926.77,-586.5 161.77,-586.5"/>
<polygon fill="none" stroke="#29235c" points="161.77,-586.5 161.77,-646.5 926.77,-646.5 926.77,-586.5 161.77,-586.5"/>
<text text-anchor="start" x="172.77" y="-606.7" font-family="Helvetica,sans-Serif" font-size="32.00" fill="#29235c">personnel_yoy_change &#160;&#160;&#160;</text>
<text text-anchor="start" x="819.72" y="-607.7" font-family="Helvetica,sans-Serif" font-style="italic" font-size="32.00" fill="#29235c">double</text>
<polygon fill="#e7e2dd" stroke="transparent" points="161.77,-526.5 161.77,-586.5 926.77,-586.5 926.77,-526.5 161.77,-526.5"/>
<polygon fill="none" stroke="#29235c" points="161.77,-526.5 161.77,-586.5 926.77,-586.5 926.77,-526.5 161.77,-526.5"/>
<text text-anchor="start" x="172.77" y="-546.7" font-family="Helvetica,sans-Serif" font-size="32.00" fill="#29235c">personnel_yoy_pct &#160;&#160;&#160;</text>
<text text-anchor="start" x="819.72" y="-547.7" font-family="Helvetica,sans-Serif" font-style="italic" font-size="32.00" fill="#29235c">double</text>
<polygon fill="#e7e2dd" stroke="transparent" points="161.77,-466.5 161.77,-526.5 926.77,-526.5 926.77,-466.5 161.77,-466.5"/>
<polygon fill="none" stroke="#29235c" points="161.77,-466.5 161.77,-526.5 926.77,-526.5 926.77,-466.5 161.77,-466.5"/>
<text text-anchor="start" x="172.77" y="-486.7" font-family="Helvetica,sans-Serif" font-size="32.00" fill="#29235c">population_yoy_change &#160;&#160;&#160;</text>
<text text-anchor="start" x="881.98" y="-487.7" font-family="Helvetica,sans-Serif" font-style="italic" font-size="32.00" fill="#29235c">int</text>
<polygon fill="#e7e2dd" stroke="transparent" points="161.77,-406.5 161.77,-466.5 926.77,-466.5 926.77,-406.5 161.77,-406.5"/>
<polygon fill="none" stroke="#29235c" points="161.77,-406.5 161.77,-466.5 926.77,-466.5 926.77,-406.5 161.77,-406.5"/>
<text text-anchor="start" x="172.77" y="-426.7" font-family="Helvetica,sans-Serif" font-size="32.00" fill="#29235c">population_yoy_pct &#160;&#160;&#160;</text>
<text text-anchor="start" x="819.72" y="-427.7" font-family="Helvetica,sans-Serif" font-style="italic" font-size="32.00" fill="#29235c">double</text>
<polygon fill="#e7e2dd" stroke="transparent" points="161.77,-346.5 161.77,-406.5 926.77,-406.5 926.77,-346.5 161.77,-346.5"/>
<polygon fill="none" stroke="#29235c" points="161.77,-346.5 161.77,-406.5 926.77,-406.5 926.77,-346.5 161.77,-346.5"/>
<text text-anchor="start" x="172.63" y="-366.7" font-family="Helvetica,sans-Serif" font-size="32.00" fill="#29235c">rolling_3y_avg_establishments_growth_pct &#160;&#160;&#160;</text>
<text text-anchor="start" x="819.74" y="-367.7" font-family="Helvetica,sans-Serif" font-style="italic" font-size="32.00" fill="#29235c">double</text>
<polygon fill="#e7e2dd" stroke="transparent" points="161.77,-286.5 161.77,-346.5 926.77,-346.5 926.77,-286.5 161.77,-286.5"/>
<polygon fill="none" stroke="#29235c" points="161.77,-286.5 161.77,-346.5 926.77,-346.5 926.77,-286.5 161.77,-286.5"/>
<text text-anchor="start" x="172.77" y="-306.7" font-family="Helvetica,sans-Serif" font-size="32.00" fill="#29235c">business_density_class &#160;&#160;&#160;</text>
<text text-anchor="start" x="809.09" y="-307.7" font-family="Helvetica,sans-Serif" font-style="italic" font-size="32.00" fill="#29235c">varchar</text>
<polygon fill="#e7e2dd" stroke="transparent" points="161.77,-226.5 161.77,-286.5 926.77,-286.5 926.77,-226.5 161.77,-226.5"/>
<polygon fill="none" stroke="#29235c" points="161.77,-226.5 161.77,-286.5 926.77,-286.5 926.77,-226.5 161.77,-226.5"/>
<text text-anchor="start" x="172.77" y="-246.7" font-family="Helvetica,sans-Serif" font-size="32.00" fill="#29235c">growth_class &#160;&#160;&#160;</text>
<text text-anchor="start" x="809.09" y="-247.7" font-family="Helvetica,sans-Serif" font-style="italic" font-size="32.00" fill="#29235c">varchar</text>
<polygon fill="none" stroke="#29235c" stroke-width="2" points="160.27,-225.5 160.27,-1307.5 927.27,-1307.5 927.27,-225.5 160.27,-225.5"/>
</g>
<!-- fact_municipality_business_dynamics&#45;&gt;dim_year -->
<!-- fact_municipality_business_dynamics&#45;&gt;dim_year -->
<g id="edge2" class="edge">
<title>fact_municipality_business_dynamics:e&#45;&gt;dim_year:w</title>
<path fill="none" stroke="#29235c" stroke-width="3" d="M927.77,-1216.5C1103.82,-1216.5 1135.92,-1321.39 1306.49,-1325.39"/>
<polygon fill="#29235c" stroke="#29235c" stroke-width="3" points="1306.54,-1328.89 1316.58,-1325.5 1306.62,-1321.89 1306.54,-1328.89"/>
<text text-anchor="middle" x="1307.68" y="-1335.1" font-family="Helvetica,sans-Serif" font-size="32.00" fill="#29235c">1</text>
<text text-anchor="middle" x="933.99" y="-1226.1" font-family="Helvetica,sans-Serif" font-size="32.00" fill="#29235c">*</text>
</g>
<!-- fact_municipality_business_dynamics&#45;&gt;dim_municipality -->
<!-- fact_municipality_business_dynamics&#45;&gt;dim_municipality -->
<g id="edge4" class="edge">
<title>fact_municipality_business_dynamics:e&#45;&gt;dim_municipality:w</title>
<path fill="none" stroke="#29235c" stroke-width="3" d="M927.77,-1156.5C1064.05,-1156.5 1082.05,-1052.76 1212.56,-1047.7"/>
<polygon fill="#29235c" stroke="#29235c" stroke-width="3" points="1212.65,-1051.19 1222.58,-1047.5 1212.51,-1044.2 1212.65,-1051.19"/>
<text text-anchor="middle" x="1213.68" y="-1057.1" font-family="Helvetica,sans-Serif" font-size="32.00" fill="#29235c">1</text>
<text text-anchor="middle" x="933.99" y="-1166.1" font-family="Helvetica,sans-Serif" font-size="32.00" fill="#29235c">*</text>
</g>
</g>
</svg>
