<?xml version="1.0" encoding="UTF-8" standalone="no"?>
<!DOCTYPE svg PUBLIC "-//W3C//DTD SVG 1.1//EN"
 "http://www.w3.org/Graphics/SVG/1.1/DTD/svg11.dtd">
<!-- Generated by graphviz version 2.47.0 (20210316.0004)
 -->
<!-- Title: dbml Pages: 1 -->
<svg width="1929pt" height="2067pt"
 viewBox="0.00 0.00 1929.15 2067.17" xmlns="http://www.w3.org/2000/svg" xmlns:xlink="http://www.w3.org/1999/xlink">
<g id="graph0" class="graph" transform="scale(1 1) rotate(0) translate(4 2063.17)">
<title>dbml</title>
<!-- dim_year -->
<g id="dim_year" class="node">
<title>dim_year</title>
<ellipse fill="none" stroke="black" stroke-width="0" cx="1588.1" cy="-1929.06" rx="199.31" ry="130.22"/>
<polygon fill="#1d71b8" stroke="transparent" points="1449.1,-1959.06 1449.1,-2019.06 1727.1,-2019.06 1727.1,-1959.06 1449.1,-1959.06"/>
<polygon fill="none" stroke="#29235c" points="1449.1,-1959.06 1449.1,-2019.06 1727.1,-2019.06 1727.1,-1959.06 1449.1,-1959.06"/>
<text text-anchor="start" x="1460.07" y="-1980.26" font-family="Helvetica,sans-Serif" font-weight="bold" font-size="32.00" fill="#ffffff"> &#160;&#160;&#160;&#160;&#160;&#160;dim_year &#160;&#160;&#160;&#160;&#160;&#160;</text>
<polygon fill="#e7e2dd" stroke="transparent" points="1449.1,-1899.06 1449.1,-1959.06 1727.1,-1959.06 1727.1,-1899.06 1449.1,-1899.06"/>
<polygon fill="none" stroke="#29235c" points="1449.1,-1899.06 1449.1,-1959.06 1727.1,-1959.06 1727.1,-1899.06 1449.1,-1899.06"/>
<text text-anchor="start" x="1460.1" y="-1920.26" font-family="Helvetica,sans-Serif" font-weight="bold" font-size="32.00" fill="#29235c">year_id</text>
<text text-anchor="start" x="1565.01" y="-1920.26" font-family="Helvetica,sans-Serif" font-size="32.00" fill="#29235c"> &#160;&#160;&#160;</text>
<text text-anchor="start" x="1682.32" y="-1920.26" font-family="Helvetica,sans-Serif" font-style="italic" font-size="32.00" fill="#29235c">int</text>
<polygon fill="#e7e2dd" stroke="transparent" points="1449.1,-1839.06 1449.1,-1899.06 1727.1,-1899.06 1727.1,-1839.06 1449.1,-1839.06"/>
<polygon fill="none" stroke="#29235c" points="1449.1,-1839.06 1449.1,-1899.06 1727.1,-1899.06 1727.1,-1839.06 1449.1,-1839.06"/>
<text text-anchor="start" x="1460.1" y="-1859.26" font-family="Helvetica,sans-Serif" font-size="32.00" fill="#29235c">year &#160;&#160;&#160;</text>
<text text-anchor="start" x="1643.23" y="-1860.26" font-family="Helvetica,sans-Serif" font-style="italic" font-size="32.00" fill="#29235c">int</text>
<text text-anchor="start" x="1677.01" y="-1860.26" font-family="Helvetica,sans-Serif" font-size="32.00" fill="#29235c"> </text>
<text text-anchor="start" x="1685.9" y="-1860.26" font-family="Helvetica,sans-Serif" font-weight="bold" font-size="32.00" fill="#29235c">(!)</text>
<polygon fill="none" stroke="#29235c" stroke-width="2" points="1448.1,-1838.06 1448.1,-2020.06 1728.1,-2020.06 1728.1,-1838.06 1448.1,-1838.06"/>
</g>
<!-- dim_municipality -->
<g id="dim_municipality" class="node">
<title>dim_municipality</title>
<ellipse fill="none" stroke="black" stroke-width="0" cx="1588.1" cy="-1651.06" rx="333.09" ry="130.22"/>
<polygon fill="#1d71b8" stroke="transparent" points="1355.1,-1681.06 1355.1,-1741.06 1822.1,-1741.06 1822.1,-1681.06 1355.1,-1681.06"/>
<polygon fill="none" stroke="#29235c" points="1355.1,-1681.06 1355.1,-1741.06 1822.1,-1741.06 1822.1,-1681.06 1355.1,-1681.06"/>
<text text-anchor="start" x="1408.13" y="-1702.26" font-family="Helvetica,sans-Serif" font-weight="bold" font-size="32.00" fill="#ffffff"> &#160;&#160;&#160;&#160;&#160;&#160;dim_municipality &#160;&#160;&#160;&#160;&#160;&#160;</text>
<polygon fill="#e7e2dd" stroke="transparent" points="1355.1,-1621.06 1355.1,-1681.06 1822.1,-1681.06 1822.1,-1621.06 1355.1,-1621.06"/>
<polygon fill="none" stroke="#29235c" points="1355.1,-1621.06 1355.1,-1681.06 1822.1,-1681.06 1822.1,-1621.06 1355.1,-1621.06"/>
<text text-anchor="start" x="1366.1" y="-1642.26" font-family="Helvetica,sans-Serif" font-weight="bold" font-size="32.00" fill="#29235c">municipality_id</text>
<text text-anchor="start" x="1575.88" y="-1642.26" font-family="Helvetica,sans-Serif" font-size="32.00" fill="#29235c"> &#160;&#160;&#160;</text>
<text text-anchor="start" x="1647.54" y="-1642.26" font-family="Helvetica,sans-Serif" font-style="italic" font-size="32.00" fill="#29235c">varchar(32)</text>
<polygon fill="#e7e2dd" stroke="transparent" points="1355.1,-1561.06 1355.1,-1621.06 1822.1,-1621.06 1822.1,-1561.06 1355.1,-1561.06"/>
<polygon fill="none" stroke="#29235c" points="1355.1,-1561.06 1355.1,-1621.06 1822.1,-1621.06 1822.1,-1561.06 1355.1,-1561.06"/>
<text text-anchor="start" x="1365.86" y="-1581.26" font-family="Helvetica,sans-Serif" font-size="32.00" fill="#29235c">municipality_name &#160;&#160;&#160;</text>
<text text-anchor="start" x="1665.72" y="-1582.26" font-family="Helvetica,sans-Serif" font-style="italic" font-size="32.00" fill="#29235c">varchar</text>
<text text-anchor="start" x="1772.39" y="-1582.26" font-family="Helvetica,sans-Serif" font-size="32.00" fill="#29235c"> </text>
<text text-anchor="start" x="1781.28" y="-1582.26" font-family="Helvetica,sans-Serif" font-weight="bold" font-size="32.00" fill="#29235c">(!)</text>
<polygon fill="none" stroke="#29235c" stroke-width="2" points="1353.6,-1560.06 1353.6,-1742.06 1822.6,-1742.06 1822.6,-1560.06 1353.6,-1560.06"/>
</g>
<!-- dim_industry -->
<g id="dim_industry" class="node">
<title>dim_industry</title>
<ellipse fill="none" stroke="black" stroke-width="0" cx="1588.1" cy="-1373.06" rx="294.31" ry="130.22"/>
<polygon fill="#1d71b8" stroke="transparent" points="1382.1,-1403.06 1382.1,-1463.06 1794.1,-1463.06 1794.1,-1403.06 1382.1,-1403.06"/>
<polygon fill="none" stroke="#29235c" points="1382.1,-1403.06 1382.1,-1463.06 1794.1,-1463.06 1794.1,-1403.06 1382.1,-1403.06"/>
<text text-anchor="start" x="1435.18" y="-1424.26" font-family="Helvetica,sans-Serif" font-weight="bold" font-size="32.00" fill="#ffffff"> &#160;&#160;&#160;&#160;&#160;&#160;dim_industry &#160;&#160;&#160;&#160;&#160;&#160;</text>
<polygon fill="#e7e2dd" stroke="transparent" points="1382.1,-1343.06 1382.1,-1403.06 1794.1,-1403.06 1794.1,-1343.06 1382.1,-1343.06"/>
<polygon fill="none" stroke="#29235c" points="1382.1,-1343.06 1382.1,-1403.06 1794.1,-1403.06 1794.1,-1343.06 1382.1,-1343.06"/>
<text text-anchor="start" x="1393.1" y="-1364.26" font-family="Helvetica,sans-Serif" font-weight="bold" font-size="32.00" fill="#29235c">industry_id</text>
<text text-anchor="start" x="1547.79" y="-1364.26" font-family="Helvetica,sans-Serif" font-size="32.00" fill="#29235c"> &#160;&#160;&#160;</text>
<text text-anchor="start" x="1619.54" y="-1364.26" font-family="Helvetica,sans-Serif" font-style="italic" font-size="32.00" fill="#29235c">varchar(32)</text>
<polygon fill="#e7e2dd" stroke="transparent" points="1382.1,-1283.06 1382.1,-1343.06 1794.1,-1343.06 1794.1,-1283.06 1382.1,-1283.06"/>
<polygon fill="none" stroke="#29235c" points="1382.1,-1283.06 1382.1,-1343.06 1794.1,-1343.06 1794.1,-1283.06 1382.1,-1283.06"/>
<text text-anchor="start" x="1392.9" y="-1303.26" font-family="Helvetica,sans-Serif" font-size="32.00" fill="#29235c">industry_name &#160;&#160;&#160;</text>
<text text-anchor="start" x="1637.72" y="-1304.26" font-family="Helvetica,sans-Serif" font-style="italic" font-size="32.00" fill="#29235c">varchar</text>
<text text-anchor="start" x="1744.39" y="-1304.26" font-family="Helvetica,sans-Serif" font-size="32.00" fill="#29235c"> </text>
<text text-anchor="start" x="1753.28" y="-1304.26" font-family="Helvetica,sans-Serif" font-weight="bold" font-size="32.00" fill="#29235c">(!)</text>
<polygon fill="none" stroke="#29235c" stroke-width="2" points="1381.1,-1282.06 1381.1,-1464.06 1795.1,-1464.06 1795.1,-1282.06 1381.1,-1282.06"/>
</g>
<!-- fact_municipality_resilience -->
<g id="fact_municipality_resilience" class="node">
<title>fact_municipality_resilience</title>
<ellipse fill="none" stroke="black" stroke-width="0" cx="609.53" cy="-1021.06" rx="609.55" ry="1021.12"/>
<polygon fill="#1d71b8" stroke="transparent" points="180.53,-1681.06 180.53,-1741.06 1038.53,-1741.06 1038.53,-1681.06 180.53,-1681.06"/>
<polygon fill="none" stroke="#29235c" points="180.53,-1681.06 180.53,-1741.06 1038.53,-1741.06 1038.53,-1681.06 180.53,-1681.06"/>
<text text-anchor="start" x="352.59" y="-1702.26" font-family="Helvetica,sans-Serif" font-weight="bold" font-size="32.00" fill="#ffffff"> &#160;&#160;&#160;&#160;&#160;&#160;fact_municipality_resilience &#160;&#160;&#160;&#160;&#160;&#160;</text>
<polygon fill="#e7e2dd" stroke="transparent" points="180.53,-1621.06 180.53,-1681.06 1038.53,-1681.06 1038.53,-1621.06 180.53,-1621.06"/>
<polygon fill="none" stroke="#29235c" points="180.53,-1621.06 180.53,-1681.06 1038.53,-1681.06 1038.53,-1621.06 180.53,-1621.06"/>
<text text-anchor="start" x="191.53" y="-1641.26" font-family="Helvetica,sans-Serif" font-size="32.00" fill="#29235c">year_id &#160;&#160;&#160;</text>
<text text-anchor="start" x="954.65" y="-1642.26" font-family="Helvetica,sans-Serif" font-style="italic" font-size="32.00" fill="#29235c">int</text>
<text text-anchor="start" x="988.43" y="-1642.26" font-family="Helvetica,sans-Serif" font-size="32.00" fill="#29235c"> </text>
<text text-anchor="start" x="997.33" y="-1642.26" font-family="Helvetica,sans-Serif" font-weight="bold" font-size="32.00" fill="#29235c">(!)</text>
<polygon fill="#e7e2dd" stroke="transparent" points="180.53,-1561.06 180.53,-1621.06 1038.53,-1621.06 1038.53,-1561.06 180.53,-1561.06"/>
<polygon fill="none" stroke="#29235c" points="180.53,-1561.06 180.53,-1621.06 1038.53,-1621.06 1038.53,-1561.06 180.53,-1561.06"/>
<text text-anchor="start" x="191.53" y="-1581.26" font-family="Helvetica,sans-Serif" font-size="32.00" fill="#29235c">municipality_id &#160;&#160;&#160;</text>
<text text-anchor="start" x="824.88" y="-1582.26" font-family="Helvetica,sans-Serif" font-style="italic" font-size="32.00" fill="#29235c">varchar(32)</text>
<text text-anchor="start" x="988.43" y="-1582.26" font-family="Helvetica,sans-Serif" font-size="32.00" fill="#29235c"> </text>
<text text-anchor="start" x="997.33" y="-1582.26" font-family="Helvetica,sans-Serif" font-weight="bold" font-size="32.00" fill="#29235c">(!)</text>
<polygon fill="#e7e2dd" stroke="transparent" points="180.53,-1501.06 180.53,-1561.06 1038.53,-1561.06 1038.53,-1501.06 180.53,-1501.06"/>
<polygon fill="none" stroke="#29235c" points="180.53,-1501.06 180.53,-1561.06 1038.53,-1561.06 1038.53,-1501.06 180.53,-1501.06"/>
<text text-anchor="start" x="191.53" y="-1521.26" font-family="Helvetica,sans-Serif" font-size="32.00" fill="#29235c">population &#160;&#160;&#160;</text>
<text text-anchor="start" x="993.74" y="-1522.26" font-family="Helvetica,sans-Serif" font-style="italic" font-size="32.00" fill="#29235c">int</text>
<polygon fill="#e7e2dd" stroke="transparent" points="180.53,-1441.06 180.53,-1501.06 1038.53,-1501.06 1038.53,-1441.06 180.53,-1441.06"/>
<polygon fill="none" stroke="#29235c" points="180.53,-1441.06 180.53,-1501.06 1038.53,-1501.06 1038.53,-1441.06 180.53,-1441.06"/>
<text text-anchor="start" x="191.53" y="-1461.26" font-family="Helvetica,sans-Serif" font-size="32.00" fill="#29235c">deaths &#160;&#160;&#160;</text>
<text text-anchor="start" x="993.74" y="-1462.26" font-family="Helvetica,sans-Serif" font-style="italic" font-size="32.00" fill="#29235c">int</text>
<polygon fill="#e7e2dd" stroke="transparent" points="180.53,-1381.06 180.53,-1441.06 1038.53,-1441.06 1038.53,-1381.06 180.53,-1381.06"/>
<polygon fill="none" stroke="#29235c" points="180.53,-1381.06 180.53,-1441.06 1038.53,-1441.06 1038.53,-1381.06 180.53,-1381.06"/>
<text text-anchor="start" x="191.53" y="-1401.26" font-family="Helvetica,sans-Serif" font-size="32.00" fill="#29235c">establishments_count &#160;&#160;&#160;</text>
<text text-anchor="start" x="993.74" y="-1402.26" font-family="Helvetica,sans-Serif" font-style="italic" font-size="32.00" fill="#29235c">int</text>
<polygon fill="#e7e2dd" stroke="transparent" points="180.53,-1321.06 180.53,-1381.06 1038.53,-1381.06 1038.53,-1321.06 180.53,-1321.06"/>
<polygon fill="none" stroke="#29235c" points="180.53,-1321.06 180.53,-1381.06 1038.53,-1381.06 1038.53,-1321.06 180.53,-1321.06"/>
<text text-anchor="start" x="191.53" y="-1341.26" font-family="Helvetica,sans-Serif" font-size="32.00" fill="#29235c">personnel_staff_years &#160;&#160;&#160;</text>
<text text-anchor="start" x="993.74" y="-1342.26" font-family="Helvetica,sans-Serif" font-style="italic" font-size="32.00" fill="#29235c">int</text>
<polygon fill="#e7e2dd" stroke="transparent" points="180.53,-1261.06 180.53,-1321.06 1038.53,-1321.06 1038.53,-1261.06 180.53,-1261.06"/>
<polygon fill="none" stroke="#29235c" points="180.53,-1261.06 180.53,-1321.06 1038.53,-1321.06 1038.53,-1261.06 180.53,-1261.06"/>
<text text-anchor="start" x="191.53" y="-1281.26" font-family="Helvetica,sans-Serif" font-size="32.00" fill="#29235c">total_bankruptcies_enterprises &#160;&#160;&#160;</text>
<text text-anchor="start" x="993.74" y="-1282.26" font-family="Helvetica,sans-Serif" font-style="italic" font-size="32.00" fill="#29235c">int</text>
<polygon fill="#e7e2dd" stroke="transparent" points="180.53,-1201.06 180.53,-1261.06 1038.53,-1261.06 1038.53,-1201.06 180.53,-1201.06"/>
<polygon fill="none" stroke="#29235c" points="180.53,-1201.06 180.53,-1261.06 1038.53,-1261.06 1038.53,-1201.06 180.53,-1201.06"/>
<text text-anchor="start" x="191.53" y="-1221.26" font-family="Helvetica,sans-Serif" font-size="32.00" fill="#29235c">total_bankruptcies_employees &#160;&#160;&#160;</text>
<text text-anchor="start" x="993.74" y="-1222.26" font-family="Helvetica,sans-Serif" font-style="italic" font-size="32.00" fill="#29235c">int</text>
<polygon fill="#e7e2dd" stroke="transparent" points="180.53,-1141.06 180.53,-1201.06 1038.53,-1201.06 1038.53,-1141.06 180.53,-1141.06"/>
<polygon fill="none" stroke="#29235c" points="180.53,-1141.06 180.53,-1201.06 1038.53,-1201.06 1038.53,-1141.06 180.53,-1141.06"/>
<text text-anchor="start" x="191.53" y="-1161.26" font-family="Helvetica,sans-Serif" font-size="32.00" fill="#29235c">bankruptcies_per_1000_establishments &#160;&#160;&#160;</text>
<text text-anchor="start" x="833.74" y="-1162.26" font-family="Helvetica,sans-Serif" font-style="italic" font-size="32.00" fill="#29235c">decimal(10,2)</text>
<polygon fill="#e7e2dd" stroke="transparent" points="180.53,-1081.06 180.53,-1141.06 1038.53,-1141.06 1038.53,-1081.06 180.53,-1081.06"/>
<polygon fill="none" stroke="#29235c" points="180.53,-1081.06 180.53,-1141.06 1038.53,-1141.06 1038.53,-1081.06 180.53,-1081.06"/>
<text text-anchor="start" x="191.13" y="-1101.26" font-family="Helvetica,sans-Serif" font-size="32.00" fill="#29235c">bankrupt_employees_per_1000_personnel &#160;&#160;&#160;</text>
<text text-anchor="start" x="834.13" y="-1102.26" font-family="Helvetica,sans-Serif" font-style="italic" font-size="32.00" fill="#29235c">decimal(10,2)</text>
<polygon fill="#e7e2dd" stroke="transparent" points="180.53,-1021.06 180.53,-1081.06 1038.53,-1081.06 1038.53,-1021.06 180.53,-1021.06"/>
<polygon fill="none" stroke="#29235c" points="180.53,-1021.06 180.53,-1081.06 1038.53,-1081.06 1038.53,-1021.06 180.53,-1021.06"/>
<text text-anchor="start" x="191.53" y="-1041.26" font-family="Helvetica,sans-Serif" font-size="32.00" fill="#29235c">personnel_per_establishment &#160;&#160;&#160;</text>
<text text-anchor="start" x="833.74" y="-1042.26" font-family="Helvetica,sans-Serif" font-style="italic" font-size="32.00" fill="#29235c">decimal(10,2)</text>
<polygon fill="#e7e2dd" stroke="transparent" points="180.53,-961.06 180.53,-1021.06 1038.53,-1021.06 1038.53,-961.06 180.53,-961.06"/>
<polygon fill="none" stroke="#29235c" points="180.53,-961.06 180.53,-1021.06 1038.53,-1021.06 1038.53,-961.06 180.53,-961.06"/>
<text text-anchor="start" x="191.53" y="-981.26" font-family="Helvetica,sans-Serif" font-size="32.00" fill="#29235c">deaths_per_1000_population &#160;&#160;&#160;</text>
<text text-anchor="start" x="833.74" y="-982.26" font-family="Helvetica,sans-Serif" font-style="italic" font-size="32.00" fill="#29235c">decimal(10,2)</text>
<polygon fill="#e7e2dd" stroke="transparent" points="180.53,-901.06 180.53,-961.06 1038.53,-961.06 1038.53,-901.06 180.53,-901.06"/>
<polygon fill="none" stroke="#29235c" points="180.53,-901.06 180.53,-961.06 1038.53,-961.06 1038.53,-901.06 180.53,-901.06"/>
<text text-anchor="start" x="191.53" y="-921.26" font-family="Helvetica,sans-Serif" font-size="32.00" fill="#29235c">yoy_population_pct &#160;&#160;&#160;</text>
<text text-anchor="start" x="833.74" y="-922.26" font-family="Helvetica,sans-Serif" font-style="italic" font-size="32.00" fill="#29235c">decimal(10,2)</text>
<polygon fill="#e7e2dd" stroke="transparent" points="180.53,-841.06 180.53,-901.06 1038.53,-901.06 1038.53,-841.06 180.53,-841.06"/>
<polygon fill="none" stroke="#29235c" points="180.53,-841.06 180.53,-901.06 1038.53,-901.06 1038.53,-841.06 180.53,-841.06"/>
<text text-anchor="start" x="191.53" y="-861.26" font-family="Helvetica,sans-Serif" font-size="32.00" fill="#29235c">yoy_establishments_pct &#160;&#160;&#160;</text>
<text text-anchor="start" x="833.74" y="-862.26" font-family="Helvetica,sans-Serif" font-style="italic" font-size="32.00" fill="#29235c">decimal(10,2)</text>
<polygon fill="#e7e2dd" stroke="transparent" points="180.53,-781.06 180.53,-841.06 1038.53,-841.06 1038.53,-781.06 180.53,-781.06"/>
<polygon fill="none" stroke="#29235c" points="180.53,-781.06 180.53,-841.06 1038.53,-841.06 1038.53,-781.06 180.53,-781.06"/>
<text text-anchor="start" x="191.53" y="-801.26" font-family="Helvetica,sans-Serif" font-size="32.00" fill="#29235c">yoy_personnel_pct &#160;&#160;&#160;</text>
<text text-anchor="start" x="833.74" y="-802.26" font-family="Helvetica,sans-Serif" font-style="italic" font-size="32.00" fill="#29235c">decimal(10,2)</text>
<polygon fill="#e7e2dd" stroke="transparent" points="180.53,-721.06 180.53,-781.06 1038.53,-781.06 1038.53,-721.06 180.53,-721.06"/>
<polygon fill="none" stroke="#29235c" points="180.53,-721.06 180.53,-781.06 1038.53,-781.06 1038.53,-721.06 180.53,-721.06"/>
<text text-anchor="start" x="191.53" y="-741.26" font-family="Helvetica,sans-Serif" font-size="32.00" fill="#29235c">yoy_bankruptcies_pct &#160;&#160;&#160;</text>
<text text-anchor="start" x="833.74" y="-742.26" font-family="Helvetica,sans-Serif" font-style="italic" font-size="32.00" fill="#29235c">decimal(10,2)</text>
<polygon fill="#e7e2dd" stroke="transparent" points="180.53,-661.06 180.53,-721.06 1038.53,-721.06 1038.53,-661.06 180.53,-661.06"/>
<polygon fill="none" stroke="#29235c" points="180.53,-661.06 180.53,-721.06 1038.53,-721.06 1038.53,-661.06 180.53,-661.06"/>
<text text-anchor="start" x="191.53" y="-681.26" font-family="Helvetica,sans-Serif" font-size="32.00" fill="#29235c">rolling_3y_avg_bankruptcies &#160;&#160;&#160;</text>
<text text-anchor="start" x="833.74" y="-682.26" font-family="Helvetica,sans-Serif" font-style="italic" font-size="32.00" fill="#29235c">decimal(10,2)</text>
<polygon fill="#e7e2dd" stroke="transparent" points="180.53,-601.06 180.53,-661.06 1038.53,-661.06 1038.53,-601.06 180.53,-601.06"/>
<polygon fill="none" stroke="#29235c" points="180.53,-601.06 180.53,-661.06 1038.53,-661.06 1038.53,-601.06 180.53,-601.06"/>
<text text-anchor="start" x="191.53" y="-621.26" font-family="Helvetica,sans-Serif" font-size="32.00" fill="#29235c">rolling_3y_avg_bankruptcy_rate &#160;&#160;&#160;</text>
<text text-anchor="start" x="833.74" y="-622.26" font-family="Helvetica,sans-Serif" font-style="italic" font-size="32.00" fill="#29235c">decimal(10,2)</text>
<polygon fill="#e7e2dd" stroke="transparent" points="180.53,-541.06 180.53,-601.06 1038.53,-601.06 1038.53,-541.06 180.53,-541.06"/>
<polygon fill="none" stroke="#29235c" points="180.53,-541.06 180.53,-601.06 1038.53,-601.06 1038.53,-541.06 180.53,-541.06"/>
<text text-anchor="start" x="191.53" y="-561.26" font-family="Helvetica,sans-Serif" font-size="32.00" fill="#29235c">top_industry_id &#160;&#160;&#160;</text>
<text text-anchor="start" x="863.97" y="-562.26" font-family="Helvetica,sans-Serif" font-style="italic" font-size="32.00" fill="#29235c">varchar(32)</text>
<polygon fill="#e7e2dd" stroke="transparent" points="180.53,-481.06 180.53,-541.06 1038.53,-541.06 1038.53,-481.06 180.53,-481.06"/>
<polygon fill="none" stroke="#29235c" points="180.53,-481.06 180.53,-541.06 1038.53,-541.06 1038.53,-481.06 180.53,-481.06"/>
<text text-anchor="start" x="191.53" y="-501.26" font-family="Helvetica,sans-Serif" font-size="32.00" fill="#29235c">top_industry_bankruptcies_enterprises &#160;&#160;&#160;</text>
<text text-anchor="start" x="993.74" y="-502.26" font-family="Helvetica,sans-Serif" font-style="italic" font-size="32.00" fill="#29235c">int</text>
<polygon fill="#e7e2dd" stroke="transparent" points="180.53,-421.06 180.53,-481.06 1038.53,-481.06 1038.53,-421.06 180.53,-421.06"/>
<polygon fill="none" stroke="#29235c" points="180.53,-421.06 180.53,-481.06 1038.53,-481.06 1038.53,-421.06 180.53,-421.06"/>
<text text-anchor="start" x="191.53" y="-441.26" font-family="Helvetica,sans-Serif" font-size="32.00" fill="#29235c">top_industry_bankruptcies_employees &#160;&#160;&#160;</text>
<text text-anchor="start" x="993.74" y="-442.26" font-family="Helvetica,sans-Serif" font-style="italic" font-size="32.00" fill="#29235c">int</text>
<polygon fill="#e7e2dd" stroke="transparent" points="180.53,-361.06 180.53,-421.06 1038.53,-421.06 1038.53,-361.06 180.53,-361.06"/>
<polygon fill="none" stroke="#29235c" points="180.53,-361.06 180.53,-421.06 1038.53,-421.06 1038.53,-361.06 180.53,-361.06"/>
<text text-anchor="start" x="191.53" y="-381.26" font-family="Helvetica,sans-Serif" font-size="32.00" fill="#29235c">resilience_score &#160;&#160;&#160;</text>
<text text-anchor="start" x="833.74" y="-382.26" font-family="Helvetica,sans-Serif" font-style="italic" font-size="32.00" fill="#29235c">decimal(10,2)</text>
<polygon fill="#e7e2dd" stroke="transparent" points="180.53,-301.06 180.53,-361.06 1038.53,-361.06 1038.53,-301.06 180.53,-301.06"/>
<polygon fill="none" stroke="#29235c" points="180.53,-301.06 180.53,-361.06 1038.53,-361.06 1038.53,-301.06 180.53,-301.06"/>
<text text-anchor="start" x="191.53" y="-321.26" font-family="Helvetica,sans-Serif" font-size="32.00" fill="#29235c">municipality_business_class &#160;&#160;&#160;</text>
<text text-anchor="start" x="920.85" y="-322.26" font-family="Helvetica,sans-Serif" font-style="italic" font-size="32.00" fill="#29235c">varchar</text>
<polygon fill="none" stroke="#29235c" stroke-width="2" points="179.53,-300.06 179.53,-1742.06 1039.53,-1742.06 1039.53,-300.06 179.53,-300.06"/>
</g>
<!-- fact_municipality_resilience&#45;&gt;dim_year -->
<!-- fact_municipality_resilience&#45;&gt;dim_year -->
<g id="edge2" class="edge">
<title>fact_municipality_resilience:e&#45;&gt;dim_year:w</title>
<path fill="none" stroke="#29235c" stroke-width="3" d="M1039.53,-1651.06C1255.73,-1651.06 1229.36,-1920.44 1437.99,-1928.86"/>
<polygon fill="#29235c" stroke="#29235c" stroke-width="3" points="1438.03,-1932.36 1448.1,-1929.06 1438.17,-1925.36 1438.03,-1932.36"/>
<text text-anchor="middle" x="1439.2" y="-1938.66" font-family="Helvetica,sans-Serif" font-size="32.00" fill="#29235c">1</text>
<text text-anchor="middle" x="1045.75" y="-1660.66" font-family="Helvetica,sans-Serif" font-size="32.00" fill="#29235c">*</text>
</g>
<!-- fact_municipality_resilience&#45;&gt;dim_municipality -->
<!-- fact_municipality_resilience&#45;&gt;dim_municipality -->
<g id="edge4" class="edge">
<title>fact_municipality_resilience:e&#45;&gt;dim_municipality:w</title>
<path fill="none" stroke="#29235c" stroke-width="3" d="M1039.53,-1591.06C1178.38,-1591.06 1210.24,-1648.17 1343.87,-1650.96"/>
<polygon fill="#29235c" stroke="#29235c" stroke-width="3" points="1344.06,-1654.46 1354.1,-1651.06 1344.14,-1647.46 1344.06,-1654.46"/>
<text text-anchor="middle" x="1345.2" y="-1660.66" font-family="Helvetica,sans-Serif" font-size="32.00" fill="#29235c">1</text>
<text text-anchor="middle" x="1045.75" y="-1600.66" font-family="Helvetica,sans-Serif" font-size="32.00" fill="#29235c">*</text>
</g>
<!-- fact_municipality_resilience&#45;&gt;dim_industry -->
<!-- fact_municipality_resilience&#45;&gt;dim_industry -->
<g id="edge6" class="edge">
<title>fact_municipality_resilience:e&#45;&gt;dim_industry:w</title>
<path fill="none" stroke="#29235c" stroke-width="3" d="M1039.53,-571.06C1423.55,-571.06 1001.23,-1359.03 1371.07,-1372.88"/>
<polygon fill="#29235c" stroke="#29235c" stroke-width="3" points="1371.04,-1376.38 1381.1,-1373.06 1371.17,-1369.38 1371.04,-1376.38"/>
<text text-anchor="middle" x="1372.2" y="-1382.66" font-family="Helvetica,sans-Serif" font-size="32.00" fill="#29235c">1</text>
<text text-anchor="middle" x="1045.75" y="-542.26" font-family="Helvetica,sans-Serif" font-size="32.00" fill="#29235c">*</text>
</g>
</g>
</svg>
