<?xml version="1.0" encoding="UTF-8" standalone="no"?>
<!DOCTYPE svg PUBLIC "-//W3C//DTD SVG 1.1//EN"
 "http://www.w3.org/Graphics/SVG/1.1/DTD/svg11.dtd">
<!-- Generated by graphviz version 2.47.0 (20210316.0004)
 -->
<!-- Title: dbml Pages: 1 -->
<svg width="1870pt" height="1032pt"
 viewBox="0.00 0.00 1869.75 1031.89" xmlns="http://www.w3.org/2000/svg" xmlns:xlink="http://www.w3.org/1999/xlink">
<g id="graph0" class="graph" transform="scale(1 1) rotate(0) translate(4 1027.89)">
<title>dbml</title>
<!-- dim_year -->
<g id="dim_year" class="node">
<title>dim_year</title>
<ellipse fill="none" stroke="black" stroke-width="0" cx="1528.7" cy="-890.95" rx="199.31" ry="130.22"/>
<polygon fill="#1d71b8" stroke="transparent" points="1389.7,-920.95 1389.7,-980.95 1667.7,-980.95 1667.7,-920.95 1389.7,-920.95"/>
<polygon fill="none" stroke="#29235c" points="1389.7,-920.95 1389.7,-980.95 1667.7,-980.95 1667.7,-920.95 1389.7,-920.95"/>
<text text-anchor="start" x="1400.67" y="-942.15" font-family="Helvetica,sans-Serif" font-weight="bold" font-size="32.00" fill="#ffffff"> &#160;&#160;&#160;&#160;&#160;&#160;dim_year &#160;&#160;&#160;&#160;&#160;&#160;</text>
<polygon fill="#e7e2dd" stroke="transparent" points="1389.7,-860.95 1389.7,-920.95 1667.7,-920.95 1667.7,-860.95 1389.7,-860.95"/>
<polygon fill="none" stroke="#29235c" points="1389.7,-860.95 1389.7,-920.95 1667.7,-920.95 1667.7,-860.95 1389.7,-860.95"/>
<text text-anchor="start" x="1400.7" y="-882.15" font-family="Helvetica,sans-Serif" font-weight="bold" font-size="32.00" fill="#29235c">year_id</text>
<text text-anchor="start" x="1505.61" y="-882.15" font-family="Helvetica,sans-Serif" font-size="32.00" fill="#29235c"> &#160;&#160;&#160;</text>
<text text-anchor="start" x="1622.92" y="-882.15" font-family="Helvetica,sans-Serif" font-style="italic" font-size="32.00" fill="#29235c">int</text>
<polygon fill="#e7e2dd" stroke="transparent" points="1389.7,-800.95 1389.7,-860.95 1667.7,-860.95 1667.7,-800.95 1389.7,-800.95"/>
<polygon fill="none" stroke="#29235c" points="1389.7,-800.95 1389.7,-860.95 1667.7,-860.95 1667.7,-800.95 1389.7,-800.95"/>
<text text-anchor="start" x="1400.7" y="-821.15" font-family="Helvetica,sans-Serif" font-size="32.00" fill="#29235c">year &#160;&#160;&#160;</text>
<text text-anchor="start" x="1583.83" y="-822.15" font-family="Helvetica,sans-Serif" font-style="italic" font-size="32.00" fill="#29235c">int</text>
<text text-anchor="start" x="1617.61" y="-822.15" font-family="Helvetica,sans-Serif" font-size="32.00" fill="#29235c"> </text>
<text text-anchor="start" x="1626.5" y="-822.15" font-family="Helvetica,sans-Serif" font-weight="bold" font-size="32.00" fill="#29235c">(!)</text>
<polygon fill="none" stroke="#29235c" stroke-width="2" points="1388.7,-799.95 1388.7,-981.95 1668.7,-981.95 1668.7,-799.95 1388.7,-799.95"/>
</g>
<!-- dim_municipality -->
<g id="dim_municipality" class="node">
<title>dim_municipality</title>
<ellipse fill="none" stroke="black" stroke-width="0" cx="1528.7" cy="-612.95" rx="333.09" ry="130.22"/>
<polygon fill="#1d71b8" stroke="transparent" points="1295.7,-642.95 1295.7,-702.95 1762.7,-702.95 1762.7,-642.95 1295.7,-642.95"/>
<polygon fill="none" stroke="#29235c" points="1295.7,-642.95 1295.7,-702.95 1762.7,-702.95 1762.7,-642.95 1295.7,-642.95"/>
<text text-anchor="start" x="1348.74" y="-664.15" font-family="Helvetica,sans-Serif" font-weight="bold" font-size="32.00" fill="#ffffff"> &#160;&#160;&#160;&#160;&#160;&#160;dim_municipality &#160;&#160;&#160;&#160;&#160;&#160;</text>
<polygon fill="#e7e2dd" stroke="transparent" points="1295.7,-582.95 1295.7,-642.95 1762.7,-642.95 1762.7,-582.95 1295.7,-582.95"/>
<polygon fill="none" stroke="#29235c" points="1295.7,-582.95 1295.7,-642.95 1762.7,-642.95 1762.7,-582.95 1295.7,-582.95"/>
<text text-anchor="start" x="1306.7" y="-604.15" font-family="Helvetica,sans-Serif" font-weight="bold" font-size="32.00" fill="#29235c">municipality_id</text>
<text text-anchor="start" x="1516.48" y="-604.15" font-family="Helvetica,sans-Serif" font-size="32.00" fill="#29235c"> &#160;&#160;&#160;</text>
<text text-anchor="start" x="1588.15" y="-604.15" font-family="Helvetica,sans-Serif" font-style="italic" font-size="32.00" fill="#29235c">varchar(32)</text>
<polygon fill="#e7e2dd" stroke="transparent" points="1295.7,-522.95 1295.7,-582.95 1762.7,-582.95 1762.7,-522.95 1295.7,-522.95"/>
<polygon fill="none" stroke="#29235c" points="1295.7,-522.95 1295.7,-582.95 1762.7,-582.95 1762.7,-522.95 1295.7,-522.95"/>
<text text-anchor="start" x="1306.46" y="-543.15" font-family="Helvetica,sans-Serif" font-size="32.00" fill="#29235c">municipality_name &#160;&#160;&#160;</text>
<text text-anchor="start" x="1606.32" y="-544.15" font-family="Helvetica,sans-Serif" font-style="italic" font-size="32.00" fill="#29235c">varchar</text>
<text text-anchor="start" x="1712.99" y="-544.15" font-family="Helvetica,sans-Serif" font-size="32.00" fill="#29235c"> </text>
<text text-anchor="start" x="1721.89" y="-544.15" font-family="Helvetica,sans-Serif" font-weight="bold" font-size="32.00" fill="#29235c">(!)</text>
<polygon fill="none" stroke="#29235c" stroke-width="2" points="1294.2,-521.95 1294.2,-703.95 1763.2,-703.95 1763.2,-521.95 1294.2,-521.95"/>
</g>
<!-- fact_municipality_overview -->
<g id="fact_municipality_overview" class="node">
<title>fact_municipality_overview</title>
<ellipse fill="none" stroke="black" stroke-width="0" cx="579.83" cy="-511.95" rx="579.66" ry="511.89"/>
<polygon fill="#1d71b8" stroke="transparent" points="171.83,-811.95 171.83,-871.95 987.83,-871.95 987.83,-811.95 171.83,-811.95"/>
<polygon fill="none" stroke="#29235c" points="171.83,-811.95 171.83,-871.95 987.83,-871.95 987.83,-811.95 171.83,-811.95"/>
<text text-anchor="start" x="327.34" y="-833.15" font-family="Helvetica,sans-Serif" font-weight="bold" font-size="32.00" fill="#ffffff"> &#160;&#160;&#160;&#160;&#160;&#160;fact_municipality_overview &#160;&#160;&#160;&#160;&#160;&#160;</text>
<polygon fill="#e7e2dd" stroke="transparent" points="171.83,-751.95 171.83,-811.95 987.83,-811.95 987.83,-751.95 171.83,-751.95"/>
<polygon fill="none" stroke="#29235c" points="171.83,-751.95 171.83,-811.95 987.83,-811.95 987.83,-751.95 171.83,-751.95"/>
<text text-anchor="start" x="182.83" y="-772.15" font-family="Helvetica,sans-Serif" font-size="32.00" fill="#29235c">year_id &#160;&#160;&#160;</text>
<text text-anchor="start" x="903.95" y="-773.15" font-family="Helvetica,sans-Serif" font-style="italic" font-size="32.00" fill="#29235c">int</text>
<text text-anchor="start" x="937.74" y="-773.15" font-family="Helvetica,sans-Serif" font-size="32.00" fill="#29235c"> </text>
<text text-anchor="start" x="946.63" y="-773.15" font-family="Helvetica,sans-Serif" font-weight="bold" font-size="32.00" fill="#29235c">(!)</text>
<polygon fill="#e7e2dd" stroke="transparent" points="171.83,-691.95 171.83,-751.95 987.83,-751.95 987.83,-691.95 171.83,-691.95"/>
<polygon fill="none" stroke="#29235c" points="171.83,-691.95 171.83,-751.95 987.83,-751.95 987.83,-691.95 171.83,-691.95"/>
<text text-anchor="start" x="182.83" y="-712.15" font-family="Helvetica,sans-Serif" font-size="32.00" fill="#29235c">municipality_id &#160;&#160;&#160;</text>
<text text-anchor="start" x="774.18" y="-713.15" font-family="Helvetica,sans-Serif" font-style="italic" font-size="32.00" fill="#29235c">varchar(32)</text>
<text text-anchor="start" x="937.74" y="-713.15" font-family="Helvetica,sans-Serif" font-size="32.00" fill="#29235c"> </text>
<text text-anchor="start" x="946.63" y="-713.15" font-family="Helvetica,sans-Serif" font-weight="bold" font-size="32.00" fill="#29235c">(!)</text>
<polygon fill="#e7e2dd" stroke="transparent" points="171.83,-631.95 171.83,-691.95 987.83,-691.95 987.83,-631.95 171.83,-631.95"/>
<polygon fill="none" stroke="#29235c" points="171.83,-631.95 171.83,-691.95 987.83,-691.95 987.83,-631.95 171.83,-631.95"/>
<text text-anchor="start" x="182.83" y="-652.15" font-family="Helvetica,sans-Serif" font-size="32.00" fill="#29235c">population &#160;&#160;&#160;</text>
<text text-anchor="start" x="943.05" y="-653.15" font-family="Helvetica,sans-Serif" font-style="italic" font-size="32.00" fill="#29235c">int</text>
<polygon fill="#e7e2dd" stroke="transparent" points="171.83,-571.95 171.83,-631.95 987.83,-631.95 987.83,-571.95 171.83,-571.95"/>
<polygon fill="none" stroke="#29235c" points="171.83,-571.95 171.83,-631.95 987.83,-631.95 987.83,-571.95 171.83,-571.95"/>
<text text-anchor="start" x="182.83" y="-592.15" font-family="Helvetica,sans-Serif" font-size="32.00" fill="#29235c">deaths &#160;&#160;&#160;</text>
<text text-anchor="start" x="943.05" y="-593.15" font-family="Helvetica,sans-Serif" font-style="italic" font-size="32.00" fill="#29235c">int</text>
<polygon fill="#e7e2dd" stroke="transparent" points="171.83,-511.95 171.83,-571.95 987.83,-571.95 987.83,-511.95 171.83,-511.95"/>
<polygon fill="none" stroke="#29235c" points="171.83,-511.95 171.83,-571.95 987.83,-571.95 987.83,-511.95 171.83,-511.95"/>
<text text-anchor="start" x="182.83" y="-532.15" font-family="Helvetica,sans-Serif" font-size="32.00" fill="#29235c">death_rate_per_1000 &#160;&#160;&#160;</text>
<text text-anchor="start" x="783.04" y="-533.15" font-family="Helvetica,sans-Serif" font-style="italic" font-size="32.00" fill="#29235c">decimal(10,2)</text>
<polygon fill="#e7e2dd" stroke="transparent" points="171.83,-451.95 171.83,-511.95 987.83,-511.95 987.83,-451.95 171.83,-451.95"/>
<polygon fill="none" stroke="#29235c" points="171.83,-451.95 171.83,-511.95 987.83,-511.95 987.83,-451.95 171.83,-451.95"/>
<text text-anchor="start" x="182.83" y="-472.15" font-family="Helvetica,sans-Serif" font-size="32.00" fill="#29235c">establishments_count &#160;&#160;&#160;</text>
<text text-anchor="start" x="943.05" y="-473.15" font-family="Helvetica,sans-Serif" font-style="italic" font-size="32.00" fill="#29235c">int</text>
<polygon fill="#e7e2dd" stroke="transparent" points="171.83,-391.95 171.83,-451.95 987.83,-451.95 987.83,-391.95 171.83,-391.95"/>
<polygon fill="none" stroke="#29235c" points="171.83,-391.95 171.83,-451.95 987.83,-451.95 987.83,-391.95 171.83,-391.95"/>
<text text-anchor="start" x="182.83" y="-412.15" font-family="Helvetica,sans-Serif" font-size="32.00" fill="#29235c">personnel_staff_years &#160;&#160;&#160;</text>
<text text-anchor="start" x="943.05" y="-413.15" font-family="Helvetica,sans-Serif" font-style="italic" font-size="32.00" fill="#29235c">int</text>
<polygon fill="#e7e2dd" stroke="transparent" points="171.83,-331.95 171.83,-391.95 987.83,-391.95 987.83,-331.95 171.83,-331.95"/>
<polygon fill="none" stroke="#29235c" points="171.83,-331.95 171.83,-391.95 987.83,-391.95 987.83,-331.95 171.83,-331.95"/>
<text text-anchor="start" x="182.83" y="-352.15" font-family="Helvetica,sans-Serif" font-size="32.00" fill="#29235c">total_bankruptcies_enterprises &#160;&#160;&#160;</text>
<text text-anchor="start" x="943.05" y="-353.15" font-family="Helvetica,sans-Serif" font-style="italic" font-size="32.00" fill="#29235c">int</text>
<polygon fill="#e7e2dd" stroke="transparent" points="171.83,-271.95 171.83,-331.95 987.83,-331.95 987.83,-271.95 171.83,-271.95"/>
<polygon fill="none" stroke="#29235c" points="171.83,-271.95 171.83,-331.95 987.83,-331.95 987.83,-271.95 171.83,-271.95"/>
<text text-anchor="start" x="182.83" y="-292.15" font-family="Helvetica,sans-Serif" font-size="32.00" fill="#29235c">total_bankruptcies_employees &#160;&#160;&#160;</text>
<text text-anchor="start" x="943.05" y="-293.15" font-family="Helvetica,sans-Serif" font-style="italic" font-size="32.00" fill="#29235c">int</text>
<polygon fill="#e7e2dd" stroke="transparent" points="171.83,-211.95 171.83,-271.95 987.83,-271.95 987.83,-211.95 171.83,-211.95"/>
<polygon fill="none" stroke="#29235c" points="171.83,-211.95 171.83,-271.95 987.83,-271.95 987.83,-211.95 171.83,-211.95"/>
<text text-anchor="start" x="182.79" y="-232.15" font-family="Helvetica,sans-Serif" font-size="32.00" fill="#29235c">bankruptcies_per_1000_establishments &#160;&#160;&#160;</text>
<text text-anchor="start" x="783.43" y="-233.15" font-family="Helvetica,sans-Serif" font-style="italic" font-size="32.00" fill="#29235c">decimal(10,2)</text>
<polygon fill="#e7e2dd" stroke="transparent" points="171.83,-151.95 171.83,-211.95 987.83,-211.95 987.83,-151.95 171.83,-151.95"/>
<polygon fill="none" stroke="#29235c" points="171.83,-151.95 171.83,-211.95 987.83,-211.95 987.83,-151.95 171.83,-151.95"/>
<text text-anchor="start" x="182.83" y="-172.15" font-family="Helvetica,sans-Serif" font-size="32.00" fill="#29235c">bankruptcies_per_100k_population &#160;&#160;&#160;</text>
<text text-anchor="start" x="783.04" y="-173.15" font-family="Helvetica,sans-Serif" font-style="italic" font-size="32.00" fill="#29235c">decimal(10,2)</text>
<polygon fill="none" stroke="#29235c" stroke-width="2" points="170.83,-150.95 170.83,-872.95 988.83,-872.95 988.83,-150.95 170.83,-150.95"/>
</g>
<!-- fact_municipality_overview&#45;&gt;dim_year -->
<!-- fact_municipality_overview&#45;&gt;dim_year -->
<g id="edge2" class="edge">
<title>fact_municipality_overview:e&#45;&gt;dim_year:w</title>
<path fill="none" stroke="#29235c" stroke-width="3" d="M988.83,-781.95C1169.62,-781.95 1203.28,-886.94 1378.6,-890.83"/>
<polygon fill="#29235c" stroke="#29235c" stroke-width="3" points="1378.66,-894.33 1388.7,-890.95 1378.74,-887.34 1378.66,-894.33"/>
<text text-anchor="middle" x="1379.81" y="-900.55" font-family="Helvetica,sans-Serif" font-size="32.00" fill="#29235c">1</text>
<text text-anchor="middle" x="995.05" y="-791.55" font-family="Helvetica,sans-Serif" font-size="32.00" fill="#29235c">*</text>
</g>
<!-- fact_municipality_overview&#45;&gt;dim_municipality -->
<!-- fact_municipality_overview&#45;&gt;dim_municipality -->
<g id="edge4" class="edge">
<title>fact_municipality_overview:e&#45;&gt;dim_municipality:w</title>
<path fill="none" stroke="#29235c" stroke-width="3" d="M988.83,-721.95C1129.62,-721.95 1149.47,-618.2 1284.36,-613.14"/>
<polygon fill="#29235c" stroke="#29235c" stroke-width="3" points="1284.77,-616.63 1294.7,-612.95 1284.64,-609.63 1284.77,-616.63"/>
<text text-anchor="middle" x="1285.81" y="-584.15" font-family="Helvetica,sans-Serif" font-size="32.00" fill="#29235c">1</text>
<text text-anchor="middle" x="995.05" y="-731.55" font-family="Helvetica,sans-Serif" font-size="32.00" fill="#29235c">*</text>
</g>
</g>
</svg>
