<?xml version="1.0" encoding="UTF-8" standalone="no"?>
<!DOCTYPE svg PUBLIC "-//W3C//DTD SVG 1.1//EN"
 "http://www.w3.org/Graphics/SVG/1.1/DTD/svg11.dtd">
<!-- Generated by graphviz version 2.47.0 (20210316.0004)
 -->
<!-- Title: dbml Pages: 1 -->
<svg width="1379pt" height="667pt"
 viewBox="0.00 0.00 1379.02 666.92" xmlns="http://www.w3.org/2000/svg" xmlns:xlink="http://www.w3.org/1999/xlink">
<g id="graph0" class="graph" transform="scale(1 1) rotate(0) translate(4 662.92)">
<title>dbml</title>
<!-- dim_year -->
<g id="dim_year" class="node">
<title>dim_year</title>
<ellipse fill="none" stroke="black" stroke-width="0" cx="1037.97" cy="-528.81" rx="199.31" ry="130.22"/>
<polygon fill="#1d71b8" stroke="transparent" points="898.97,-558.81 898.97,-618.81 1176.97,-618.81 1176.97,-558.81 898.97,-558.81"/>
<polygon fill="none" stroke="#29235c" points="898.97,-558.81 898.97,-618.81 1176.97,-618.81 1176.97,-558.81 898.97,-558.81"/>
<text text-anchor="start" x="909.94" y="-580.01" font-family="Helvetica,sans-Serif" font-weight="bold" font-size="32.00" fill="#ffffff"> &#160;&#160;&#160;&#160;&#160;&#160;dim_year &#160;&#160;&#160;&#160;&#160;&#160;</text>
<polygon fill="#e7e2dd" stroke="transparent" points="898.97,-498.81 898.97,-558.81 1176.97,-558.81 1176.97,-498.81 898.97,-498.81"/>
<polygon fill="none" stroke="#29235c" points="898.97,-498.81 898.97,-558.81 1176.97,-558.81 1176.97,-498.81 898.97,-498.81"/>
<text text-anchor="start" x="909.97" y="-520.01" font-family="Helvetica,sans-Serif" font-weight="bold" font-size="32.00" fill="#29235c">year_id</text>
<text text-anchor="start" x="1014.88" y="-520.01" font-family="Helvetica,sans-Serif" font-size="32.00" fill="#29235c"> &#160;&#160;&#160;</text>
<text text-anchor="start" x="1132.19" y="-520.01" font-family="Helvetica,sans-Serif" font-style="italic" font-size="32.00" fill="#29235c">int</text>
<polygon fill="#e7e2dd" stroke="transparent" points="898.97,-438.81 898.97,-498.81 1176.97,-498.81 1176.97,-438.81 898.97,-438.81"/>
<polygon fill="none" stroke="#29235c" points="898.97,-438.81 898.97,-498.81 1176.97,-498.81 1176.97,-438.81 898.97,-438.81"/>
<text text-anchor="start" x="909.97" y="-459.01" font-family="Helvetica,sans-Serif" font-size="32.00" fill="#29235c">year &#160;&#160;&#160;</text>
<text text-anchor="start" x="1093.1" y="-460.01" font-family="Helvetica,sans-Serif" font-style="italic" font-size="32.00" fill="#29235c">int</text>
<text text-anchor="start" x="1126.88" y="-460.01" font-family="Helvetica,sans-Serif" font-size="32.00" fill="#29235c"> </text>
<text text-anchor="start" x="1135.77" y="-460.01" font-family="Helvetica,sans-Serif" font-weight="bold" font-size="32.00" fill="#29235c">(!)</text>
<polygon fill="none" stroke="#29235c" stroke-width="2" points="897.97,-437.81 897.97,-619.81 1177.97,-619.81 1177.97,-437.81 897.97,-437.81"/>
</g>
<!-- dim_municipality -->
<g id="dim_municipality" class="node">
<title>dim_municipality</title>
<ellipse fill="none" stroke="black" stroke-width="0" cx="1037.97" cy="-250.81" rx="333.09" ry="130.22"/>
<polygon fill="#1d71b8" stroke="transparent" points="804.97,-280.81 804.97,-340.81 1271.97,-340.81 1271.97,-280.81 804.97,-280.81"/>
<polygon fill="none" stroke="#29235c" points="804.97,-280.81 804.97,-340.81 1271.97,-340.81 1271.97,-280.81 804.97,-280.81"/>
<text text-anchor="start" x="858" y="-302.01" font-family="Helvetica,sans-Serif" font-weight="bold" font-size="32.00" fill="#ffffff"> &#160;&#160;&#160;&#160;&#160;&#160;dim_municipality &#160;&#160;&#160;&#160;&#160;&#160;</text>
<polygon fill="#e7e2dd" stroke="transparent" points="804.97,-220.81 804.97,-280.81 1271.97,-280.81 1271.97,-220.81 804.97,-220.81"/>
<polygon fill="none" stroke="#29235c" points="804.97,-220.81 804.97,-280.81 1271.97,-280.81 1271.97,-220.81 804.97,-220.81"/>
<text text-anchor="start" x="815.97" y="-242.01" font-family="Helvetica,sans-Serif" font-weight="bold" font-size="32.00" fill="#29235c">municipality_id</text>
<text text-anchor="start" x="1025.75" y="-242.01" font-family="Helvetica,sans-Serif" font-size="32.00" fill="#29235c"> &#160;&#160;&#160;</text>
<text text-anchor="start" x="1097.42" y="-242.01" font-family="Helvetica,sans-Serif" font-style="italic" font-size="32.00" fill="#29235c">varchar(32)</text>
<polygon fill="#e7e2dd" stroke="transparent" points="804.97,-160.81 804.97,-220.81 1271.97,-220.81 1271.97,-160.81 804.97,-160.81"/>
<polygon fill="none" stroke="#29235c" points="804.97,-160.81 804.97,-220.81 1271.97,-220.81 1271.97,-160.81 804.97,-160.81"/>
<text text-anchor="start" x="815.73" y="-181.01" font-family="Helvetica,sans-Serif" font-size="32.00" fill="#29235c">municipality_name &#160;&#160;&#160;</text>
<text text-anchor="start" x="1115.59" y="-182.01" font-family="Helvetica,sans-Serif" font-style="italic" font-size="32.00" fill="#29235c">varchar</text>
<text text-anchor="start" x="1222.26" y="-182.01" font-family="Helvetica,sans-Serif" font-size="32.00" fill="#29235c"> </text>
<text text-anchor="start" x="1231.15" y="-182.01" font-family="Helvetica,sans-Serif" font-weight="bold" font-size="32.00" fill="#29235c">(!)</text>
<polygon fill="none" stroke="#29235c" stroke-width="2" points="803.47,-159.81 803.47,-341.81 1272.47,-341.81 1272.47,-159.81 803.47,-159.81"/>
</g>
<!-- fact_population -->
<g id="fact_population" class="node">
<title>fact_population</title>
<ellipse fill="none" stroke="black" stroke-width="0" cx="334.46" cy="-299.81" rx="334.42" ry="299.63"/>
<polygon fill="#1d71b8" stroke="transparent" points="100.46,-449.81 100.46,-509.81 569.46,-509.81 569.46,-449.81 100.46,-449.81"/>
<polygon fill="none" stroke="#29235c" points="100.46,-449.81 100.46,-509.81 569.46,-509.81 569.46,-449.81 100.46,-449.81"/>
<text text-anchor="start" x="164.22" y="-471.01" font-family="Helvetica,sans-Serif" font-weight="bold" font-size="32.00" fill="#ffffff"> &#160;&#160;&#160;&#160;&#160;&#160;fact_population &#160;&#160;&#160;&#160;&#160;&#160;</text>
<polygon fill="#e7e2dd" stroke="transparent" points="100.46,-389.81 100.46,-449.81 569.46,-449.81 569.46,-389.81 100.46,-389.81"/>
<polygon fill="none" stroke="#29235c" points="100.46,-389.81 100.46,-449.81 569.46,-449.81 569.46,-389.81 100.46,-389.81"/>
<text text-anchor="start" x="111.46" y="-410.01" font-family="Helvetica,sans-Serif" font-size="32.00" fill="#29235c">year_id &#160;&#160;&#160;</text>
<text text-anchor="start" x="485.59" y="-411.01" font-family="Helvetica,sans-Serif" font-style="italic" font-size="32.00" fill="#29235c">int</text>
<text text-anchor="start" x="519.37" y="-411.01" font-family="Helvetica,sans-Serif" font-size="32.00" fill="#29235c"> </text>
<text text-anchor="start" x="528.26" y="-411.01" font-family="Helvetica,sans-Serif" font-weight="bold" font-size="32.00" fill="#29235c">(!)</text>
<polygon fill="#e7e2dd" stroke="transparent" points="100.46,-329.81 100.46,-389.81 569.46,-389.81 569.46,-329.81 100.46,-329.81"/>
<polygon fill="none" stroke="#29235c" points="100.46,-329.81 100.46,-389.81 569.46,-389.81 569.46,-329.81 100.46,-329.81"/>
<text text-anchor="start" x="111.28" y="-350.01" font-family="Helvetica,sans-Serif" font-size="32.00" fill="#29235c">municipality_id &#160;&#160;&#160;</text>
<text text-anchor="start" x="356.14" y="-351.01" font-family="Helvetica,sans-Serif" font-style="italic" font-size="32.00" fill="#29235c">varchar(32)</text>
<text text-anchor="start" x="519.69" y="-351.01" font-family="Helvetica,sans-Serif" font-size="32.00" fill="#29235c"> </text>
<text text-anchor="start" x="528.59" y="-351.01" font-family="Helvetica,sans-Serif" font-weight="bold" font-size="32.00" fill="#29235c">(!)</text>
<polygon fill="#e7e2dd" stroke="transparent" points="100.46,-269.81 100.46,-329.81 569.46,-329.81 569.46,-269.81 100.46,-269.81"/>
<polygon fill="none" stroke="#29235c" points="100.46,-269.81 100.46,-329.81 569.46,-329.81 569.46,-269.81 100.46,-269.81"/>
<text text-anchor="start" x="111.46" y="-290.01" font-family="Helvetica,sans-Serif" font-size="32.00" fill="#29235c">population &#160;&#160;&#160;</text>
<text text-anchor="start" x="524.68" y="-291.01" font-family="Helvetica,sans-Serif" font-style="italic" font-size="32.00" fill="#29235c">int</text>
<polygon fill="#e7e2dd" stroke="transparent" points="100.46,-209.81 100.46,-269.81 569.46,-269.81 569.46,-209.81 100.46,-209.81"/>
<polygon fill="none" stroke="#29235c" points="100.46,-209.81 100.46,-269.81 569.46,-269.81 569.46,-209.81 100.46,-209.81"/>
<text text-anchor="start" x="111.46" y="-230.01" font-family="Helvetica,sans-Serif" font-size="32.00" fill="#29235c">deaths &#160;&#160;&#160;</text>
<text text-anchor="start" x="524.68" y="-231.01" font-family="Helvetica,sans-Serif" font-style="italic" font-size="32.00" fill="#29235c">int</text>
<polygon fill="#e7e2dd" stroke="transparent" points="100.46,-149.81 100.46,-209.81 569.46,-209.81 569.46,-149.81 100.46,-149.81"/>
<polygon fill="none" stroke="#29235c" points="100.46,-149.81 100.46,-209.81 569.46,-209.81 569.46,-149.81 100.46,-149.81"/>
<text text-anchor="start" x="111.46" y="-170.01" font-family="Helvetica,sans-Serif" font-size="32.00" fill="#29235c">establishments_count &#160;&#160;&#160;</text>
<text text-anchor="start" x="524.68" y="-171.01" font-family="Helvetica,sans-Serif" font-style="italic" font-size="32.00" fill="#29235c">int</text>
<polygon fill="#e7e2dd" stroke="transparent" points="100.46,-89.81 100.46,-149.81 569.46,-149.81 569.46,-89.81 100.46,-89.81"/>
<polygon fill="none" stroke="#29235c" points="100.46,-89.81 100.46,-149.81 569.46,-149.81 569.46,-89.81 100.46,-89.81"/>
<text text-anchor="start" x="111.46" y="-110.01" font-family="Helvetica,sans-Serif" font-size="32.00" fill="#29235c">personnel_staff_years &#160;&#160;&#160;</text>
<text text-anchor="start" x="524.68" y="-111.01" font-family="Helvetica,sans-Serif" font-style="italic" font-size="32.00" fill="#29235c">int</text>
<polygon fill="none" stroke="#29235c" stroke-width="2" points="98.96,-88.81 98.96,-510.81 569.96,-510.81 569.96,-88.81 98.96,-88.81"/>
</g>
<!-- fact_population&#45;&gt;dim_year -->
<!-- fact_population&#45;&gt;dim_year -->
<g id="edge2" class="edge">
<title>fact_population:e&#45;&gt;dim_year:w</title>
<path fill="none" stroke="#29235c" stroke-width="3" d="M570.46,-419.81C720.43,-419.81 743.56,-523.97 887.83,-528.65"/>
<polygon fill="#29235c" stroke="#29235c" stroke-width="3" points="887.92,-532.15 897.97,-528.81 888.03,-525.15 887.92,-532.15"/>
<text text-anchor="middle" x="889.08" y="-538.41" font-family="Helvetica,sans-Serif" font-size="32.00" fill="#29235c">1</text>
<text text-anchor="middle" x="576.68" y="-429.41" font-family="Helvetica,sans-Serif" font-size="32.00" fill="#29235c">*</text>
</g>
<!-- fact_population&#45;&gt;dim_municipality -->
<!-- fact_population&#45;&gt;dim_municipality -->
<g id="edge4" class="edge">
<title>fact_population:e&#45;&gt;dim_municipality:w</title>
<path fill="none" stroke="#29235c" stroke-width="3" d="M570.46,-359.81C681.53,-359.81 689.07,-257.31 793.87,-251.11"/>
<polygon fill="#29235c" stroke="#29235c" stroke-width="3" points="794.08,-254.6 803.97,-250.81 793.87,-247.61 794.08,-254.6"/>
<text text-anchor="middle" x="795.08" y="-260.41" font-family="Helvetica,sans-Serif" font-size="32.00" fill="#29235c">1</text>
<text text-anchor="middle" x="576.68" y="-369.41" font-family="Helvetica,sans-Serif" font-size="32.00" fill="#29235c">*</text>
</g>
</g>
</svg>
