<?xml version="1.0" encoding="UTF-8" standalone="no"?>
<!DOCTYPE svg PUBLIC "-//W3C//DTD SVG 1.1//EN"
 "http://www.w3.org/Graphics/SVG/1.1/DTD/svg11.dtd">
<!-- Generated by graphviz version 2.47.0 (20210316.0004)
 -->
<!-- Title: dbml Pages: 1 -->
<svg width="1537pt" height="739pt"
 viewBox="0.00 0.00 1537.41 739.35" xmlns="http://www.w3.org/2000/svg" xmlns:xlink="http://www.w3.org/1999/xlink">
<g id="graph0" class="graph" transform="scale(1 1) rotate(0) translate(4 735.35)">
<title>dbml</title>
<!-- dim_year -->
<g id="dim_year" class="node">
<title>dim_year</title>
<ellipse fill="none" stroke="black" stroke-width="0" cx="1196.36" cy="-601.24" rx="199.31" ry="130.22"/>
<polygon fill="#1d71b8" stroke="transparent" points="1057.36,-631.24 1057.36,-691.24 1335.36,-691.24 1335.36,-631.24 1057.36,-631.24"/>
<polygon fill="none" stroke="#29235c" points="1057.36,-631.24 1057.36,-691.24 1335.36,-691.24 1335.36,-631.24 1057.36,-631.24"/>
<text text-anchor="start" x="1068.33" y="-652.44" font-family="Helvetica,sans-Serif" font-weight="bold" font-size="32.00" fill="#ffffff"> &#160;&#160;&#160;&#160;&#160;&#160;dim_year &#160;&#160;&#160;&#160;&#160;&#160;</text>
<polygon fill="#e7e2dd" stroke="transparent" points="1057.36,-571.24 1057.36,-631.24 1335.36,-631.24 1335.36,-571.24 1057.36,-571.24"/>
<polygon fill="none" stroke="#29235c" points="1057.36,-571.24 1057.36,-631.24 1335.36,-631.24 1335.36,-571.24 1057.36,-571.24"/>
<text text-anchor="start" x="1068.36" y="-592.44" font-family="Helvetica,sans-Serif" font-weight="bold" font-size="32.00" fill="#29235c">year_id</text>
<text text-anchor="start" x="1173.27" y="-592.44" font-family="Helvetica,sans-Serif" font-size="32.00" fill="#29235c"> &#160;&#160;&#160;</text>
<text text-anchor="start" x="1290.58" y="-592.44" font-family="Helvetica,sans-Serif" font-style="italic" font-size="32.00" fill="#29235c">int</text>
<polygon fill="#e7e2dd" stroke="transparent" points="1057.36,-511.24 1057.36,-571.24 1335.36,-571.24 1335.36,-511.24 1057.36,-511.24"/>
<polygon fill="none" stroke="#29235c" points="1057.36,-511.24 1057.36,-571.24 1335.36,-571.24 1335.36,-511.24 1057.36,-511.24"/>
<text text-anchor="start" x="1068.36" y="-531.44" font-family="Helvetica,sans-Serif" font-size="32.00" fill="#29235c">year &#160;&#160;&#160;</text>
<text text-anchor="start" x="1251.49" y="-532.44" font-family="Helvetica,sans-Serif" font-style="italic" font-size="32.00" fill="#29235c">int</text>
<text text-anchor="start" x="1285.27" y="-532.44" font-family="Helvetica,sans-Serif" font-size="32.00" fill="#29235c"> </text>
<text text-anchor="start" x="1294.16" y="-532.44" font-family="Helvetica,sans-Serif" font-weight="bold" font-size="32.00" fill="#29235c">(!)</text>
<polygon fill="none" stroke="#29235c" stroke-width="2" points="1056.36,-510.24 1056.36,-692.24 1336.36,-692.24 1336.36,-510.24 1056.36,-510.24"/>
</g>
<!-- dim_municipality -->
<g id="dim_municipality" class="node">
<title>dim_municipality</title>
<ellipse fill="none" stroke="black" stroke-width="0" cx="1196.36" cy="-323.24" rx="333.09" ry="130.22"/>
<polygon fill="#1d71b8" stroke="transparent" points="963.36,-353.24 963.36,-413.24 1430.36,-413.24 1430.36,-353.24 963.36,-353.24"/>
<polygon fill="none" stroke="#29235c" points="963.36,-353.24 963.36,-413.24 1430.36,-413.24 1430.36,-353.24 963.36,-353.24"/>
<text text-anchor="start" x="1016.4" y="-374.44" font-family="Helvetica,sans-Serif" font-weight="bold" font-size="32.00" fill="#ffffff"> &#160;&#160;&#160;&#160;&#160;&#160;dim_municipality &#160;&#160;&#160;&#160;&#160;&#160;</text>
<polygon fill="#e7e2dd" stroke="transparent" points="963.36,-293.24 963.36,-353.24 1430.36,-353.24 1430.36,-293.24 963.36,-293.24"/>
<polygon fill="none" stroke="#29235c" points="963.36,-293.24 963.36,-353.24 1430.36,-353.24 1430.36,-293.24 963.36,-293.24"/>
<text text-anchor="start" x="974.36" y="-314.44" font-family="Helvetica,sans-Serif" font-weight="bold" font-size="32.00" fill="#29235c">municipality_id</text>
<text text-anchor="start" x="1184.14" y="-314.44" font-family="Helvetica,sans-Serif" font-size="32.00" fill="#29235c"> &#160;&#160;&#160;</text>
<text text-anchor="start" x="1255.81" y="-314.44" font-family="Helvetica,sans-Serif" font-style="italic" font-size="32.00" fill="#29235c">varchar(32)</text>
<polygon fill="#e7e2dd" stroke="transparent" points="963.36,-233.24 963.36,-293.24 1430.36,-293.24 1430.36,-233.24 963.36,-233.24"/>
<polygon fill="none" stroke="#29235c" points="963.36,-233.24 963.36,-293.24 1430.36,-293.24 1430.36,-233.24 963.36,-233.24"/>
<text text-anchor="start" x="974.12" y="-253.44" font-family="Helvetica,sans-Serif" font-size="32.00" fill="#29235c">municipality_name &#160;&#160;&#160;</text>
<text text-anchor="start" x="1273.98" y="-254.44" font-family="Helvetica,sans-Serif" font-style="italic" font-size="32.00" fill="#29235c">varchar</text>
<text text-anchor="start" x="1380.65" y="-254.44" font-family="Helvetica,sans-Serif" font-size="32.00" fill="#29235c"> </text>
<text text-anchor="start" x="1389.55" y="-254.44" font-family="Helvetica,sans-Serif" font-weight="bold" font-size="32.00" fill="#29235c">(!)</text>
<polygon fill="none" stroke="#29235c" stroke-width="2" points="961.86,-232.24 961.86,-414.24 1430.86,-414.24 1430.86,-232.24 961.86,-232.24"/>
</g>
<!-- fact_regional_mortality -->
<g id="fact_regional_mortality" class="node">
<title>fact_regional_mortality</title>
<ellipse fill="none" stroke="black" stroke-width="0" cx="413.66" cy="-342.24" rx="413.81" ry="342.48"/>
<polygon fill="#1d71b8" stroke="transparent" points="123.66,-522.24 123.66,-582.24 704.66,-582.24 704.66,-522.24 123.66,-522.24"/>
<polygon fill="none" stroke="#29235c" points="123.66,-522.24 123.66,-582.24 704.66,-582.24 704.66,-522.24 123.66,-522.24"/>
<text text-anchor="start" x="191" y="-543.44" font-family="Helvetica,sans-Serif" font-weight="bold" font-size="32.00" fill="#ffffff"> &#160;&#160;&#160;&#160;&#160;&#160;fact_regional_mortality &#160;&#160;&#160;&#160;&#160;&#160;</text>
<polygon fill="#e7e2dd" stroke="transparent" points="123.66,-462.24 123.66,-522.24 704.66,-522.24 704.66,-462.24 123.66,-462.24"/>
<polygon fill="none" stroke="#29235c" points="123.66,-462.24 123.66,-522.24 704.66,-522.24 704.66,-462.24 123.66,-462.24"/>
<text text-anchor="start" x="134.66" y="-482.44" font-family="Helvetica,sans-Serif" font-size="32.00" fill="#29235c">year_id &#160;&#160;&#160;</text>
<text text-anchor="start" x="620.78" y="-483.44" font-family="Helvetica,sans-Serif" font-style="italic" font-size="32.00" fill="#29235c">int</text>
<text text-anchor="start" x="654.57" y="-483.44" font-family="Helvetica,sans-Serif" font-size="32.00" fill="#29235c"> </text>
<text text-anchor="start" x="663.46" y="-483.44" font-family="Helvetica,sans-Serif" font-weight="bold" font-size="32.00" fill="#29235c">(!)</text>
<polygon fill="#e7e2dd" stroke="transparent" points="123.66,-402.24 123.66,-462.24 704.66,-462.24 704.66,-402.24 123.66,-402.24"/>
<polygon fill="none" stroke="#29235c" points="123.66,-402.24 123.66,-462.24 704.66,-462.24 704.66,-402.24 123.66,-402.24"/>
<text text-anchor="start" x="134.66" y="-422.44" font-family="Helvetica,sans-Serif" font-size="32.00" fill="#29235c">municipality_id &#160;&#160;&#160;</text>
<text text-anchor="start" x="491.01" y="-423.44" font-family="Helvetica,sans-Serif" font-style="italic" font-size="32.00" fill="#29235c">varchar(32)</text>
<text text-anchor="start" x="654.57" y="-423.44" font-family="Helvetica,sans-Serif" font-size="32.00" fill="#29235c"> </text>
<text text-anchor="start" x="663.46" y="-423.44" font-family="Helvetica,sans-Serif" font-weight="bold" font-size="32.00" fill="#29235c">(!)</text>
<polygon fill="#e7e2dd" stroke="transparent" points="123.66,-342.24 123.66,-402.24 704.66,-402.24 704.66,-342.24 123.66,-342.24"/>
<polygon fill="none" stroke="#29235c" points="123.66,-342.24 123.66,-402.24 704.66,-402.24 704.66,-342.24 123.66,-342.24"/>
<text text-anchor="start" x="134.66" y="-362.44" font-family="Helvetica,sans-Serif" font-size="32.00" fill="#29235c">population &#160;&#160;&#160;</text>
<text text-anchor="start" x="659.88" y="-363.44" font-family="Helvetica,sans-Serif" font-style="italic" font-size="32.00" fill="#29235c">int</text>
<polygon fill="#e7e2dd" stroke="transparent" points="123.66,-282.24 123.66,-342.24 704.66,-342.24 704.66,-282.24 123.66,-282.24"/>
<polygon fill="none" stroke="#29235c" points="123.66,-282.24 123.66,-342.24 704.66,-342.24 704.66,-282.24 123.66,-282.24"/>
<text text-anchor="start" x="134.66" y="-302.44" font-family="Helvetica,sans-Serif" font-size="32.00" fill="#29235c">deaths &#160;&#160;&#160;</text>
<text text-anchor="start" x="659.88" y="-303.44" font-family="Helvetica,sans-Serif" font-style="italic" font-size="32.00" fill="#29235c">int</text>
<polygon fill="#e7e2dd" stroke="transparent" points="123.66,-222.24 123.66,-282.24 704.66,-282.24 704.66,-222.24 123.66,-222.24"/>
<polygon fill="none" stroke="#29235c" points="123.66,-222.24 123.66,-282.24 704.66,-282.24 704.66,-222.24 123.66,-222.24"/>
<text text-anchor="start" x="134.66" y="-242.44" font-family="Helvetica,sans-Serif" font-size="32.00" fill="#29235c">population_change_yoy &#160;&#160;&#160;</text>
<text text-anchor="start" x="659.88" y="-243.44" font-family="Helvetica,sans-Serif" font-style="italic" font-size="32.00" fill="#29235c">int</text>
<polygon fill="#e7e2dd" stroke="transparent" points="123.66,-162.24 123.66,-222.24 704.66,-222.24 704.66,-162.24 123.66,-162.24"/>
<polygon fill="none" stroke="#29235c" points="123.66,-162.24 123.66,-222.24 704.66,-222.24 704.66,-162.24 123.66,-162.24"/>
<text text-anchor="start" x="134.46" y="-182.44" font-family="Helvetica,sans-Serif" font-size="32.00" fill="#29235c">population_change_pct &#160;&#160;&#160;</text>
<text text-anchor="start" x="500.26" y="-183.44" font-family="Helvetica,sans-Serif" font-style="italic" font-size="32.00" fill="#29235c">decimal(10,2)</text>
<polygon fill="#e7e2dd" stroke="transparent" points="123.66,-102.24 123.66,-162.24 704.66,-162.24 704.66,-102.24 123.66,-102.24"/>
<polygon fill="none" stroke="#29235c" points="123.66,-102.24 123.66,-162.24 704.66,-162.24 704.66,-102.24 123.66,-102.24"/>
<text text-anchor="start" x="134.66" y="-122.44" font-family="Helvetica,sans-Serif" font-size="32.00" fill="#29235c">death_rate_per_1000 &#160;&#160;&#160;</text>
<text text-anchor="start" x="499.87" y="-123.44" font-family="Helvetica,sans-Serif" font-style="italic" font-size="32.00" fill="#29235c">decimal(10,2)</text>
<polygon fill="none" stroke="#29235c" stroke-width="2" points="122.16,-101.24 122.16,-583.24 705.16,-583.24 705.16,-101.24 122.16,-101.24"/>
</g>
<!-- fact_regional_mortality&#45;&gt;dim_year -->
<!-- fact_regional_mortality&#45;&gt;dim_year -->
<g id="edge2" class="edge">
<title>fact_regional_mortality:e&#45;&gt;dim_year:w</title>
<path fill="none" stroke="#29235c" stroke-width="3" d="M705.66,-492.24C865.37,-492.24 892.03,-596.61 1046.03,-601.09"/>
<polygon fill="#29235c" stroke="#29235c" stroke-width="3" points="1046.31,-604.6 1056.36,-601.24 1046.41,-597.6 1046.31,-604.6"/>
<text text-anchor="middle" x="1047.47" y="-610.84" font-family="Helvetica,sans-Serif" font-size="32.00" fill="#29235c">1</text>
<text text-anchor="middle" x="711.88" y="-501.84" font-family="Helvetica,sans-Serif" font-size="32.00" fill="#29235c">*</text>
</g>
<!-- fact_regional_mortality&#45;&gt;dim_municipality -->
<!-- fact_regional_mortality&#45;&gt;dim_municipality -->
<g id="edge4" class="edge">
<title>fact_regional_mortality:e&#45;&gt;dim_municipality:w</title>
<path fill="none" stroke="#29235c" stroke-width="3" d="M705.66,-432.24C826.1,-432.24 837.82,-329.33 952.1,-323.5"/>
<polygon fill="#29235c" stroke="#29235c" stroke-width="3" points="952.45,-326.99 962.36,-323.24 952.28,-319.99 952.45,-326.99"/>
<text text-anchor="middle" x="953.47" y="-332.84" font-family="Helvetica,sans-Serif" font-size="32.00" fill="#29235c">1</text>
<text text-anchor="middle" x="711.88" y="-441.84" font-family="Helvetica,sans-Serif" font-size="32.00" fill="#29235c">*</text>
</g>
</g>
</svg>
